<svg xmlns="http://www.w3.org/2000/svg" class="testimonial_icon" viewBox="0 0 164 164" fill="none" role="presentation" aria-hidden="true">
  <g clip-path="url(#clip0_242_3790)" aria-hidden="true">
    <path fill-rule="evenodd" clip-rule="evenodd" d="M117.47 86.5767C121.665 86.1954 125.86 86.1953 130.056 85.8139V82.7628C125.86 82.3814 121.665 82.3814 117.47 82L104.884 81.6186C97.6372 81.2372 90.0093 81.2372 82.7628 81.2372C82.7628 73.9907 82.7628 66.3628 82.3814 59.1163L82 46.5302C81.6186 42.3349 81.6186 38.1395 81.2372 33.9442H77.8047C77.4233 38.1395 77.4233 42.3349 77.0419 46.5302L76.6605 59.1163C76.6605 62.5488 76.6605 65.9814 76.6605 69.414C75.1349 66.3628 73.9907 62.9302 72.4651 59.8791L67.1256 48.4372C65.2186 44.6233 63.6931 40.8093 61.7861 36.9953L58.7349 38.1395C60.2605 42.3349 61.4047 46.1488 62.9303 49.9628L67.507 61.786C68.6512 65.2186 70.1768 68.2698 71.321 71.7023C68.6512 69.4139 66.3628 66.7442 63.6931 64.4558L54.5396 55.6837C51.4884 53.014 48.4372 49.9628 45.0047 47.293L42.3349 49.9628C45.0047 53.014 48.0558 56.0651 50.7256 59.4977L59.4977 68.6512C61.7861 71.3209 64.4558 73.6093 66.7442 76.2791C63.6931 75.1349 60.2605 73.6093 56.8279 72.4651L45.0047 67.8884C41.1907 66.3628 36.9954 64.8372 33.1814 63.693L31.6558 67.1256C35.4698 69.0326 39.2837 70.5581 43.0977 72.4651L54.5396 77.8046C57.5907 79.3302 61.0233 80.4744 64.0744 82C60.6419 82 57.2093 82 53.7768 82L41.1907 82.3814C36.9954 82.7628 32.8 82.7628 28.6047 83.1442V86.5767C32.8 86.9581 36.9954 86.9581 41.1907 87.3395L53.7768 87.7209C61.4047 88.1023 68.6512 88.1023 75.8977 88.1023C75.8977 95.3488 75.8977 102.977 76.2791 110.223L76.6605 122.809C77.0419 127.005 77.0419 131.2 77.4233 135.395H80.4744C80.8558 131.2 80.8558 127.005 81.2372 122.809L81.6186 110.223C81.6186 106.791 81.6186 102.977 82 99.5442C83.5256 102.977 84.6698 106.028 86.1954 109.46L91.5349 120.902C93.4419 124.716 94.9675 128.53 96.8745 132.344L99.9256 131.2C98.7814 127.005 97.2558 123.191 95.7303 119.377L91.9163 106.791C90.7721 103.358 89.2465 100.307 88.1024 96.8744C90.7721 99.5442 93.0605 101.833 95.7303 104.121L104.884 112.893C107.935 115.563 110.986 118.614 114.419 121.284L116.707 118.995C114.037 115.944 110.986 112.893 108.316 109.46L99.5442 100.307C97.2558 97.6372 94.5861 94.9674 92.2977 92.6791C95.7303 93.8232 98.7814 95.3488 102.214 96.493L114.037 101.07C117.851 102.595 122.047 104.121 125.86 105.265L127.005 102.214C123.191 100.307 119.377 98.4 115.563 96.8744L104.121 91.5349C100.688 90.0093 97.6372 88.4837 94.2047 87.3395C97.6372 87.3395 101.451 87.3395 104.884 86.9581L117.47 86.5767Z" fill="#173361" aria-hidden="true"></path>
    <path fill-rule="evenodd" clip-rule="evenodd" d="M82 164C36.614 164 0 127.386 0 82C0 36.614 36.614 0 82 0C127.386 0 164 36.614 164 82C164 127.386 127.386 164 82 164ZM82 7.62791C41.1907 7.62791 7.62791 41.1907 7.62791 82C7.62791 122.809 41.1907 156.372 82 156.372C122.809 156.372 156.372 122.809 156.372 82C156.372 41.1907 122.809 7.62791 82 7.62791Z" fill="#173361" aria-hidden="true"></path>
  </g>
  <defs aria-hidden="true">
    <clipPath id="clip0_242_3790" aria-hidden="true">
      <rect width="164" height="164" fill="white" aria-hidden="true"></rect>
    </clipPath>
  </defs>
</svg>