<svg width="20" height="20" viewBox="0 0 20 20" fill="none" xmlns="http://www.w3.org/2000/svg">
<path d="M4.16669 12.4998C3.39012 12.4998 3.00183 12.4998 2.69555 12.373C2.28717 12.2038 1.96271 11.8794 1.79355 11.471C1.66669 11.1647 1.66669 10.7764 1.66669 9.99984V4.33317C1.66669 3.39975 1.66669 2.93304 1.84834 2.57652C2.00813 2.26292 2.2631 2.00795 2.5767 1.84816C2.93322 1.6665 3.39993 1.6665 4.33335 1.6665H10C10.7766 1.6665 11.1649 1.6665 11.4712 1.79337C11.8795 1.96253 12.204 2.28698 12.3732 2.69536C12.5 3.00165 12.5 3.38993 12.5 4.1665M10.1667 18.3332H15.6667C16.6001 18.3332 17.0668 18.3332 17.4233 18.1515C17.7369 17.9917 17.9919 17.7368 18.1517 17.4232C18.3334 17.0666 18.3334 16.5999 18.3334 15.6665V10.1665C18.3334 9.23308 18.3334 8.76637 18.1517 8.40985C17.9919 8.09625 17.7369 7.84128 17.4233 7.68149C17.0668 7.49984 16.6001 7.49984 15.6667 7.49984H10.1667C9.23327 7.49984 8.76656 7.49984 8.41004 7.68149C8.09643 7.84128 7.84147 8.09625 7.68168 8.40985C7.50002 8.76637 7.50002 9.23308 7.50002 10.1665V15.6665C7.50002 16.5999 7.50002 17.0666 7.68168 17.4232C7.84147 17.7368 8.09643 17.9917 8.41004 18.1515C8.76656 18.3332 9.23327 18.3332 10.1667 18.3332Z" stroke="currentColor" stroke-width="1.66667" stroke-linecap="round" stroke-linejoin="round"></path>
</svg>