<svg xmlns="http://www.w3.org/2000/svg" class="testimonial_icon" viewBox="0 0 170 36" fill="none" role="presentation" aria-hidden="true">
  <g clip-path="url(#clip0_216_11541)" aria-hidden="true">
    <path d="M4.93449 3.27051H0.731567V28.524H18.7585V24.5013H4.93449V3.27051Z" fill="black" aria-hidden="true"></path>
    <path d="M39.8859 28.528H44.0887V28.483H44.1436L44.1511 28.2977C44.153 28.2435 44.1681 27.7381 44.0906 26.9593V17.5606C44.0906 14.0246 46.6929 12.4148 49.1118 12.4148C51.7141 12.4148 52.9803 13.8037 52.9803 16.6621V28.528H57.1832V16.1081C57.1832 11.3909 54.1577 8.45959 49.2876 8.45959C47.2183 8.45959 45.3719 9.04175 43.9225 10.148L43.8827 8.80589H39.8915V28.528H39.8859Z" fill="black" aria-hidden="true"></path>
    <path d="M74.2901 10.2547C72.8292 9.07919 70.9508 8.45959 68.8324 8.45959C63.1648 8.45959 59.644 12.3307 59.644 18.5621C59.644 24.7936 63.1648 28.7002 68.8324 28.7002C70.8317 28.7002 72.6157 28.1611 74.0217 27.1352C73.9008 30.1921 71.9675 32.0078 68.7984 32.0078C66.1337 32.0078 64.6256 31.1674 64.3156 29.5107L64.2779 29.3048L60.194 30.5384L60.2299 30.7049C60.9197 33.9975 64.0304 35.963 68.5545 35.963C71.6235 35.963 74.0312 35.1357 75.7113 33.5016C77.4063 31.8543 78.2643 29.4807 78.2643 26.4483V8.80589H74.3771L74.2919 10.2547H74.2901ZM74.0274 18.7362C74.0274 22.4987 72.1773 24.7468 69.0761 24.7468C65.752 24.7468 63.847 22.493 63.847 18.564C63.847 14.6349 65.7538 12.4148 69.0761 12.4148C72.1016 12.4148 73.9972 14.6517 74.0274 18.2514V18.7362Z" fill="black" aria-hidden="true"></path>
    <path d="M98.9733 20.5152C98.1021 23.3061 95.8645 24.8449 92.6764 24.8449C88.1163 24.8449 85.2816 21.4156 85.2816 15.8955C85.2816 10.3753 88.1409 6.946 92.7464 6.946C95.9325 6.946 97.7694 8.18331 98.703 10.9556L99.1395 12.2528L103.108 10.4071L102.736 9.36821C101.224 5.15088 97.7336 2.92334 92.6424 2.92334C89.1822 2.92334 86.2454 4.16065 84.1477 6.5005C82.0727 8.81787 80.9747 12.0656 80.9747 15.8973C80.9747 23.7779 85.567 28.8713 92.6764 28.8713C97.6863 28.8713 101.566 26.275 103.055 21.9248L103.435 20.8129L99.3588 19.2779L98.9714 20.5171L98.9733 20.5152Z" fill="black" aria-hidden="true"></path>
    <path d="M114.669 8.45956C112.662 8.45956 110.876 9.00427 109.474 10.0394V0.854126H105.271V28.5297H109.474V17.5625C109.474 14.0041 112.076 12.383 114.495 12.383C117.097 12.383 118.363 13.772 118.363 16.6302V28.5317H122.566V16.0762C122.566 11.4508 119.468 8.4633 114.671 8.4633L114.669 8.45956Z" fill="black" aria-hidden="true"></path>
    <path d="M147.132 0.255737C145.57 0.255737 144.437 1.37886 144.437 2.92503C144.437 4.47119 145.57 5.59432 147.132 5.59432C148.692 5.59432 149.826 4.47119 149.826 2.92503C149.826 1.37886 148.692 0.255737 147.132 0.255737Z" fill="black" aria-hidden="true"></path>
    <path d="M162.101 8.45959C160.031 8.45959 158.186 9.04175 156.736 10.148L156.696 8.80589H152.705V28.528H156.908V17.5606C156.908 14.0246 159.51 12.4148 161.93 12.4148C164.531 12.4148 165.797 13.8037 165.797 16.6621V28.528H170.001V16.1081C170.001 11.3909 166.975 8.45959 162.105 8.45959H162.101Z" fill="black" aria-hidden="true"></path>
    <path d="M149.173 8.80589H144.991V18.5827C143.83 17.6168 142.463 16.8868 140.921 16.4095V15.4154C140.921 11.0596 138.034 8.45959 133.198 8.45959C129.269 8.45959 126.331 10.2865 125.134 13.4706L124.812 14.3297L128.181 16.7895L128.759 15.2976C129.521 13.3302 130.933 12.413 133.198 12.413C135.464 12.413 136.717 13.493 136.717 15.6213V15.7319C136.583 15.7262 136.447 15.7225 136.311 15.7206C131.811 15.6494 128.528 16.6922 126.554 18.8148C124.534 20.9861 124.711 23.4252 124.738 23.6947L124.756 23.8819H124.775C125.089 26.92 127.768 28.8705 131.662 28.8705C133.806 28.8705 135.788 28.279 137.286 27.1989L137.302 28.526H140.921V22.3563L140.842 22.3003C140.331 21.9296 139.439 21.4504 138.096 21.2819C137.675 21.2295 137.273 21.2033 136.903 21.2109H136.715V21.778C136.715 23.0827 135.201 24.919 131.834 24.919C129.349 24.919 128.978 23.8838 128.978 23.2661V23.2025C128.997 22.9255 129.114 22.2478 129.732 21.617C130.517 20.8139 132.282 19.8743 136.241 19.9342C139.108 19.9791 141.307 20.7728 142.78 22.2946C144.587 24.1627 144.927 26.7198 144.989 27.7212V28.5279H149.171V8.80589H149.173Z" fill="black" aria-hidden="true"></path>
    <path d="M29.0181 8.36816C25.0893 8.36816 22.1506 10.1951 20.9543 13.3791L20.6312 14.2384L24.0007 16.698L24.5789 15.2061C25.3405 13.2387 26.7522 12.3216 29.0181 12.3216C31.2839 12.3216 32.5369 13.4017 32.5369 15.53V16.0298L28.2093 16.786C23.1352 17.6751 20.5613 19.8241 20.5613 23.1709C20.5613 26.5179 23.2769 28.7791 27.4798 28.7791C29.6247 28.7791 31.6053 28.1876 33.1039 27.1075L33.1209 28.4347H36.738V15.3241C36.738 10.9682 33.8522 8.36816 29.0163 8.36816H29.0181ZM32.5369 19.9308V21.6884C32.5369 22.9931 31.0232 24.8295 27.6556 24.8295C25.1705 24.8295 24.8 23.7943 24.8 23.1766C24.8 22.6281 24.8 21.344 29.2033 20.5354L32.5369 19.9327V19.9308Z" fill="black" aria-hidden="true"></path>
  </g>
  <defs aria-hidden="true">
    <clipPath id="clip0_216_11541" aria-hidden="true">
      <rect width="170" height="36" fill="white" aria-hidden="true"></rect>
    </clipPath>
  </defs>
</svg>