<svg class="testimonial_icon" viewBox="0 0 624 165" fill="none" xmlns="http://www.w3.org/2000/svg" aria-hidden="true">
<g clip-path="url(#clip0_340_8487)" aria-hidden="true">
<path d="M25.43 70.902C25.43 70.902 47.934 37.699 92.867 34.264V22.218C43.098 26.215 0 68.367 0 68.367C0 68.367 24.41 138.932 92.867 145.393V132.589C42.63 126.269 25.43 70.902 25.43 70.902ZM92.867 107.125V118.851C54.899 112.082 44.36 72.614 44.36 72.614C44.36 72.614 62.59 52.419 92.867 49.144V62.011C92.844 62.011 92.828 62.004 92.809 62.004C76.918 60.097 64.504 74.942 64.504 74.942C64.504 74.942 71.462 99.933 92.867 107.125ZM92.867 0V22.218C94.328 22.106 95.789 22.011 97.258 21.961C153.84 20.054 190.707 68.367 190.707 68.367C190.707 68.367 148.364 119.855 104.25 119.855C100.207 119.855 96.422 119.48 92.867 118.85V132.589C95.907 132.975 99.059 133.202 102.348 133.202C143.399 133.202 173.086 112.237 201.832 87.424C206.598 91.241 226.11 100.527 230.121 104.592C202.789 127.475 139.09 145.921 102.977 145.921C99.496 145.921 96.153 145.71 92.867 145.393V164.699H248.899V0H92.867ZM92.867 49.144V34.264C94.313 34.163 95.77 34.086 97.258 34.039C137.946 32.761 164.64 69.004 164.64 69.004C164.64 69.004 135.808 109.047 104.894 109.047C100.445 109.047 96.457 108.332 92.867 107.125V62.011C108.707 63.925 111.894 70.922 121.417 86.797L142.597 68.938C142.597 68.938 127.136 48.661 101.073 48.661C98.24 48.66 95.529 48.859 92.867 49.144Z" fill="#77B900" aria-hidden="true"></path>
<path d="M567.117 62.7417L577.715 91.7347H556.191L567.117 62.7417ZM555.767 51.4528L531.344 113.333H548.59L552.453 102.399H581.356L585.012 113.333H603.734L579.129 51.4447L555.767 51.4528ZM506.734 113.356H524.231V51.4337L506.731 51.4297L506.734 113.356ZM385.267 51.4297L370.669 100.508L356.685 51.4337L337.806 51.4297L357.778 113.356H382.985L403.118 51.4297H385.267ZM455.992 64.9138H463.512C474.422 64.9138 481.478 69.8118 481.478 82.5228C481.478 95.2368 474.422 100.136 463.512 100.136H455.992V64.9138ZM438.642 51.4297V113.356H467.008C482.121 113.356 487.056 110.844 492.392 105.208C496.161 101.251 498.599 92.5668 498.599 83.0738C498.599 74.3668 496.536 66.6057 492.939 61.7697C486.458 53.1207 477.122 51.4297 463.189 51.4297H438.642ZM272.899 51.3438V113.356H290.544V66.2697L304.216 66.2738C308.743 66.2738 311.97 67.4018 314.15 69.7308C316.915 72.6758 318.044 77.4298 318.044 86.1258V113.356H335.142V79.0938C335.142 54.6408 319.556 51.3438 304.306 51.3438H272.899ZM410.482 51.4297L410.489 113.356H427.978V51.4297H410.482Z" fill="black" aria-hidden="true"></path>
<path d="M621.312 82.345C621.312 86.116 618.543 88.647 615.265 88.647V88.624C611.894 88.647 609.176 86.116 609.176 82.346C609.176 78.577 611.894 76.053 615.265 76.053C618.544 76.052 621.312 78.576 621.312 82.345ZM623.765 82.345C623.765 77.17 619.745 74.166 615.265 74.166C610.754 74.166 606.734 77.17 606.734 82.345C606.734 87.517 610.755 90.533 615.265 90.533C619.746 90.533 623.765 87.517 623.765 82.345ZM613.855 83.037H614.765L616.874 86.74H619.19L616.854 82.881C618.061 82.795 619.054 82.22 619.054 80.595C619.054 78.576 617.662 77.927 615.304 77.927H611.893V86.74H613.854V83.037M613.855 81.545V79.423H615.219C615.961 79.423 616.972 79.483 616.972 80.388C616.972 81.373 616.449 81.545 615.574 81.545H613.855Z" fill="black" aria-hidden="true"></path>
</g>
<defs aria-hidden="true">
<clipPath id="clip0_340_8487" aria-hidden="true">
<rect width="623.765" height="164.699" fill="white" aria-hidden="true"></rect>
</clipPath>
</defs>
</svg>