<svg xmlns="http://www.w3.org/2000/svg" width="100%" height="100%" viewBox="0 0 84 84" fill="none" role="presentation">
  <path d="M82.5573 46.0349C82.5573 47.1666 81.8642 48.1317 80.7851 48.4826L71.7488 51.4216C71.3452 51.5532 71.0294 51.8603 70.889 52.2551C70.5469 53.2026 70.1608 54.1325 69.7309 55.0362C69.5467 55.4134 69.5555 55.8608 69.7485 56.2381L74.0649 64.7042C74.5913 65.7306 74.407 66.8711 73.5911 67.687L67.678 73.6002C66.8621 74.4161 65.7128 74.6003 64.6864 74.0739L56.2203 69.7575C55.843 69.5645 55.4044 69.5557 55.0184 69.74C54.1147 70.1699 53.176 70.5559 52.2373 70.898C51.8425 71.0384 51.5354 71.3542 51.4038 71.7578L48.4648 80.7941C48.1139 81.8732 47.1576 82.5663 46.0171 82.5663H37.6563C36.5246 82.5663 35.5595 81.8732 35.2086 80.7941L32.2696 71.7578C32.138 71.3542 31.8309 71.0384 31.4361 70.898C30.4974 70.5559 29.5587 70.1699 28.6551 69.74C28.4708 69.6522 28.269 69.6084 28.076 69.6084C27.8655 69.6084 27.6549 69.661 27.4619 69.7575L18.9958 74.0739C17.9694 74.6003 16.8288 74.4161 16.0129 73.6002L10.0998 67.687C9.28394 66.8711 9.0997 65.7219 9.62609 64.6954L13.9425 56.2293C14.1355 55.8521 14.1355 55.4134 13.96 55.0362C13.5301 54.115 13.1441 53.1763 12.8107 52.2463C12.6704 51.8515 12.3545 51.5444 11.951 51.4129L2.91463 48.4739C1.83553 48.1229 1.14246 47.1666 1.14246 46.0261V37.6653C1.14246 36.5336 1.83553 35.5685 2.91463 35.2176L11.951 32.2786C12.3545 32.147 12.6704 31.84 12.8107 31.4452C13.1441 30.5152 13.5301 29.5765 13.96 28.6553C14.1355 28.2781 14.1355 27.8394 13.9425 27.4622L9.62609 18.9961C9.0997 17.9696 9.28394 16.8291 10.0998 16.0132L16.0129 10.1001C16.8288 9.28418 17.9781 9.09995 19.0046 9.62634L27.4707 13.9427C27.8479 14.1357 28.2866 14.1357 28.6726 13.9603C29.5499 13.5479 30.4799 13.1619 31.4537 12.811C31.8485 12.6706 32.1555 12.3548 32.2871 11.9512L35.2261 2.91488C35.5771 1.83578 36.5333 1.1427 37.6739 1.1427H46.0347C47.1664 1.1427 48.1315 1.83578 48.4824 2.91488L51.4214 11.9512C51.553 12.3548 51.86 12.6706 52.2548 12.811C53.176 13.1444 54.1147 13.5304 55.0359 13.969C55.4132 14.1445 55.8606 14.1445 56.2291 13.9515L64.6952 9.63511C65.7216 9.10872 66.8621 9.29296 67.678 10.1089L73.5911 16.022C74.407 16.8379 74.5913 17.9871 74.0649 19.0136L69.7485 27.4797C69.5555 27.8569 69.5555 28.2956 69.7309 28.6728C70.1608 29.594 70.5469 30.524 70.8802 31.4627C71.0206 31.8575 71.3364 32.1646 71.74 32.2962L80.7763 35.2352C81.8554 35.5861 82.5485 36.5424 82.5485 37.6829V46.0349H82.5573Z" stroke="#F43BA6" stroke-width="2" stroke-linecap="round" stroke-linejoin="round"></path>
  <path d="M37.5047 48.1542L37.505 48.1544L37.7042 48.2991L33.7436 58.1446L33.433 57.979C27.6082 54.8735 23.9926 48.8539 23.9926 42.2685C23.9926 32.4539 31.9788 24.4677 41.7934 24.4677C51.6081 24.4677 59.5943 32.4539 59.5943 42.2685C59.5943 48.852 55.9813 54.871 50.1626 57.9794L49.8523 58.1452L45.8915 48.2996L46.0902 48.1545C46.0902 48.1545 46.0902 48.1545 46.0902 48.1545C47.9901 46.7684 49.0838 44.6131 49.0838 42.2597C49.0838 38.2391 45.814 34.9694 41.7934 34.9694C37.7758 34.9694 34.5118 38.2405 34.5118 42.2597C34.5118 44.618 35.6041 46.773 37.5047 48.1542Z" stroke="#FFBC00" stroke-width="2" stroke-linecap="round" stroke-linejoin="round"></path>
</svg>