<svg xmlns="http://www.w3.org/2000/svg" width="100%" height="100%" viewBox="0 0 97 81" fill="none" role="presentation">
  <g clip-path="url(#clip0_292_6311)">
    <path d="M19.5322 40.7837V47.397C19.5322 50.8026 20.3985 53.9508 22.1805 57.0297C23.7051 59.6631 25.9375 62.2767 28.9966 65.019C32.6596 68.2959 37.0305 71.3303 41.6587 74.5428C43.8021 76.0278 46.0147 77.5673 48.1729 79.1414L48.6877 79.5176L49.2025 79.1414C51.3607 77.5673 53.5734 76.0278 55.7167 74.5428C60.345 71.3303 64.7158 68.2959 68.3788 65.019C71.4429 62.2817 73.6704 59.6681 75.195 57.0297C76.977 53.9508 77.8432 50.7977 77.8432 47.397V40.7837" stroke="#F43BA6" stroke-width="1.80675" stroke-linejoin="round"></path>
    <path d="M77.8532 28.2464V7.59399L77.8978 7.55439C69.9629 3.96069 59.7857 1.80249 48.6928 1.80249C37.5998 1.80249 27.4226 3.96069 19.4878 7.54944L19.5323 7.58904V28.2415" stroke="#F43BA6" stroke-width="1.80675" stroke-linejoin="round"></path>
    <path d="M48.955 26.251C45.9107 26.251 43.4407 23.781 43.4407 20.7367C43.4407 17.6925 45.9107 15.2224 48.955 15.2224C51.9992 15.2224 54.4693 17.6925 54.4693 20.7367C54.4693 23.781 51.9992 26.251 48.955 26.251Z" stroke="#FFBC00" stroke-width="1.79685" stroke-miterlimit="10"></path>
    <path d="M90.5104 38.5816C87.4661 38.5816 84.9961 36.1115 84.9961 33.0673C84.9961 30.023 87.4661 27.553 90.5104 27.553C93.5546 27.553 96.0247 30.023 96.0247 33.0673C96.0247 36.1115 93.5546 38.5816 90.5104 38.5816Z" stroke="#FFBC00" stroke-width="1.79685" stroke-miterlimit="10"></path>
    <path d="M7.3998 38.5816C4.35555 38.5816 1.8855 36.1115 1.8855 33.0673C1.8855 30.023 4.35555 27.553 7.3998 27.553C10.444 27.553 12.9141 30.023 12.9141 33.0673C12.9141 36.1115 10.444 38.5816 7.3998 38.5816Z" stroke="#FFBC00" stroke-width="1.79685" stroke-miterlimit="10"></path>
    <path d="M71.9575 44.6701L84.9018 36.0076" stroke="#FFBC00" stroke-width="1.79685" stroke-linejoin="round"></path>
    <path d="M12.1567 35.9778L26.1702 44.9224" stroke="#FFBC00" stroke-width="1.79685" stroke-linejoin="round"></path>
    <path d="M53.2812 22.7465L84.991 30.3794" stroke="#FFBC00" stroke-width="1.79685" stroke-linejoin="round"></path>
    <path d="M32.1842 51.2437C35.2285 51.2437 37.6985 48.7736 37.6985 45.7294C37.6985 42.6851 35.2285 40.2151 32.1842 40.2151C29.14 40.2151 26.6699 42.6851 26.6699 45.7294C26.6699 48.7736 29.14 51.2437 32.1842 51.2437Z" stroke="#FFBC00" stroke-width="1.79685" stroke-miterlimit="10"></path>
    <path d="M34.9761 40.601L46.8561 25.9985" stroke="#FFBC00" stroke-width="1.79685" stroke-linejoin="round"></path>
    <path d="M66.5871 51.2437C63.5428 51.2437 61.0728 48.7736 61.0728 45.7294C61.0728 42.6851 63.5428 40.2151 66.5871 40.2151C69.6313 40.2151 72.1014 42.6851 72.1014 45.7294C72.1014 48.7736 69.6313 51.2437 66.5871 51.2437Z" stroke="#FFBC00" stroke-width="1.79685" stroke-miterlimit="10"></path>
    <path d="M63.7902 40.601L51.9102 25.9985" stroke="#FFBC00" stroke-width="1.79685" stroke-linejoin="round"></path>
    <path d="M60.8202 45.7986H37.8027" stroke="#FFBC00" stroke-width="1.79685" stroke-linejoin="round"></path>
    <path d="M44.0347 22.7465L12.325 30.3794" stroke="#FFBC00" stroke-width="1.79685" stroke-linejoin="round"></path>
  </g>
  <defs>
    <clipPath id="clip0_292_6311">
      <rect width="95.9409" height="79.5217" fill="white" transform="translate(0.984375 0.901611)"></rect>
    </clipPath>
  </defs>
</svg>