<svg width="609" height="512" viewBox="0 0 609 512" fill="none" xmlns="http://www.w3.org/2000/svg">
<g clip-path="url(#clip0_274_4992)">
<g opacity="0.8">
<g filter="url(#filter0_f_274_4992)">
<ellipse cx="202.405" cy="207.976" rx="148.976" ry="128.401" transform="rotate(-145.754 202.405 207.976)" fill="#F43BA6"/>
</g>
<g filter="url(#filter1_f_274_4992)">
<ellipse cx="401.999" cy="302.265" rx="160.843" ry="162.621" transform="rotate(165.224 401.999 302.265)" fill="#FFBC01"/>
</g>
</g>
<circle cx="302" cy="260" r="221" fill="url(#paint0_radial_274_4992)"/>
<g filter="url(#filter2_d_274_4992)">
<path d="M203 227L218 235.66V218.34L203 227ZM401 227L386 218.34V235.66L401 227ZM216.5 228.5H387.5V225.5H216.5V228.5Z" fill="url(#paint1_linear_274_4992)"/>
</g>
<g clip-path="url(#clip1_274_4992)">
<path d="M319.928 283.189H283.782C282.405 283.189 281.288 284.306 281.288 285.683V310.433C281.288 311.811 282.405 312.927 283.782 312.927H319.928C321.305 312.927 322.422 311.811 322.422 310.433V285.683C322.422 284.306 321.305 283.189 319.928 283.189Z" stroke="white" stroke-width="2.12477" stroke-miterlimit="10"/>
<path d="M287.21 283.189V268.93C287.21 260.844 293.766 254.288 301.854 254.288C309.942 254.288 316.498 260.846 316.498 268.932V282.933" stroke="white" stroke-width="2.12477" stroke-miterlimit="10"/>
<path d="M301.854 290.925C299.759 290.925 298.054 292.629 298.054 294.726C298.054 295.84 298.53 296.86 299.393 297.6C299.427 297.629 299.443 297.675 299.435 297.719L298.079 305.124H305.63L304.275 297.721C304.267 297.675 304.282 297.631 304.317 297.6C305.18 296.86 305.656 295.84 305.656 294.726C305.656 292.631 303.951 290.925 301.856 290.925H301.854Z" fill="white"/>
</g>
</g>
<g clip-path="url(#clip2_274_4992)">
<path d="M348.716 429.948C347.803 430.215 346.933 430.282 346.064 430.17C345.195 430.059 344.393 429.792 343.657 429.368C342.922 428.945 342.275 428.365 341.741 427.652C341.183 426.939 340.782 426.114 340.515 425.156C340.247 424.198 340.158 423.284 340.247 422.392C340.337 421.501 340.582 420.676 340.983 419.918C341.384 419.161 341.919 418.514 342.588 417.979C343.256 417.445 344.058 417.043 344.972 416.776C345.864 416.509 346.733 416.442 347.535 416.553C348.338 416.665 349.051 416.887 349.697 417.244C350.343 417.601 350.834 418.046 351.213 418.559L349.63 419.941C349.162 419.339 348.56 418.893 347.847 418.648C347.134 418.381 346.332 418.381 345.485 418.626C344.638 418.871 343.947 419.272 343.412 419.874C342.877 420.476 342.521 421.167 342.365 421.969C342.209 422.771 342.253 423.663 342.543 424.599C342.833 425.535 343.234 426.337 343.791 426.939C344.348 427.541 345.017 427.964 345.775 428.165C346.532 428.365 347.335 428.365 348.182 428.12C349.028 427.875 349.697 427.474 350.165 426.872C350.633 426.27 350.923 425.602 351.012 424.844L353.062 425.178C353.018 425.802 352.795 426.448 352.461 427.095C352.104 427.741 351.614 428.321 350.99 428.833C350.366 429.346 349.608 429.725 348.694 429.992L348.716 429.948ZM356.339 427.34L353.107 418.247L354.912 417.601L355.558 419.428L355.291 419.228C355.291 418.559 355.447 418.024 355.804 417.601C356.16 417.177 356.651 416.865 357.275 416.642L357.832 416.442L358.456 418.18L357.676 418.47C357.052 418.693 356.606 419.072 356.361 419.584C356.116 420.097 356.116 420.721 356.361 421.434L358.233 426.671L356.339 427.34ZM367.081 423.462C366.189 423.841 365.32 423.952 364.473 423.841C363.626 423.73 362.846 423.373 362.178 422.838C361.487 422.281 360.974 421.568 360.595 420.698C360.216 419.807 360.083 418.916 360.172 418.069C360.261 417.222 360.573 416.442 361.063 415.773C361.554 415.104 362.222 414.592 363.047 414.235C363.715 413.968 364.362 413.812 364.986 413.834C365.61 413.834 366.189 413.968 366.724 414.213C367.259 414.458 367.727 414.792 368.128 415.238C368.529 415.684 368.864 416.174 369.109 416.754C369.176 416.887 369.22 417.043 369.287 417.199C369.332 417.355 369.376 417.511 369.399 417.645L362.311 420.609L361.687 419.138L367.727 416.62L367.125 417.667C367.014 417.088 366.769 416.62 366.412 416.263C366.056 415.907 365.632 415.706 365.164 415.595C364.696 415.483 364.206 415.55 363.715 415.773C363.225 415.974 362.824 416.286 362.557 416.687C362.267 417.088 362.133 417.578 362.111 418.113C362.089 418.648 362.245 419.25 362.557 419.874C362.757 420.498 363.069 420.988 363.47 421.345C363.894 421.701 364.34 421.924 364.874 421.991C365.387 422.08 365.922 421.991 366.434 421.791C366.969 421.568 367.371 421.256 367.66 420.855C367.928 420.453 368.106 420.008 368.173 419.54L370 419.651C370 420.141 369.889 420.632 369.666 421.122C369.443 421.612 369.109 422.058 368.685 422.459C368.262 422.86 367.749 423.195 367.125 423.44L367.081 423.462ZM377.466 418.67C376.642 419.094 375.795 419.272 374.948 419.205C374.101 419.138 373.299 418.849 372.586 418.381C371.872 417.89 371.293 417.222 370.87 416.375C370.446 415.528 370.246 414.659 370.29 413.79C370.335 412.92 370.58 412.118 371.026 411.405C371.471 410.692 372.118 410.112 372.92 409.711C373.611 409.354 374.279 409.198 374.97 409.198C375.661 409.198 376.263 409.377 376.798 409.711L376.731 410.268L374.101 405.053L375.884 404.162L381.968 416.219L380.275 417.088L379.383 415.327L379.762 415.55C379.717 416.219 379.495 416.843 379.093 417.378C378.692 417.935 378.157 418.381 377.489 418.715L377.466 418.67ZM376.798 416.91C377.288 416.665 377.689 416.308 377.957 415.862C378.224 415.417 378.38 414.926 378.38 414.369C378.38 413.812 378.269 413.277 377.979 412.742C377.712 412.207 377.355 411.784 376.909 411.472C376.464 411.16 375.973 410.981 375.461 410.937C374.948 410.892 374.435 411.004 373.923 411.249C373.41 411.494 373.031 411.851 372.764 412.296C372.474 412.742 372.34 413.232 372.34 413.767C372.34 414.302 372.474 414.837 372.742 415.394C373.009 415.929 373.366 416.375 373.811 416.687C374.257 416.999 374.725 417.177 375.26 417.222C375.773 417.266 376.285 417.155 376.798 416.91ZM388.454 412.608C387.629 413.099 386.782 413.344 385.913 413.344C385.044 413.344 384.242 413.121 383.484 412.675C382.726 412.229 382.124 411.605 381.634 410.781C381.144 409.934 380.876 409.087 380.854 408.24C380.832 407.371 381.01 406.591 381.411 405.833C381.79 405.098 382.392 404.496 383.15 404.028C383.774 403.649 384.398 403.426 384.999 403.359C385.623 403.27 386.203 403.337 386.76 403.493C387.317 403.671 387.83 403.939 388.298 404.318C388.766 404.697 389.167 405.142 389.479 405.677C389.568 405.811 389.635 405.945 389.702 406.101C389.769 406.257 389.836 406.39 389.88 406.546L383.283 410.491L382.459 409.109L388.075 405.744L387.629 406.858C387.429 406.301 387.139 405.878 386.738 405.588C386.337 405.298 385.891 405.142 385.423 405.12C384.955 405.098 384.487 405.209 384.019 405.499C383.551 405.789 383.216 406.123 382.994 406.569C382.771 407.014 382.704 407.505 382.748 408.04C382.815 408.574 383.038 409.132 383.439 409.711C383.729 410.291 384.086 410.736 384.554 411.026C385.022 411.316 385.512 411.472 386.025 411.472C386.537 411.472 387.05 411.338 387.54 411.048C388.03 410.759 388.409 410.38 388.61 409.956C388.833 409.533 388.922 409.065 388.922 408.574L390.749 408.418C390.816 408.909 390.772 409.399 390.616 409.912C390.46 410.424 390.192 410.915 389.836 411.383C389.457 411.851 389.011 412.252 388.454 412.586V412.608ZM394.248 408.775L388.766 400.841L390.348 399.749L391.418 401.309L391.084 401.242C390.928 400.618 390.995 400.016 391.24 399.459C391.485 398.902 391.908 398.434 392.466 398.033C393.045 397.632 393.647 397.386 394.293 397.342C394.917 397.275 395.519 397.386 396.076 397.676C396.633 397.944 397.123 398.389 397.525 398.969L401.068 404.073L399.419 405.209L396.187 400.529C395.92 400.128 395.608 399.838 395.251 399.66C394.917 399.481 394.561 399.415 394.182 399.437C393.803 399.459 393.446 399.615 393.112 399.838C392.778 400.083 392.51 400.373 392.354 400.707C392.198 401.041 392.131 401.398 392.176 401.799C392.22 402.178 392.376 402.579 392.644 402.958L395.875 407.638L394.226 408.775H394.248ZM406.506 399.994C405.704 400.618 404.924 400.863 404.122 400.774C403.342 400.663 402.628 400.195 401.982 399.392L399.107 395.693L397.77 396.74L396.655 395.314L396.856 395.158C397.213 394.89 397.413 394.556 397.436 394.199C397.458 393.843 397.346 393.486 397.079 393.13L396.611 392.55L398.193 391.324L399.553 393.063L401.291 391.726L402.405 393.152L400.667 394.489L403.475 398.1C403.676 398.367 403.899 398.545 404.122 398.679C404.344 398.79 404.59 398.835 404.857 398.79C405.124 398.746 405.414 398.612 405.704 398.367C405.771 398.3 405.86 398.233 405.949 398.166C406.038 398.1 406.127 398.01 406.194 397.921L407.264 399.281C407.153 399.392 407.019 399.526 406.863 399.682C406.729 399.816 406.595 399.949 406.462 400.039L406.506 399.994ZM401.982 389.408L400.489 387.625L402.027 386.332L403.52 388.115L401.982 389.408ZM409.025 397.81L402.829 390.411L404.367 389.118L410.562 396.517L409.025 397.81ZM414.931 392.996C414.44 393.442 413.95 393.731 413.437 393.91C412.925 394.066 412.412 394.088 411.944 393.977C411.476 393.865 411.03 393.598 410.652 393.174C410.295 392.795 410.072 392.372 409.961 391.904C409.849 391.436 409.872 390.946 410.05 390.411C410.206 389.876 410.54 389.319 410.986 388.717L413.081 386.042L414.151 387.224L412.323 389.608C411.989 390.032 411.811 390.433 411.788 390.767C411.766 391.102 411.877 391.436 412.145 391.703C412.39 391.971 412.702 392.104 413.059 392.082C413.415 392.082 413.772 391.904 414.084 391.614C414.485 391.235 414.752 390.834 414.908 390.388C415.042 389.943 415.064 389.475 414.975 389.029C414.886 388.583 414.663 388.182 414.329 387.825L412.657 385.998C412.345 385.641 411.944 385.485 411.476 385.485C411.008 385.485 410.562 385.708 410.139 386.087C409.738 386.444 409.493 386.867 409.381 387.335C409.27 387.803 409.292 388.271 409.47 388.717L407.665 389.229C407.487 388.761 407.398 388.249 407.465 387.714C407.509 387.179 407.665 386.644 407.933 386.132C408.2 385.619 408.557 385.151 409.002 384.75C409.56 384.237 410.161 383.881 410.785 383.702C411.409 383.524 412.011 383.502 412.591 383.658C413.17 383.814 413.683 384.126 414.151 384.616L418.541 389.408L417.115 390.7L415.934 389.408L416.268 389.163C416.357 389.608 416.379 390.054 416.312 390.5C416.246 390.946 416.112 391.369 415.867 391.792C415.622 392.216 415.332 392.595 414.931 392.974V392.996ZM420.436 387.469L410.874 377.952L412.301 376.526L421.862 386.042L420.436 387.469ZM428.437 378.955L415.31 373.829L416.803 372.113L427.902 376.615L427.612 376.949L421.55 366.631L423.043 364.914L430.019 377.172L428.481 378.955H428.437ZM436.594 369.26C436.014 370.018 435.323 370.575 434.521 370.91C433.719 371.244 432.894 371.333 432.025 371.199C431.156 371.066 430.353 370.709 429.595 370.152C428.815 369.572 428.258 368.882 427.924 368.079C427.59 367.277 427.456 366.475 427.545 365.65C427.634 364.825 427.946 364.045 428.481 363.332C428.927 362.753 429.417 362.307 429.952 362.017C430.487 361.705 431.066 361.527 431.646 361.482C432.225 361.438 432.805 361.482 433.384 361.661C433.964 361.839 434.499 362.106 434.989 362.485C435.1 362.574 435.234 362.686 435.368 362.797C435.501 362.909 435.613 363.02 435.702 363.131L431.066 369.26L429.796 368.302L433.741 363.087V364.29C433.362 363.845 432.916 363.555 432.426 363.444C431.936 363.332 431.468 363.354 431.022 363.51C430.576 363.666 430.175 363.956 429.863 364.38C429.551 364.803 429.373 365.271 429.328 365.761C429.283 366.252 429.395 366.742 429.662 367.21C429.93 367.678 430.331 368.124 430.933 368.503C431.423 368.948 431.936 369.216 432.47 369.305C433.005 369.394 433.518 369.35 434.008 369.171C434.499 368.993 434.9 368.659 435.256 368.213C435.613 367.745 435.814 367.277 435.836 366.787C435.88 366.296 435.791 365.851 435.613 365.405L437.24 364.58C437.485 365.004 437.641 365.494 437.686 366.029C437.73 366.564 437.686 367.121 437.507 367.678C437.351 368.235 437.062 368.792 436.66 369.305L436.594 369.26ZM440.516 363.533L432.448 358.251L433.496 356.646L435.078 357.671L434.744 357.738C434.365 357.203 434.187 356.646 434.209 356.022C434.231 355.42 434.432 354.819 434.811 354.239C435.212 353.637 435.68 353.192 436.237 352.924C436.794 352.634 437.396 352.523 438.02 352.545C438.644 352.568 439.268 352.813 439.847 353.192L445.04 356.601L443.948 358.273L439.201 355.153C438.8 354.885 438.399 354.729 438.02 354.685C437.641 354.64 437.284 354.707 436.95 354.885C436.616 355.064 436.326 355.309 436.103 355.665C435.88 356.022 435.747 356.379 435.724 356.757C435.702 357.136 435.791 357.493 435.97 357.827C436.17 358.162 436.46 358.474 436.861 358.719L441.608 361.839L440.494 363.533H440.516ZM448.851 350.517C448.406 351.319 447.804 351.944 447.046 352.367C446.288 352.79 445.486 352.991 444.617 352.991C443.748 352.991 442.901 352.746 442.076 352.3C441.251 351.832 440.605 351.23 440.159 350.495C439.714 349.759 439.469 348.957 439.424 348.11C439.402 347.263 439.602 346.439 440.048 345.636C440.427 344.968 440.895 344.433 441.452 344.076C442.009 343.697 442.611 343.519 443.257 343.474L443.525 343.965L438.421 341.112L439.402 339.374L451.169 345.971L450.233 347.642L448.517 346.684H448.963C449.319 347.241 449.475 347.865 449.431 348.556C449.408 349.247 449.208 349.915 448.851 350.562V350.517ZM447.314 349.425C447.581 348.935 447.715 348.422 447.692 347.91C447.692 347.397 447.514 346.907 447.224 346.439C446.935 345.971 446.511 345.592 445.999 345.302C445.486 345.012 444.929 344.856 444.394 344.834C443.859 344.812 443.346 344.945 442.901 345.213C442.433 345.458 442.076 345.837 441.809 346.327C441.541 346.818 441.407 347.33 441.43 347.843C441.43 348.378 441.608 348.868 441.898 349.314C442.188 349.759 442.611 350.138 443.124 350.428C443.658 350.718 444.193 350.874 444.728 350.896C445.263 350.896 445.776 350.785 446.221 350.539C446.667 350.272 447.046 349.915 447.314 349.403V349.425ZM442.522 338.616L440.449 337.591L441.341 335.786L443.413 336.811L442.522 338.616ZM452.35 343.474L443.703 339.195L444.595 337.39L453.242 341.669L452.35 343.474ZM454.468 339.218L445.642 335.34L446.422 333.579L448.16 334.337L447.848 334.448C447.38 333.98 447.113 333.445 447.046 332.844C446.979 332.242 447.046 331.618 447.336 330.994C447.626 330.348 448.004 329.835 448.517 329.456C449.03 329.077 449.587 328.854 450.211 328.787C450.835 328.721 451.481 328.832 452.127 329.122L457.833 331.618L457.031 333.445L451.815 331.172C451.37 330.972 450.946 330.905 450.567 330.927C450.189 330.949 449.854 331.083 449.542 331.306C449.252 331.529 449.007 331.841 448.851 332.22C448.695 332.598 448.628 332.977 448.651 333.356C448.695 333.735 448.829 334.069 449.074 334.359C449.319 334.671 449.654 334.916 450.099 335.095L455.314 337.368L454.512 339.218H454.468ZM464.096 325.979C463.85 326.648 463.538 327.205 463.115 327.695C462.691 328.186 462.246 328.565 461.711 328.832C461.198 329.099 460.641 329.255 460.062 329.278L459.972 327.272C460.463 327.272 460.908 327.116 461.332 326.782C461.755 326.47 462.09 326.002 462.313 325.378C462.491 324.887 462.535 324.441 462.491 323.996C462.446 323.55 462.29 323.149 462.001 322.792C461.733 322.436 461.354 322.168 460.842 322.012L458.791 321.277L459.304 321.076C459.772 321.589 460.062 322.191 460.173 322.859C460.284 323.528 460.195 324.196 459.95 324.887C459.66 325.734 459.192 326.403 458.546 326.938C457.922 327.473 457.187 327.807 456.362 327.941C455.537 328.074 454.713 328.007 453.866 327.695C452.997 327.383 452.306 326.915 451.771 326.291C451.236 325.667 450.902 324.954 450.746 324.152C450.59 323.349 450.657 322.525 450.969 321.678C451.214 320.987 451.593 320.408 452.083 319.984C452.573 319.538 453.153 319.249 453.844 319.115L454.222 319.538L452.217 318.825L452.863 317.02L461.533 320.118C462.313 320.385 462.959 320.831 463.449 321.433C463.94 322.035 464.252 322.725 464.363 323.505C464.474 324.285 464.385 325.11 464.096 325.979ZM458.301 324.018C458.479 323.505 458.524 323.015 458.412 322.547C458.323 322.079 458.1 321.633 457.766 321.277C457.432 320.898 457.008 320.63 456.496 320.43C455.983 320.252 455.471 320.207 454.98 320.274C454.49 320.341 454.044 320.564 453.665 320.853C453.286 321.165 452.997 321.566 452.818 322.057C452.64 322.569 452.596 323.082 452.685 323.55C452.774 324.04 452.997 324.464 453.331 324.843C453.665 325.222 454.089 325.489 454.601 325.69C455.114 325.868 455.604 325.912 456.095 325.846C456.585 325.756 457.031 325.578 457.409 325.244C457.788 324.932 458.078 324.508 458.256 323.996L458.301 324.018Z" fill="#F43BA6"/>
<path d="M140.223 313.967C140 313.164 139.933 312.384 140.045 311.604C140.156 310.824 140.401 310.133 140.802 309.509C141.181 308.885 141.694 308.35 142.318 307.927L143.521 309.442C142.831 309.977 142.34 310.601 142.095 311.315C141.85 312.028 141.828 312.785 142.051 313.543C142.184 314.011 142.363 314.39 142.608 314.68C142.853 314.992 143.12 315.192 143.432 315.304C143.744 315.415 144.079 315.438 144.413 315.326C144.881 315.192 145.215 314.947 145.416 314.613C145.616 314.279 145.728 313.833 145.75 313.253L145.817 310.646C145.839 309.598 146.084 308.729 146.552 308.061C147.021 307.392 147.667 306.924 148.491 306.701C149.205 306.501 149.896 306.501 150.542 306.701C151.188 306.902 151.745 307.281 152.236 307.815C152.726 308.35 153.083 309.019 153.305 309.821C153.528 310.579 153.573 311.315 153.484 312.028C153.395 312.741 153.172 313.387 152.837 313.967C152.503 314.546 152.035 315.036 151.478 315.415L150.274 313.944C150.876 313.499 151.3 312.964 151.5 312.34C151.701 311.716 151.723 311.047 151.522 310.334C151.411 309.91 151.233 309.554 150.988 309.286C150.742 309.019 150.475 308.818 150.163 308.707C149.851 308.618 149.517 308.618 149.16 308.707C148.759 308.818 148.425 309.064 148.179 309.42C147.934 309.777 147.801 310.245 147.801 310.824L147.734 313.253C147.734 314.368 147.489 315.259 147.065 315.928C146.642 316.596 145.995 317.065 145.126 317.31C144.413 317.51 143.744 317.51 143.076 317.287C142.429 317.065 141.85 316.686 141.337 316.128C140.825 315.571 140.468 314.858 140.223 313.989V313.967ZM143.789 324.731C143.455 323.773 143.477 322.948 143.833 322.235C144.19 321.522 144.859 320.987 145.839 320.653L150.252 319.115L149.695 317.51L151.411 316.909L151.5 317.154C151.656 317.577 151.879 317.867 152.213 318.023C152.548 318.179 152.927 318.179 153.35 318.023L154.063 317.778L154.732 319.672L152.637 320.408L153.35 322.48L151.634 323.082L150.921 321.009L146.597 322.503C146.285 322.614 146.04 322.748 145.839 322.926C145.661 323.104 145.55 323.327 145.505 323.595C145.46 323.862 145.505 324.174 145.639 324.531C145.661 324.62 145.706 324.709 145.75 324.82C145.795 324.932 145.839 325.021 145.884 325.132L144.257 325.69C144.168 325.534 144.101 325.378 144.012 325.199C143.923 325.021 143.856 324.843 143.811 324.709L143.789 324.731ZM145.082 327.941L154.041 324.375L154.754 326.158L152.949 326.871L153.149 326.603C153.818 326.559 154.353 326.715 154.799 327.071C155.222 327.406 155.579 327.896 155.824 328.498L156.047 329.055L154.331 329.723L154.019 328.943C153.773 328.319 153.395 327.896 152.86 327.673C152.325 327.45 151.701 327.472 151.01 327.74L145.839 329.79L145.104 327.918L145.082 327.941ZM149.383 338.616C148.982 337.769 148.826 336.922 148.915 336.031C148.982 335.139 149.271 334.337 149.784 333.624C150.274 332.888 150.965 332.331 151.834 331.93C152.726 331.529 153.595 331.373 154.464 331.462C155.334 331.551 156.136 331.863 156.849 332.353C157.562 332.866 158.119 333.535 158.521 334.404C158.922 335.273 159.078 336.12 159.011 336.989C158.944 337.858 158.654 338.661 158.142 339.374C157.651 340.087 156.96 340.666 156.069 341.067C155.178 341.469 154.308 341.647 153.417 341.558C152.525 341.469 151.745 341.179 151.032 340.666C150.319 340.154 149.762 339.485 149.383 338.638V338.616ZM151.077 337.836C151.322 338.348 151.656 338.75 152.08 339.039C152.503 339.329 152.993 339.485 153.551 339.507C154.108 339.53 154.643 339.418 155.2 339.173C155.757 338.928 156.18 338.571 156.515 338.148C156.827 337.724 157.027 337.234 157.094 336.722C157.161 336.209 157.072 335.696 156.827 335.184C156.582 334.671 156.247 334.27 155.824 333.98C155.4 333.691 154.91 333.535 154.353 333.49C153.818 333.468 153.261 333.579 152.726 333.824C152.169 334.069 151.745 334.426 151.411 334.849C151.077 335.295 150.876 335.763 150.832 336.276C150.787 336.788 150.854 337.301 151.099 337.814L151.077 337.836ZM152.882 345.347L161.329 340.689L162.265 342.382L160.616 343.296L160.727 342.962C161.373 342.873 161.953 342.984 162.488 343.296C163.022 343.608 163.446 344.054 163.78 344.656C164.115 345.28 164.293 345.904 164.293 346.528C164.293 347.152 164.115 347.731 163.78 348.266C163.446 348.801 162.978 349.247 162.354 349.581L156.916 352.59L155.958 350.851L160.928 348.11C161.351 347.865 161.663 347.598 161.886 347.286C162.109 346.973 162.198 346.617 162.198 346.238C162.198 345.859 162.109 345.503 161.908 345.124C161.708 344.767 161.44 344.477 161.128 344.277C160.816 344.076 160.459 343.987 160.058 343.987C159.679 343.987 159.278 344.121 158.855 344.344L153.885 347.085L152.904 345.324L152.882 345.347ZM157.473 360.947C157.094 360.368 156.827 359.744 156.715 359.12C156.582 358.496 156.559 357.894 156.671 357.315C156.782 356.735 156.983 356.223 157.317 355.755L158.966 356.891C158.677 357.27 158.521 357.738 158.521 358.273C158.521 358.808 158.677 359.343 159.033 359.9C159.301 360.323 159.635 360.658 160.014 360.903C160.393 361.148 160.816 361.259 161.262 361.259C161.708 361.259 162.153 361.103 162.577 360.836L164.404 359.655L164.248 360.167C163.557 360.234 162.911 360.1 162.309 359.766C161.73 359.454 161.217 358.986 160.816 358.362C160.326 357.604 160.081 356.824 160.036 356C159.991 355.175 160.17 354.395 160.571 353.66C160.95 352.924 161.529 352.3 162.287 351.81C163.045 351.319 163.847 351.052 164.672 351.007C165.496 350.963 166.276 351.119 166.99 351.498C167.725 351.854 168.327 352.434 168.817 353.192C169.218 353.816 169.441 354.44 169.486 355.108C169.53 355.755 169.397 356.401 169.107 357.047L168.55 357.092L170.333 355.933L171.358 357.537L163.624 362.53C162.933 362.975 162.198 363.221 161.418 363.243C160.638 363.265 159.902 363.087 159.211 362.708C158.521 362.329 157.919 361.75 157.406 360.97L157.473 360.947ZM162.554 357.537C162.844 357.983 163.201 358.318 163.647 358.518C164.092 358.719 164.56 358.83 165.051 358.786C165.541 358.763 166.031 358.585 166.477 358.295C166.945 358.006 167.279 357.627 167.524 357.181C167.747 356.735 167.859 356.267 167.859 355.777C167.859 355.287 167.703 354.818 167.413 354.395C167.123 353.927 166.744 353.593 166.299 353.37C165.853 353.147 165.385 353.058 164.895 353.08C164.404 353.102 163.914 353.281 163.446 353.57C163 353.86 162.644 354.217 162.421 354.662C162.176 355.108 162.064 355.576 162.086 356.067C162.109 356.557 162.265 357.047 162.554 357.493V357.537ZM168.55 370.219C168.148 369.706 167.881 369.171 167.77 368.636C167.658 368.101 167.658 367.611 167.814 367.143C167.97 366.675 168.26 366.274 168.706 365.917C169.107 365.605 169.553 365.405 170.021 365.316C170.489 365.249 170.979 365.316 171.514 365.516C172.049 365.717 172.584 366.073 173.118 366.586L175.615 368.881L174.367 369.862L172.138 367.834C171.737 367.477 171.358 367.277 171.023 367.21C170.667 367.165 170.355 367.255 170.043 367.477C169.753 367.7 169.597 367.99 169.597 368.369C169.597 368.725 169.709 369.082 169.976 369.439C170.31 369.862 170.689 370.174 171.135 370.352C171.581 370.531 172.026 370.575 172.472 370.531C172.918 370.464 173.341 370.286 173.72 369.974L175.681 368.458C176.06 368.168 176.261 367.789 176.283 367.321C176.305 366.853 176.149 366.385 175.793 365.94C175.459 365.516 175.057 365.226 174.612 365.093C174.144 364.959 173.676 364.937 173.208 365.048L172.829 363.221C173.319 363.065 173.832 363.042 174.367 363.131C174.901 363.221 175.414 363.421 175.904 363.733C176.395 364.045 176.818 364.424 177.197 364.914C177.665 365.516 177.977 366.14 178.111 366.764C178.244 367.411 178.222 368.012 178.022 368.569C177.821 369.127 177.464 369.617 176.929 370.04L171.804 374.03L170.622 372.514L172.004 371.444L172.205 371.801C171.759 371.868 171.313 371.846 170.867 371.734C170.422 371.645 169.998 371.444 169.619 371.199C169.241 370.954 168.862 370.598 168.527 370.174L168.55 370.219ZM175.748 378.955C175.258 378.42 174.968 377.841 174.857 377.194C174.745 376.57 174.79 375.946 175.035 375.322C175.28 374.698 175.681 374.141 176.261 373.629L180.718 369.684L182.055 371.199L177.732 375.033C177.398 375.322 177.175 375.657 177.041 375.991C176.907 376.325 176.885 376.704 176.952 377.061C177.019 377.417 177.197 377.752 177.487 378.064C177.776 378.376 178.088 378.599 178.445 378.71C178.802 378.821 179.158 378.844 179.559 378.755C179.938 378.665 180.295 378.465 180.651 378.153L184.908 374.386L186.223 375.88L179.002 382.276L177.732 380.85L179.136 379.601L179.091 379.936C178.49 380.159 177.91 380.181 177.331 380.003C176.751 379.824 176.216 379.468 175.748 378.955ZM183.816 387.38C183.103 386.666 182.746 385.909 182.769 385.106C182.769 384.304 183.148 383.546 183.883 382.811L187.204 379.535L186 378.331L187.293 377.061L187.471 377.239C187.783 377.551 188.118 377.707 188.496 377.707C188.875 377.707 189.21 377.529 189.522 377.217L190.056 376.682L191.483 378.108L189.9 379.668L191.438 381.228L190.146 382.521L188.608 380.961L185.354 384.193C185.109 384.438 184.953 384.661 184.864 384.906C184.774 385.151 184.774 385.396 184.864 385.641C184.953 385.909 185.109 386.154 185.376 386.421C185.443 386.488 185.532 386.555 185.621 386.644C185.711 386.733 185.8 386.8 185.889 386.867L184.663 388.093C184.529 388.004 184.373 387.87 184.217 387.758C184.061 387.647 183.928 387.513 183.816 387.402V387.38ZM186.401 389.787L195.45 379.78L196.943 381.139L193.087 385.396L193.021 384.995C193.6 384.705 194.202 384.616 194.781 384.727C195.383 384.839 195.94 385.129 196.453 385.597C196.988 386.065 197.344 386.622 197.545 387.201C197.745 387.803 197.768 388.405 197.634 389.007C197.5 389.608 197.188 390.188 196.72 390.7L192.53 395.336L191.037 393.999L194.848 389.787C195.182 389.43 195.383 389.051 195.472 388.672C195.561 388.293 195.561 387.937 195.428 387.58C195.316 387.224 195.093 386.912 194.781 386.644C194.492 386.377 194.157 386.198 193.778 386.109C193.422 386.02 193.043 386.042 192.686 386.176C192.33 386.31 191.973 386.555 191.661 386.912L187.85 391.124L186.357 389.764L186.401 389.787ZM198.013 400.039C197.255 399.437 196.72 398.746 196.408 397.921C196.096 397.097 196.029 396.272 196.163 395.425C196.297 394.578 196.676 393.754 197.277 393.018C197.879 392.26 198.57 391.703 199.372 391.369C200.175 391.035 200.977 390.923 201.802 391.035C202.626 391.124 203.406 391.458 204.119 392.015C204.677 392.461 205.122 392.974 205.412 393.508C205.702 394.066 205.88 394.623 205.902 395.202C205.947 395.782 205.88 396.361 205.68 396.941C205.501 397.498 205.212 398.033 204.81 398.523C204.721 398.634 204.61 398.768 204.498 398.902C204.387 399.036 204.275 399.125 204.164 399.214L198.124 394.445L199.127 393.174L204.253 397.23H203.05C203.495 396.829 203.785 396.384 203.919 395.915C204.053 395.425 204.03 394.957 203.897 394.511C203.763 394.066 203.473 393.665 203.05 393.33C202.626 392.996 202.181 392.818 201.69 392.773C201.2 392.728 200.71 392.818 200.219 393.063C199.729 393.308 199.306 393.731 198.904 394.311C198.459 394.779 198.169 395.291 198.057 395.826C197.946 396.361 197.991 396.874 198.169 397.364C198.347 397.854 198.659 398.278 199.105 398.634C199.573 398.991 200.041 399.192 200.509 399.259C200.999 399.303 201.467 399.259 201.891 399.058L202.671 400.707C202.247 400.952 201.757 401.086 201.222 401.108C200.687 401.153 200.13 401.086 199.573 400.885C199.016 400.707 198.481 400.417 197.968 400.016L198.013 400.039ZM203.651 404.095L209.112 396.138L210.694 397.23L209.624 398.79L209.58 398.456C210.115 398.1 210.694 397.921 211.296 397.966C211.898 398.01 212.499 398.211 213.057 398.612C213.636 399.013 214.082 399.504 214.349 400.061C214.617 400.618 214.728 401.22 214.683 401.844C214.639 402.468 214.394 403.07 213.993 403.671L210.471 408.797L208.822 407.661L212.031 402.98C212.299 402.579 212.477 402.178 212.522 401.799C212.566 401.42 212.522 401.064 212.343 400.729C212.187 400.395 211.92 400.105 211.586 399.883C211.251 399.637 210.872 399.504 210.516 399.481C210.137 399.459 209.78 399.526 209.446 399.704C209.112 399.883 208.8 400.172 208.532 400.573L205.323 405.254L203.651 404.117V404.095ZM216.154 412.385C215.285 411.851 214.773 411.204 214.594 410.424C214.416 409.644 214.594 408.82 215.129 407.928L217.558 403.939L216.11 403.07L217.046 401.509L217.269 401.643C217.648 401.888 218.026 401.955 218.383 401.844C218.74 401.755 219.029 401.509 219.252 401.131L219.631 400.484L221.347 401.532L220.188 403.426L222.06 404.563L221.124 406.123L219.252 404.986L216.868 408.909C216.689 409.198 216.6 409.466 216.556 409.711C216.533 409.956 216.578 410.201 216.712 410.447C216.845 410.669 217.09 410.892 217.402 411.093C217.492 411.137 217.581 411.182 217.692 411.249C217.804 411.293 217.893 411.338 218.004 411.405L217.113 412.876C216.957 412.809 216.778 412.742 216.6 412.653C216.422 412.564 216.266 412.475 216.132 412.408L216.154 412.385ZM219.141 413.99L223.843 405.566L225.604 406.546L220.901 414.971L219.141 413.99ZM224.512 404.429L225.649 402.401L227.409 403.382L226.273 405.41L224.512 404.429ZM227.276 418.537C226.406 418.113 225.76 417.534 225.292 416.798C224.824 416.063 224.579 415.26 224.512 414.391C224.467 413.522 224.646 412.653 225.091 411.784C225.515 410.937 226.094 410.268 226.808 409.778C227.521 409.288 228.323 409.02 229.192 408.953C230.061 408.909 230.908 409.087 231.777 409.51C232.357 409.8 232.87 410.179 233.271 410.647C233.672 411.115 233.984 411.605 234.184 412.163C234.385 412.72 234.452 413.277 234.385 413.834L232.446 413.79C232.491 413.255 232.379 412.742 232.112 412.274C231.844 411.806 231.465 411.449 230.953 411.182C230.463 410.937 229.972 410.848 229.46 410.892C228.947 410.937 228.479 411.115 228.033 411.449C227.588 411.784 227.231 412.207 226.964 412.742C226.696 413.277 226.562 413.834 226.562 414.369C226.562 414.904 226.718 415.394 226.964 415.84C227.231 416.286 227.61 416.62 228.1 416.865C228.613 417.133 229.148 417.222 229.66 417.133C230.173 417.066 230.663 416.843 231.064 416.464L232.268 418.002C231.867 418.381 231.399 418.648 230.819 418.826C230.262 419.005 229.66 419.072 229.058 419.027C228.434 418.982 227.833 418.826 227.231 418.514L227.276 418.537ZM235.967 422.548C235.366 422.303 234.875 421.969 234.519 421.568C234.162 421.166 233.917 420.721 233.828 420.23C233.739 419.74 233.806 419.25 234.006 418.737C234.207 418.247 234.496 417.868 234.875 417.578C235.254 417.289 235.722 417.11 236.279 417.021C236.837 416.954 237.483 416.999 238.218 417.177L241.517 417.957L240.893 419.428L237.973 418.76C237.438 418.648 237.015 418.648 236.681 418.76C236.346 418.871 236.123 419.138 235.967 419.473C235.834 419.807 235.834 420.141 236.012 420.476C236.19 420.81 236.458 421.033 236.881 421.211C237.394 421.412 237.884 421.501 238.352 421.434C238.82 421.367 239.244 421.211 239.6 420.921C239.957 420.632 240.247 420.275 240.425 419.829L241.383 417.534C241.561 417.088 241.561 416.665 241.339 416.241C241.138 415.818 240.759 415.506 240.224 415.283C239.734 415.082 239.244 415.015 238.776 415.127C238.308 415.238 237.884 415.439 237.55 415.773L236.324 414.347C236.681 413.968 237.104 413.7 237.617 413.522C238.129 413.344 238.664 413.255 239.244 413.277C239.823 413.299 240.38 413.433 240.937 413.656C241.628 413.946 242.208 414.347 242.631 414.837C243.055 415.327 243.344 415.862 243.434 416.464C243.523 417.066 243.456 417.667 243.211 418.269L240.715 424.264L238.932 423.529L239.6 421.924L239.957 422.125C239.6 422.392 239.199 422.593 238.776 422.727C238.352 422.86 237.884 422.905 237.416 422.883C236.948 422.86 236.458 422.727 235.945 422.526L235.967 422.548ZM247.066 426.716C246.108 426.382 245.484 425.847 245.127 425.111C244.771 424.376 244.793 423.529 245.127 422.571L246.687 418.18L245.083 417.601L245.684 415.884L245.93 415.974C246.353 416.13 246.732 416.13 247.044 415.974C247.356 415.818 247.601 415.506 247.757 415.082L248.002 414.369L249.897 415.038L249.161 417.11L251.234 417.846L250.632 419.562L248.56 418.826L247.022 423.15C246.91 423.462 246.866 423.752 246.888 423.997C246.91 424.242 247.022 424.465 247.2 424.666C247.378 424.866 247.646 425.022 248.002 425.156C248.091 425.178 248.203 425.223 248.314 425.245C248.426 425.267 248.537 425.312 248.649 425.334L248.069 426.961C247.913 426.939 247.713 426.894 247.512 426.85C247.311 426.805 247.133 426.761 246.999 426.694L247.066 426.716ZM250.253 427.652L253.151 418.448L255.067 419.049L252.17 428.254L250.253 427.652ZM253.552 417.199L254.243 414.993L256.159 415.595L255.468 417.801L253.552 417.199ZM259.235 430.505C258.343 430.26 257.563 429.836 256.939 429.212C256.315 428.588 255.87 427.853 255.624 427.006C255.379 426.159 255.379 425.267 255.624 424.331C255.87 423.395 256.315 422.615 256.939 421.991C257.563 421.367 258.299 420.944 259.146 420.721C259.993 420.498 260.862 420.498 261.776 420.721C262.689 420.966 263.469 421.389 264.093 421.991C264.717 422.593 265.141 423.328 265.386 424.175C265.631 425.022 265.631 425.914 265.386 426.85C265.141 427.786 264.695 428.566 264.071 429.19C263.447 429.814 262.712 430.237 261.865 430.46C261.018 430.683 260.149 430.683 259.257 430.46L259.235 430.505ZM259.703 428.699C260.26 428.833 260.773 428.833 261.285 428.699C261.776 428.543 262.221 428.276 262.578 427.875C262.957 427.474 263.202 426.983 263.358 426.404C263.514 425.824 263.514 425.267 263.403 424.732C263.291 424.198 263.024 423.752 262.667 423.373C262.311 422.994 261.865 422.727 261.308 422.593C260.773 422.459 260.238 422.459 259.748 422.593C259.257 422.727 258.811 423.016 258.455 423.417C258.098 423.819 257.831 424.309 257.675 424.888C257.519 425.468 257.497 426.025 257.63 426.56C257.764 427.095 258.009 427.541 258.366 427.919C258.722 428.298 259.19 428.566 259.725 428.699H259.703ZM266.612 432.087L268.395 422.615L270.289 422.972L269.933 424.822L269.754 424.532C270.111 423.975 270.557 423.596 271.136 423.395C271.716 423.172 272.34 423.128 273.008 423.261C273.699 423.395 274.301 423.663 274.769 424.064C275.237 424.465 275.593 424.978 275.794 425.557C275.995 426.136 276.039 426.805 275.905 427.496L274.747 433.603L272.785 433.224L273.833 427.63C273.922 427.162 273.922 426.738 273.811 426.359C273.699 426.003 273.499 425.691 273.209 425.446C272.919 425.2 272.562 425.044 272.161 424.978C271.76 424.888 271.381 424.911 271.025 425.044C270.668 425.156 270.378 425.379 270.133 425.691C269.888 426.003 269.732 426.382 269.643 426.85L268.595 432.444L266.612 432.065V432.087Z" fill="white"/>
<path d="M196.252 137.432L192.018 123.993L194.09 122.433L205.791 130.256L203.986 131.593L201.378 129.81L197.055 133.042L198.013 136.051L196.208 137.388L196.252 137.432ZM196.475 131.214L199.796 128.718L193.734 124.573L194.202 124.216L196.453 131.214H196.475ZM209.869 127.916C209.045 128.451 208.198 128.718 207.306 128.718C206.415 128.718 205.635 128.451 204.922 127.938L205.813 126.467C206.326 126.779 206.861 126.935 207.418 126.958C207.975 126.958 208.488 126.824 208.956 126.534C209.357 126.267 209.624 125.977 209.758 125.62C209.892 125.264 209.847 124.952 209.647 124.64C209.513 124.439 209.357 124.305 209.156 124.261C208.978 124.216 208.755 124.194 208.555 124.216C208.332 124.239 208.131 124.305 207.931 124.372L206.437 124.84C205.613 125.108 204.9 125.13 204.298 124.952C203.696 124.773 203.206 124.417 202.849 123.882C202.537 123.392 202.381 122.879 202.381 122.366C202.381 121.832 202.559 121.341 202.849 120.851C203.139 120.361 203.585 119.937 204.119 119.581C204.855 119.09 205.635 118.845 206.437 118.845C207.24 118.845 207.997 119.068 208.644 119.558L207.752 121.029C207.329 120.739 206.883 120.606 206.393 120.606C205.902 120.606 205.434 120.739 205.011 121.029C204.632 121.274 204.409 121.542 204.298 121.876C204.186 122.21 204.231 122.5 204.409 122.768C204.543 122.946 204.677 123.08 204.877 123.146C205.078 123.213 205.256 123.213 205.457 123.191C205.657 123.169 205.858 123.124 206.081 123.057L207.641 122.589C208.421 122.344 209.134 122.3 209.758 122.478C210.382 122.656 210.872 123.013 211.251 123.57C211.563 124.038 211.719 124.551 211.697 125.085C211.697 125.62 211.519 126.133 211.207 126.623C210.895 127.114 210.449 127.559 209.847 127.96L209.869 127.916ZM217.469 123.213C216.622 123.704 215.753 123.926 214.862 123.882C213.97 123.837 213.19 123.525 212.522 122.968L213.502 121.564C213.993 121.898 214.527 122.099 215.085 122.144C215.642 122.188 216.154 122.077 216.645 121.787C217.046 121.542 217.336 121.252 217.492 120.918C217.648 120.583 217.625 120.249 217.447 119.937C217.336 119.737 217.18 119.603 216.979 119.536C216.801 119.469 216.6 119.447 216.377 119.469C216.154 119.469 215.954 119.514 215.753 119.581L214.238 119.982C213.391 120.205 212.678 120.205 212.076 119.982C211.474 119.781 211.028 119.38 210.694 118.845C210.404 118.332 210.271 117.82 210.315 117.307C210.36 116.795 210.538 116.282 210.872 115.814C211.207 115.346 211.652 114.945 212.21 114.611C212.967 114.165 213.747 113.964 214.572 113.987C215.397 114.009 216.11 114.299 216.756 114.811L215.776 116.215C215.374 115.903 214.929 115.747 214.438 115.703C213.948 115.68 213.48 115.792 213.034 116.037C212.655 116.26 212.41 116.527 212.276 116.839C212.143 117.151 212.187 117.441 212.343 117.731C212.455 117.931 212.611 118.065 212.789 118.132C212.967 118.199 213.168 118.221 213.369 118.199C213.569 118.199 213.792 118.154 213.993 118.087L215.575 117.708C216.377 117.508 217.09 117.508 217.692 117.708C218.294 117.909 218.784 118.288 219.119 118.867C219.408 119.358 219.52 119.87 219.475 120.405C219.431 120.94 219.23 121.43 218.896 121.921C218.561 122.411 218.071 122.812 217.469 123.169V123.213ZM226.206 118.489C225.337 118.934 224.49 119.113 223.62 119.046C222.751 118.979 221.971 118.711 221.258 118.199C220.545 117.708 219.965 117.04 219.542 116.171C219.096 115.301 218.896 114.432 218.94 113.585C218.985 112.716 219.208 111.936 219.653 111.223C220.099 110.51 220.723 109.953 221.526 109.551C222.172 109.217 222.818 109.039 223.42 109.017C224.044 108.972 224.623 109.061 225.181 109.284C225.738 109.485 226.228 109.797 226.652 110.198C227.075 110.599 227.454 111.089 227.744 111.646C227.81 111.78 227.877 111.936 227.944 112.092C228.011 112.248 228.056 112.404 228.1 112.538L221.236 116.015L220.5 114.588L226.339 111.646L225.805 112.738C225.649 112.159 225.381 111.713 225.002 111.401C224.623 111.089 224.2 110.889 223.71 110.844C223.242 110.777 222.751 110.866 222.283 111.112C221.815 111.357 221.436 111.691 221.191 112.114C220.946 112.538 220.835 113.028 220.857 113.563C220.879 114.098 221.057 114.677 221.436 115.279C221.682 115.881 222.016 116.349 222.462 116.683C222.907 117.018 223.375 117.196 223.888 117.24C224.401 117.285 224.935 117.174 225.426 116.928C225.938 116.661 226.339 116.327 226.585 115.903C226.83 115.48 226.964 115.034 226.986 114.566H228.813C228.858 115.034 228.769 115.524 228.568 116.037C228.368 116.55 228.078 117.018 227.677 117.441C227.276 117.887 226.785 118.243 226.206 118.533V118.489ZM235.566 114.009C234.63 114.41 233.806 114.477 233.07 114.165C232.335 113.875 231.755 113.251 231.332 112.293L229.46 108.014L227.9 108.705L227.164 107.033L227.409 106.922C227.833 106.743 228.1 106.476 228.212 106.142C228.345 105.807 228.301 105.428 228.122 105.005L227.81 104.314L229.66 103.512L230.552 105.54L232.558 104.648L233.293 106.32L231.287 107.211L233.137 111.401C233.271 111.713 233.427 111.936 233.627 112.114C233.828 112.293 234.051 112.382 234.318 112.404C234.586 112.404 234.898 112.36 235.254 112.204C235.343 112.159 235.433 112.114 235.544 112.048C235.655 111.981 235.745 111.936 235.834 111.869L236.525 113.452C236.391 113.541 236.213 113.63 236.057 113.741C235.878 113.853 235.722 113.92 235.589 113.987L235.566 114.009ZM237.104 108.95L236.48 107.278L243.144 104.738L243.768 106.409L237.104 108.95ZM247.534 109.329L243.278 96.5136L245.194 95.8673L249.451 108.682L247.534 109.329ZM255.914 106.944C254.978 107.211 254.109 107.234 253.262 106.988C252.415 106.743 251.702 106.342 251.1 105.718C250.498 105.094 250.053 104.314 249.808 103.4C249.54 102.464 249.518 101.573 249.718 100.748C249.919 99.9235 250.298 99.1881 250.877 98.5863C251.457 97.9846 252.17 97.5388 253.039 97.2937C253.73 97.0931 254.399 97.0485 255 97.1154C255.624 97.2045 256.182 97.4051 256.672 97.7171C257.162 98.0292 257.586 98.4303 257.942 98.8983C258.299 99.3664 258.566 99.9235 258.722 100.525C258.767 100.681 258.811 100.837 258.834 100.993C258.856 101.149 258.878 101.305 258.901 101.461L251.501 103.556L251.056 102.019L257.363 100.236L256.627 101.194C256.583 100.592 256.404 100.102 256.092 99.723C255.78 99.3441 255.402 99.0766 254.934 98.9206C254.466 98.7646 253.997 98.7646 253.485 98.9206C252.972 99.0766 252.549 99.3218 252.215 99.7007C251.88 100.08 251.68 100.525 251.591 101.06C251.501 101.595 251.59 102.197 251.813 102.865C251.925 103.512 252.17 104.047 252.549 104.448C252.928 104.849 253.351 105.116 253.864 105.272C254.376 105.406 254.889 105.406 255.446 105.272C256.003 105.116 256.449 104.849 256.761 104.492C257.073 104.136 257.296 103.712 257.407 103.244L259.213 103.579C259.146 104.069 258.99 104.537 258.7 104.983C258.41 105.451 258.031 105.852 257.563 106.186C257.095 106.52 256.538 106.81 255.914 106.988V106.944ZM264.539 104.559L258.789 95.9342L260.929 95.4662L265.453 102.531L264.673 102.709L265.832 94.3964L267.994 93.9284L266.344 104.158L264.561 104.559H264.539ZM275.482 102.687C274.524 102.843 273.655 102.754 272.852 102.42C272.05 102.085 271.381 101.573 270.846 100.882C270.311 100.191 269.977 99.3664 269.821 98.4303C269.665 97.472 269.754 96.5805 270.044 95.7782C270.334 94.9759 270.824 94.3072 271.448 93.7724C272.072 93.2375 272.852 92.9032 273.744 92.7472C274.457 92.6357 275.125 92.658 275.727 92.814C276.329 92.97 276.864 93.2375 277.31 93.5941C277.755 93.9729 278.134 94.3964 278.424 94.9313C278.714 95.4662 278.914 96.0233 279.003 96.6474C279.026 96.8034 279.048 96.9594 279.07 97.1154C279.07 97.2714 279.07 97.4274 279.07 97.5834L271.47 98.7646L271.225 97.1823L277.688 96.1571L276.842 97.0262C276.864 96.4245 276.752 95.9342 276.485 95.5107C276.217 95.0873 275.861 94.7753 275.437 94.5747C274.992 94.3741 274.524 94.3072 273.989 94.3964C273.454 94.4855 273.008 94.6861 272.652 95.0204C272.295 95.3547 272.028 95.7782 271.872 96.2908C271.716 96.8034 271.738 97.4051 271.872 98.096C271.916 98.7423 272.094 99.2995 272.406 99.7452C272.718 100.191 273.12 100.503 273.61 100.704C274.1 100.904 274.613 100.971 275.17 100.882C275.749 100.793 276.217 100.592 276.574 100.258C276.931 99.9458 277.198 99.5447 277.376 99.0989L279.115 99.6338C279.003 100.102 278.78 100.57 278.424 100.971C278.067 101.372 277.666 101.751 277.154 102.041C276.641 102.331 276.061 102.531 275.415 102.62L275.482 102.687ZM281.655 101.64L280.162 88.2229L282.168 88.0001L283.661 101.417L281.655 101.64ZM291.796 100.971C291.15 100.993 290.57 100.926 290.058 100.704C289.545 100.503 289.144 100.191 288.854 99.7898C288.564 99.3887 288.408 98.9206 288.364 98.3635C288.342 97.8509 288.431 97.3605 288.631 96.9371C288.832 96.5136 289.188 96.1348 289.656 95.8228C290.125 95.5107 290.726 95.2879 291.462 95.1319L294.782 94.4187L294.872 96.001L291.93 96.6697C291.395 96.7811 291.016 96.9817 290.771 97.2268C290.526 97.4943 290.414 97.8063 290.437 98.1852C290.437 98.564 290.615 98.8538 290.905 99.0543C291.194 99.2772 291.551 99.3664 291.997 99.3441C292.554 99.3218 293.022 99.1658 293.423 98.9206C293.824 98.6532 294.114 98.3189 294.337 97.9177C294.537 97.5166 294.626 97.0708 294.604 96.5805L294.47 94.1067C294.448 93.6386 294.248 93.2598 293.891 92.97C293.534 92.6803 293.044 92.5466 292.465 92.5912C291.93 92.6134 291.462 92.7917 291.083 93.0815C290.704 93.3712 290.414 93.7501 290.258 94.1958L288.542 93.4381C288.698 92.9477 288.966 92.5243 289.344 92.1454C289.723 91.7665 290.191 91.4545 290.726 91.2317C291.261 91.0088 291.818 90.8751 292.42 90.8528C293.178 90.8082 293.869 90.9196 294.47 91.1871C295.072 91.4545 295.54 91.8111 295.897 92.3014C296.253 92.7917 296.432 93.3712 296.476 94.0398L296.811 100.525L294.894 100.614L294.805 98.8761H295.228C295.028 99.3218 294.76 99.6561 294.404 99.9681C294.069 100.28 293.69 100.503 293.245 100.681C292.799 100.86 292.309 100.949 291.774 100.993L291.796 100.971ZM303.608 100.726C302.65 100.726 301.803 100.481 301.067 100.013C300.332 99.5447 299.752 98.9429 299.329 98.1629C298.906 97.4051 298.705 96.5359 298.727 95.5776C298.727 94.6193 298.972 93.7724 299.418 93.0146C299.864 92.2569 300.466 91.6774 301.201 91.2539C301.937 90.8305 302.806 90.6299 303.786 90.6522C304.433 90.6522 305.057 90.7859 305.614 91.0311C306.171 91.2762 306.661 91.5882 307.085 92.0117C307.508 92.4351 307.798 92.9032 307.999 93.4381L306.216 94.2404C306.015 93.7278 305.703 93.3266 305.257 93.0146C304.812 92.7026 304.321 92.5466 303.742 92.5243C303.185 92.5243 302.694 92.6357 302.271 92.9032C301.825 93.1706 301.491 93.5272 301.223 94.0175C300.956 94.5078 300.822 95.0427 300.822 95.6445C300.822 96.2462 300.934 96.8034 301.179 97.2714C301.424 97.7394 301.758 98.1406 302.182 98.4303C302.605 98.72 303.095 98.8538 303.653 98.8538C304.232 98.8538 304.745 98.72 305.19 98.4303C305.636 98.1406 305.948 97.7394 306.171 97.2268L307.932 98.096C307.731 98.6086 307.419 99.0543 306.996 99.4555C306.572 99.8567 306.06 100.169 305.502 100.392C304.923 100.614 304.299 100.726 303.653 100.726H303.608ZM314.194 101.194C313.236 101.127 312.389 100.837 311.698 100.347C310.985 99.8567 310.45 99.2104 310.071 98.408C309.692 97.6057 309.536 96.7365 309.603 95.7782C309.67 94.8421 309.96 93.9952 310.428 93.2598C310.918 92.5243 311.542 91.9894 312.322 91.6105C313.102 91.2317 313.971 91.0756 314.93 91.1425C315.576 91.1871 316.178 91.3431 316.735 91.6328C317.292 91.9003 317.76 92.2569 318.139 92.7026C318.518 93.1483 318.808 93.6386 318.964 94.1735L317.136 94.8644C316.98 94.3518 316.668 93.9284 316.267 93.5941C315.866 93.2598 315.353 93.0815 314.774 93.0369C314.217 92.9923 313.726 93.1038 313.281 93.3266C312.835 93.5495 312.456 93.9061 312.166 94.3741C311.876 94.8421 311.72 95.377 311.676 95.9788C311.631 96.5805 311.72 97.1377 311.921 97.628C312.122 98.1183 312.456 98.5195 312.857 98.8315C313.258 99.1435 313.749 99.2995 314.283 99.3441C314.863 99.3887 315.376 99.2772 315.844 99.0098C316.312 98.7423 316.646 98.3635 316.891 97.8731L318.585 98.8315C318.362 99.3218 318.028 99.7675 317.56 100.146C317.114 100.525 316.601 100.815 316 101.016C315.42 101.216 314.796 101.283 314.127 101.238L314.194 101.194ZM324.602 102.308C323.644 102.175 322.842 101.84 322.151 101.305C321.46 100.77 320.992 100.08 320.68 99.2549C320.368 98.4303 320.279 97.5611 320.412 96.6251C320.546 95.6667 320.88 94.8421 321.393 94.1512C321.906 93.4603 322.552 92.9477 323.332 92.6357C324.112 92.3237 324.937 92.19 325.828 92.3237C326.541 92.4129 327.165 92.6357 327.7 92.97C328.235 93.3043 328.659 93.7055 328.993 94.1735C329.327 94.6638 329.55 95.1987 329.684 95.7782C329.817 96.3576 329.84 96.9594 329.751 97.5834C329.751 97.7394 329.706 97.8954 329.661 98.0514C329.617 98.2074 329.572 98.3635 329.528 98.4972L321.906 97.4497L322.128 95.8673L328.614 96.7588L327.566 97.3605C327.767 96.8034 327.789 96.2685 327.656 95.8005C327.522 95.3324 327.277 94.9313 326.92 94.597C326.564 94.285 326.118 94.0844 325.583 94.0175C325.048 93.9507 324.558 94.0175 324.112 94.2181C323.666 94.4187 323.287 94.753 322.998 95.221C322.708 95.689 322.53 96.2462 322.485 96.9594C322.329 97.6057 322.351 98.1852 322.53 98.6978C322.708 99.2104 322.998 99.6338 323.399 99.9681C323.8 100.302 324.29 100.503 324.847 100.592C325.427 100.681 325.939 100.592 326.385 100.414C326.831 100.236 327.188 99.9235 327.477 99.5447L328.993 100.57C328.748 100.993 328.391 101.35 327.945 101.662C327.5 101.974 326.987 102.175 326.408 102.308C325.828 102.442 325.226 102.464 324.58 102.375L324.602 102.308ZM334.297 103.935C333.339 103.735 332.536 103.333 331.89 102.709C331.244 102.085 330.865 101.35 330.731 100.481L332.403 100.057C332.559 100.637 332.826 101.149 333.205 101.55C333.584 101.952 334.052 102.219 334.609 102.331C335.077 102.42 335.478 102.397 335.813 102.241C336.147 102.085 336.347 101.84 336.414 101.461C336.459 101.238 336.414 101.016 336.325 100.86C336.236 100.681 336.08 100.548 335.924 100.414C335.746 100.28 335.567 100.169 335.389 100.08L333.985 99.3664C333.227 98.9652 332.67 98.4972 332.358 97.94C332.046 97.3828 331.957 96.8034 332.091 96.1793C332.202 95.5999 332.447 95.1319 332.826 94.7753C333.205 94.4187 333.673 94.1512 334.23 94.0175C334.787 93.8838 335.389 93.8838 336.035 94.0175C336.905 94.1958 337.618 94.5524 338.22 95.1096C338.821 95.6667 339.178 96.3576 339.312 97.16L337.64 97.5834C337.551 97.0931 337.328 96.6697 336.971 96.3131C336.615 95.9565 336.191 95.7336 335.701 95.6445C335.278 95.5553 334.899 95.5999 334.609 95.7336C334.319 95.8896 334.141 96.1348 334.074 96.4468C334.03 96.6697 334.052 96.8702 334.141 97.0262C334.23 97.2045 334.364 97.3383 334.52 97.472C334.698 97.6057 334.877 97.7171 335.055 97.8063L336.503 98.564C337.239 98.9429 337.774 99.4109 338.086 99.9681C338.42 100.525 338.509 101.127 338.376 101.773C338.264 102.331 338.019 102.799 337.64 103.155C337.261 103.512 336.771 103.779 336.214 103.913C335.634 104.047 335.01 104.047 334.297 103.913V103.935ZM343.034 105.941C342.075 105.696 341.295 105.25 340.693 104.581C340.092 103.913 339.757 103.155 339.668 102.286L341.34 101.952C341.451 102.553 341.696 103.066 342.053 103.489C342.41 103.913 342.878 104.203 343.412 104.336C343.88 104.448 344.282 104.448 344.616 104.314C344.95 104.18 345.173 103.935 345.262 103.579C345.329 103.356 345.307 103.155 345.218 102.977C345.129 102.799 344.995 102.643 344.839 102.509C344.683 102.375 344.504 102.241 344.304 102.152L342.944 101.372C342.187 100.926 341.674 100.436 341.407 99.8567C341.139 99.2772 341.072 98.6978 341.228 98.0737C341.384 97.5166 341.652 97.0485 342.031 96.7142C342.41 96.3799 342.9 96.1348 343.479 96.0456C344.036 95.9565 344.638 95.9788 345.285 96.1348C346.131 96.3576 346.845 96.7588 347.402 97.3383C347.959 97.94 348.293 98.6309 348.382 99.4555L346.689 99.7898C346.622 99.2995 346.421 98.8538 346.087 98.4972C345.753 98.1183 345.351 97.8731 344.839 97.7617C344.415 97.6503 344.036 97.6726 343.747 97.8063C343.435 97.94 343.256 98.1629 343.167 98.4972C343.1 98.72 343.123 98.9206 343.19 99.0766C343.279 99.2549 343.39 99.4109 343.546 99.5447C343.702 99.6784 343.88 99.7898 344.059 99.9012L345.463 100.748C346.176 101.172 346.689 101.662 346.978 102.241C347.268 102.821 347.335 103.423 347.179 104.069C347.045 104.626 346.755 105.072 346.354 105.428C345.953 105.763 345.463 106.008 344.883 106.097C344.304 106.208 343.68 106.164 342.989 105.986L343.034 105.941ZM355.47 109.641C354.556 109.329 353.82 108.838 353.263 108.192C352.706 107.523 352.327 106.766 352.171 105.919C351.993 105.05 352.082 104.18 352.394 103.267C352.706 102.375 353.174 101.617 353.82 101.038C354.467 100.458 355.224 100.08 356.071 99.9012C356.918 99.723 357.81 99.8121 358.701 100.102C359.325 100.302 359.86 100.614 360.328 101.016C360.796 101.417 361.153 101.885 361.443 102.397C361.732 102.91 361.866 103.467 361.866 104.024L359.927 104.225C359.905 103.69 359.726 103.2 359.392 102.776C359.058 102.353 358.634 102.041 358.099 101.862C357.587 101.684 357.074 101.662 356.584 101.773C356.094 101.885 355.648 102.13 355.247 102.509C354.846 102.888 354.556 103.356 354.378 103.935C354.177 104.515 354.132 105.072 354.199 105.607C354.288 106.142 354.489 106.61 354.801 107.011C355.113 107.412 355.536 107.702 356.071 107.88C356.629 108.058 357.141 108.081 357.654 107.947C358.166 107.791 358.59 107.523 358.969 107.1L360.373 108.459C360.038 108.883 359.593 109.217 359.058 109.485C358.523 109.752 357.943 109.886 357.342 109.93C356.718 109.975 356.094 109.886 355.47 109.663V109.641ZM365.432 113.407C364.585 113.051 363.872 112.516 363.337 111.825C362.802 111.134 362.468 110.332 362.334 109.462C362.2 108.593 362.334 107.702 362.691 106.81C363.069 105.919 363.604 105.206 364.317 104.671C365.031 104.136 365.811 103.824 366.68 103.712C367.549 103.601 368.418 103.712 369.287 104.091C370.157 104.448 370.87 104.983 371.405 105.674C371.94 106.364 372.274 107.144 372.385 108.014C372.497 108.883 372.385 109.774 372.006 110.666C371.628 111.557 371.093 112.27 370.38 112.805C369.666 113.34 368.886 113.652 368.017 113.764C367.148 113.875 366.279 113.764 365.432 113.385V113.407ZM366.145 111.691C366.68 111.914 367.193 111.981 367.705 111.892C368.218 111.802 368.686 111.602 369.109 111.245C369.533 110.889 369.845 110.443 370.09 109.886C370.313 109.329 370.402 108.771 370.357 108.237C370.313 107.702 370.134 107.211 369.822 106.788C369.51 106.364 369.109 106.052 368.574 105.83C368.062 105.607 367.549 105.54 367.014 105.629C366.502 105.718 366.034 105.919 365.61 106.275C365.187 106.632 364.875 107.078 364.63 107.635C364.407 108.192 364.295 108.749 364.362 109.284C364.407 109.819 364.585 110.309 364.897 110.733C365.209 111.156 365.61 111.468 366.123 111.691H366.145ZM371.717 115.881L375.974 107.234L377.712 108.081L376.865 109.774L376.776 109.44C377.266 108.994 377.801 108.749 378.403 108.705C379.005 108.66 379.629 108.771 380.253 109.083C380.899 109.395 381.389 109.819 381.746 110.332C382.102 110.844 382.303 111.424 382.325 112.048C382.348 112.672 382.214 113.318 381.902 113.942L379.138 119.514L377.355 118.622L379.874 113.519C380.097 113.073 380.186 112.672 380.186 112.293C380.186 111.914 380.074 111.557 379.851 111.245C379.651 110.933 379.339 110.688 378.982 110.51C378.603 110.332 378.247 110.242 377.868 110.265C377.489 110.265 377.155 110.421 376.843 110.644C376.531 110.866 376.263 111.201 376.063 111.624L373.544 116.728L371.739 115.836L371.717 115.881ZM384.554 122.701C383.662 122.21 383.128 121.564 382.927 120.806C382.726 120.049 382.86 119.202 383.373 118.288L385.646 114.209L384.175 113.385L385.067 111.802L385.312 111.936C385.713 112.159 386.069 112.204 386.426 112.114C386.783 112.003 387.05 111.758 387.273 111.357L387.63 110.71L389.39 111.691L388.32 113.63L390.237 114.7L389.346 116.282L387.429 115.212L385.2 119.202C385.044 119.491 384.955 119.759 384.933 120.026C384.911 120.294 384.977 120.517 385.111 120.739C385.267 120.962 385.49 121.163 385.824 121.364C385.913 121.408 386.003 121.453 386.114 121.497C386.225 121.542 386.337 121.586 386.426 121.631L385.579 123.146C385.423 123.08 385.245 123.013 385.067 122.946C384.888 122.857 384.71 122.79 384.576 122.723L384.554 122.701ZM387.117 124.06L392.154 115.836L393.803 116.839L392.778 118.489V118.154C393.29 117.731 393.825 117.53 394.36 117.53C394.917 117.53 395.475 117.708 396.032 118.065L396.522 118.377L395.564 119.937L394.85 119.491C394.293 119.135 393.714 119.046 393.157 119.179C392.6 119.313 392.109 119.714 391.708 120.361L388.788 125.108L387.072 124.06H387.117ZM396.143 130.122C395.385 129.587 394.806 128.941 394.427 128.139C394.048 127.336 393.892 126.512 393.937 125.62C394.004 124.729 394.293 123.904 394.85 123.102C395.408 122.3 396.076 121.72 396.879 121.341C397.681 120.985 398.506 120.829 399.397 120.895C400.266 120.962 401.091 121.274 401.871 121.809C402.651 122.344 403.23 123.013 403.609 123.793C403.988 124.573 404.144 125.397 404.077 126.289C404.01 127.18 403.698 128.005 403.164 128.807C402.629 129.61 401.938 130.189 401.135 130.568C400.333 130.947 399.486 131.081 398.617 131.014C397.748 130.947 396.923 130.635 396.165 130.122H396.143ZM397.213 128.584C397.681 128.919 398.171 129.075 398.706 129.097C399.219 129.119 399.731 129.008 400.199 128.763C400.69 128.518 401.091 128.139 401.447 127.648C401.804 127.158 401.982 126.623 402.049 126.088C402.116 125.553 402.049 125.041 401.826 124.573C401.626 124.105 401.269 123.704 400.801 123.369C400.333 123.057 399.843 122.879 399.33 122.857C398.818 122.834 398.305 122.946 397.837 123.191C397.347 123.436 396.945 123.815 396.611 124.305C396.277 124.796 396.054 125.331 396.009 125.865C395.965 126.4 396.009 126.913 396.232 127.403C396.433 127.871 396.789 128.272 397.235 128.607L397.213 128.584ZM401.871 133.978L410.05 123.236L411.655 124.461L403.476 135.204L401.871 133.978Z" fill="#FFBC00"/>
</g>
<rect x="436" y="171" width="112" height="112" rx="56" fill="#071A2E"/>
<path d="M461.904 224V212.08H469.76V213.76H463.792V217.184H469.44V218.864H463.792V222.32H469.76V224H461.904ZM470.473 224L473.497 219.664L470.473 215.344H472.601L475.081 218.96H474.057L476.537 215.344H478.665L475.625 219.664L478.649 224H476.521L474.073 220.368H475.065L472.601 224H470.473ZM483.644 224.096C482.737 224.096 482.033 223.84 481.532 223.328C481.03 222.816 480.78 222.096 480.78 221.168V216.976H479.26V215.344H479.5C479.905 215.344 480.22 215.227 480.444 214.992C480.668 214.757 480.78 214.437 480.78 214.032V213.36H482.588V215.344H484.556V216.976H482.588V221.088C482.588 221.387 482.636 221.643 482.732 221.856C482.828 222.059 482.982 222.219 483.196 222.336C483.409 222.443 483.686 222.496 484.028 222.496C484.113 222.496 484.209 222.491 484.316 222.48C484.422 222.469 484.524 222.459 484.62 222.448V224C484.47 224.021 484.305 224.043 484.124 224.064C483.942 224.085 483.782 224.096 483.644 224.096ZM490.292 224.192C489.428 224.192 488.66 223.995 487.988 223.6C487.327 223.195 486.809 222.651 486.436 221.968C486.063 221.275 485.876 220.501 485.876 219.648C485.876 218.773 486.063 218 486.436 217.328C486.82 216.656 487.332 216.128 487.972 215.744C488.612 215.349 489.337 215.152 490.148 215.152C490.799 215.152 491.38 215.264 491.892 215.488C492.404 215.712 492.836 216.021 493.188 216.416C493.54 216.8 493.807 217.243 493.988 217.744C494.18 218.245 494.276 218.779 494.276 219.344C494.276 219.483 494.271 219.627 494.26 219.776C494.249 219.925 494.228 220.064 494.196 220.192H487.3V218.752H493.172L492.308 219.408C492.415 218.885 492.377 218.421 492.196 218.016C492.025 217.6 491.759 217.275 491.396 217.04C491.044 216.795 490.628 216.672 490.148 216.672C489.668 216.672 489.241 216.795 488.868 217.04C488.495 217.275 488.207 217.616 488.004 218.064C487.801 218.501 487.721 219.035 487.764 219.664C487.711 220.251 487.791 220.763 488.004 221.2C488.228 221.637 488.537 221.979 488.932 222.224C489.337 222.469 489.796 222.592 490.308 222.592C490.831 222.592 491.273 222.475 491.636 222.24C492.009 222.005 492.303 221.701 492.516 221.328L493.988 222.048C493.817 222.453 493.551 222.821 493.188 223.152C492.836 223.472 492.409 223.728 491.908 223.92C491.417 224.101 490.879 224.192 490.292 224.192ZM496.04 224V215.344H497.768V217.088L497.608 216.832C497.8 216.267 498.11 215.861 498.536 215.616C498.963 215.36 499.475 215.232 500.072 215.232H500.6V216.88H499.848C499.251 216.88 498.766 217.067 498.392 217.44C498.03 217.803 497.848 218.325 497.848 219.008V224H496.04ZM501.837 224V215.344H503.565V217.04L503.357 216.816C503.571 216.272 503.912 215.861 504.381 215.584C504.851 215.296 505.395 215.152 506.013 215.152C506.653 215.152 507.219 215.291 507.709 215.568C508.2 215.845 508.584 216.229 508.861 216.72C509.139 217.211 509.277 217.776 509.277 218.416V224H507.485V218.896C507.485 218.459 507.405 218.091 507.245 217.792C507.085 217.483 506.856 217.248 506.557 217.088C506.269 216.917 505.939 216.832 505.565 216.832C505.192 216.832 504.856 216.917 504.557 217.088C504.269 217.248 504.045 217.483 503.885 217.792C503.725 218.101 503.645 218.469 503.645 218.896V224H501.837ZM513.804 224.192C513.218 224.192 512.7 224.091 512.252 223.888C511.815 223.675 511.474 223.387 511.228 223.024C510.983 222.651 510.86 222.213 510.86 221.712C510.86 221.243 510.962 220.821 511.164 220.448C511.378 220.075 511.703 219.76 512.14 219.504C512.578 219.248 513.127 219.067 513.788 218.96L516.796 218.464V219.888L514.14 220.352C513.66 220.437 513.308 220.592 513.084 220.816C512.86 221.029 512.748 221.307 512.748 221.648C512.748 221.979 512.871 222.251 513.116 222.464C513.372 222.667 513.698 222.768 514.092 222.768C514.583 222.768 515.01 222.661 515.372 222.448C515.746 222.235 516.034 221.952 516.236 221.6C516.439 221.237 516.54 220.837 516.54 220.4V218.176C516.54 217.749 516.38 217.403 516.06 217.136C515.751 216.859 515.335 216.72 514.812 216.72C514.332 216.72 513.911 216.848 513.548 217.104C513.196 217.349 512.935 217.669 512.764 218.064L511.26 217.312C511.42 216.885 511.682 216.512 512.044 216.192C512.407 215.861 512.828 215.605 513.308 215.424C513.799 215.243 514.316 215.152 514.86 215.152C515.543 215.152 516.146 215.28 516.668 215.536C517.202 215.792 517.612 216.149 517.9 216.608C518.199 217.056 518.348 217.579 518.348 218.176V224H516.62V222.432L516.988 222.48C516.786 222.832 516.524 223.136 516.204 223.392C515.895 223.648 515.538 223.845 515.132 223.984C514.738 224.123 514.295 224.192 513.804 224.192ZM520.462 224V211.888H522.27V224H520.462ZM475.807 243.192C474.965 243.192 474.181 243.037 473.455 242.728C472.741 242.419 472.117 241.992 471.583 241.448C471.061 240.893 470.65 240.243 470.351 239.496C470.053 238.749 469.903 237.928 469.903 237.032C469.903 236.147 470.047 235.331 470.335 234.584C470.634 233.827 471.05 233.176 471.583 232.632C472.117 232.077 472.741 231.651 473.455 231.352C474.17 231.043 474.954 230.888 475.807 230.888C476.65 230.888 477.402 231.032 478.063 231.32C478.735 231.608 479.301 231.987 479.759 232.456C480.218 232.915 480.549 233.416 480.751 233.96L479.055 234.76C478.799 234.12 478.389 233.603 477.823 233.208C477.269 232.803 476.597 232.6 475.807 232.6C475.018 232.6 474.319 232.787 473.711 233.16C473.103 233.533 472.629 234.051 472.287 234.712C471.957 235.373 471.791 236.147 471.791 237.032C471.791 237.917 471.957 238.696 472.287 239.368C472.629 240.029 473.103 240.547 473.711 240.92C474.319 241.283 475.018 241.464 475.807 241.464C476.597 241.464 477.269 241.267 477.823 240.872C478.389 240.477 478.799 239.96 479.055 239.32L480.751 240.12C480.549 240.653 480.218 241.155 479.759 241.624C479.301 242.093 478.735 242.472 478.063 242.76C477.402 243.048 476.65 243.192 475.807 243.192ZM482.517 243V230.888H484.325V243H482.517ZM486.439 243V234.344H488.247V243H486.439ZM486.439 233.16V231.08H488.247V233.16H486.439ZM494.425 243.192C493.561 243.192 492.793 242.995 492.121 242.6C491.459 242.195 490.942 241.651 490.569 240.968C490.195 240.275 490.009 239.501 490.009 238.648C490.009 237.773 490.195 237 490.569 236.328C490.953 235.656 491.465 235.128 492.105 234.744C492.745 234.349 493.47 234.152 494.281 234.152C494.931 234.152 495.513 234.264 496.025 234.488C496.537 234.712 496.969 235.021 497.321 235.416C497.673 235.8 497.939 236.243 498.121 236.744C498.313 237.245 498.409 237.779 498.409 238.344C498.409 238.483 498.403 238.627 498.393 238.776C498.382 238.925 498.361 239.064 498.329 239.192H491.433V237.752H497.305L496.441 238.408C496.547 237.885 496.51 237.421 496.329 237.016C496.158 236.6 495.891 236.275 495.529 236.04C495.177 235.795 494.761 235.672 494.281 235.672C493.801 235.672 493.374 235.795 493.001 236.04C492.627 236.275 492.339 236.616 492.137 237.064C491.934 237.501 491.854 238.035 491.897 238.664C491.843 239.251 491.923 239.763 492.137 240.2C492.361 240.637 492.67 240.979 493.065 241.224C493.47 241.469 493.929 241.592 494.441 241.592C494.963 241.592 495.406 241.475 495.769 241.24C496.142 241.005 496.435 240.701 496.649 240.328L498.121 241.048C497.95 241.453 497.683 241.821 497.321 242.152C496.969 242.472 496.542 242.728 496.041 242.92C495.55 243.101 495.011 243.192 494.425 243.192ZM500.173 243V234.344H501.901V236.04L501.693 235.816C501.907 235.272 502.248 234.861 502.717 234.584C503.187 234.296 503.731 234.152 504.349 234.152C504.989 234.152 505.555 234.291 506.045 234.568C506.536 234.845 506.92 235.229 507.197 235.72C507.475 236.211 507.613 236.776 507.613 237.416V243H505.821V237.896C505.821 237.459 505.741 237.091 505.581 236.792C505.421 236.483 505.192 236.248 504.893 236.088C504.605 235.917 504.275 235.832 503.901 235.832C503.528 235.832 503.192 235.917 502.893 236.088C502.605 236.248 502.381 236.483 502.221 236.792C502.061 237.101 501.981 237.469 501.981 237.896V243H500.173ZM513.292 243.096C512.386 243.096 511.682 242.84 511.18 242.328C510.679 241.816 510.428 241.096 510.428 240.168V235.976H508.908V234.344H509.148C509.554 234.344 509.868 234.227 510.092 233.992C510.316 233.757 510.428 233.437 510.428 233.032V232.36H512.236V234.344H514.204V235.976H512.236V240.088C512.236 240.387 512.284 240.643 512.38 240.856C512.476 241.059 512.631 241.219 512.844 241.336C513.058 241.443 513.335 241.496 513.676 241.496C513.762 241.496 513.858 241.491 513.964 241.48C514.071 241.469 514.172 241.459 514.268 241.448V243C514.119 243.021 513.954 243.043 513.772 243.064C513.591 243.085 513.431 243.096 513.292 243.096Z" fill="white"/>
<rect x="61" y="171" width="112" height="112" rx="56" fill="#071A2E"/>
<path d="M116.772 213.197L104.75 220.099V233.901L116.772 240.803L128.783 233.901V220.099L116.772 213.197Z" fill="white"/>
<path d="M142.104 212.449H155.927L149.021 200.551L142.104 212.449Z" fill="#FFBC00"/>
<path d="M142.104 241.539L149.021 253.449L155.927 241.539H142.104Z" fill="#FFBC00"/>
<path d="M109.855 268H123.678L116.772 256.09L109.855 268Z" fill="#FFBC00"/>
<path d="M77.6056 241.539L84.5227 253.449L91.4399 241.539H77.6056Z" fill="#FFBC00"/>
<path d="M77.6056 212.449H91.4399L84.5227 200.551L77.6056 212.449Z" fill="#FFBC00"/>
<path d="M109.855 186L116.772 197.91L123.678 186H109.855Z" fill="#FFBC00"/>
<path d="M129.962 188.322L121.939 202.14L135.835 210.118L143.857 196.299L129.962 188.322Z" fill="#F43BA6"/>
<path d="M157.5 218.863H141.455V234.819H157.5V218.863Z" fill="#F43BA6"/>
<path d="M135.833 243.861L121.937 251.839L129.96 265.657L143.855 257.679L135.833 243.861Z" fill="#F43BA6"/>
<path d="M97.7054 243.865L89.6829 257.683L103.578 265.661L111.601 251.843L97.7054 243.865Z" fill="#F43BA6"/>
<path d="M92.545 219.022H76.5V234.978H92.545V219.022Z" fill="#F43BA6"/>
<path d="M103.579 188.329L89.684 196.306L97.7065 210.125L111.602 202.147L103.579 188.329Z" fill="#F43BA6"/>
<defs>
<filter id="filter0_f_274_4992" x="-240.399" y="-227.285" width="885.608" height="870.523" filterUnits="userSpaceOnUse" color-interpolation-filters="sRGB">
<feFlood flood-opacity="0" result="BackgroundImageFix"/>
<feBlend mode="normal" in="SourceGraphic" in2="BackgroundImageFix" result="shape"/>
<feGaussianBlur stdDeviation="150" result="effect1_foregroundBlur_274_4992"/>
</filter>
<filter id="filter1_f_274_4992" x="-58.9998" y="-160.281" width="921.998" height="925.091" filterUnits="userSpaceOnUse" color-interpolation-filters="sRGB">
<feFlood flood-opacity="0" result="BackgroundImageFix"/>
<feBlend mode="normal" in="SourceGraphic" in2="BackgroundImageFix" result="shape"/>
<feGaussianBlur stdDeviation="150" result="effect1_foregroundBlur_274_4992"/>
</filter>
<filter id="filter2_d_274_4992" x="143" y="158.34" width="318" height="137.321" filterUnits="userSpaceOnUse" color-interpolation-filters="sRGB">
<feFlood flood-opacity="0" result="BackgroundImageFix"/>
<feColorMatrix in="SourceAlpha" type="matrix" values="0 0 0 0 0 0 0 0 0 0 0 0 0 0 0 0 0 0 127 0" result="hardAlpha"/>
<feOffset/>
<feGaussianBlur stdDeviation="30"/>
<feComposite in2="hardAlpha" operator="out"/>
<feColorMatrix type="matrix" values="0 0 0 0 0.0666667 0 0 0 0 0.235294 0 0 0 0 0.388235 0 0 0 0.4 0"/>
<feBlend mode="normal" in2="BackgroundImageFix" result="effect1_dropShadow_274_4992"/>
<feBlend mode="normal" in="SourceGraphic" in2="effect1_dropShadow_274_4992" result="shape"/>
</filter>
<radialGradient id="paint0_radial_274_4992" cx="0" cy="0" r="1" gradientUnits="userSpaceOnUse" gradientTransform="translate(302 260) scale(221)">
<stop stop-color="#071A2E" stop-opacity="0"/>
<stop offset="0.0001" stop-color="#071A2E" stop-opacity="0.2"/>
<stop offset="0.69" stop-color="#071A2E" stop-opacity="0.374"/>
<stop offset="1" stop-color="#071A2E" stop-opacity="0.47"/>
</radialGradient>
<linearGradient id="paint1_linear_274_4992" x1="203" y1="228" x2="401" y2="228" gradientUnits="userSpaceOnUse">
<stop stop-color="#F43BA6"/>
<stop offset="1" stop-color="#FFBC00"/>
</linearGradient>
<clipPath id="clip0_274_4992">
<rect x="81" y="39" width="442" height="442" rx="221" fill="white"/>
</clipPath>
<clipPath id="clip1_274_4992">
<rect width="43.7082" height="61.2157" fill="white" transform="translate(280 253)"/>
</clipPath>
<clipPath id="clip2_274_4992">
<rect width="324.43" height="345.625" fill="white" transform="translate(140 88)"/>
</clipPath>
</defs>
</svg>
