<svg xmlns="http://www.w3.org/2000/svg" role="presentation" width="100%" height="100%" viewBox="0 0 200 200" fill="none">
<rect width="200" height="200" rx="100" fill="white"></rect>
<mask id="mask0_226_2263" style="mask-type:luminance" maskUnits="userSpaceOnUse" x="12" y="15" width="177" height="171">
<path d="M189 15H12V185.747H189V15Z" fill="white"></path>
</mask>
<g mask="url(#mask0_226_2263)">
<g style="mix-blend-mode:hue" opacity="0.15">
<g style="mix-blend-mode:color-dodge" filter="url(#filter0_f_226_2263)">
<path d="M113.531 116.039C126.492 119.869 141.696 113.075 147.488 100.863C153.281 88.6515 147.469 75.6468 134.507 71.8165L111.383 64.983C98.4217 61.1525 83.2182 67.947 77.4256 80.1586C71.6331 92.3704 77.4448 105.375 90.4067 109.205L113.531 116.039Z" fill="url(#paint0_linear_226_2263)"></path>
</g>
<g style="mix-blend-mode:color-dodge" filter="url(#filter1_f_226_2263)">
<path d="M88.4314 163.588C102.877 167.857 119.822 160.285 126.277 146.675L131.614 135.426C138.069 121.816 131.592 107.322 117.146 103.053C102.7 98.784 85.756 106.356 79.3003 119.966L73.9643 131.216C67.5084 144.825 73.9857 159.319 88.4314 163.588Z" fill="url(#paint1_linear_226_2263)"></path>
</g>
<g style="mix-blend-mode:color-dodge" filter="url(#filter2_f_226_2263)">
<path d="M48.1595 110.899C52.6042 126.044 68.9433 137.086 84.6539 135.561C100.365 134.036 109.498 120.522 105.053 105.376L100.028 88.2526C95.5834 73.1068 79.2444 62.065 63.5337 63.59C47.823 65.1151 38.69 78.6297 43.1347 93.7754L48.1595 110.899Z" fill="url(#paint2_linear_226_2263)"></path>
</g>
</g>
<g filter="url(#filter3_diii_226_2263)">
<path d="M98.576 163.278C134.437 163.278 163.508 156.033 163.508 147.097C163.508 138.16 134.437 130.916 98.576 130.916C62.715 130.916 33.6439 138.16 33.6439 147.097C33.6439 156.033 62.715 163.278 98.576 163.278Z" fill="#EEF9FF"></path>
<path d="M98.576 163.278C134.437 163.278 163.508 156.033 163.508 147.097C163.508 138.16 134.437 130.916 98.576 130.916C62.715 130.916 33.6439 138.16 33.6439 147.097C33.6439 156.033 62.715 163.278 98.576 163.278Z" fill="url(#paint3_radial_226_2263)"></path>
<path d="M98.576 163.278C134.437 163.278 163.508 156.033 163.508 147.097C163.508 138.16 134.437 130.916 98.576 130.916C62.715 130.916 33.6439 138.16 33.6439 147.097C33.6439 156.033 62.715 163.278 98.576 163.278Z" fill="url(#paint4_radial_226_2263)"></path>
<path d="M98.576 163.278C134.437 163.278 163.508 156.033 163.508 147.097C163.508 138.16 134.437 130.916 98.576 130.916C62.715 130.916 33.6439 138.16 33.6439 147.097C33.6439 156.033 62.715 163.278 98.576 163.278Z" fill="url(#paint5_radial_226_2263)"></path>
<path d="M98.576 163.278C134.437 163.278 163.508 156.033 163.508 147.097C163.508 138.16 134.437 130.916 98.576 130.916C62.715 130.916 33.6439 138.16 33.6439 147.097C33.6439 156.033 62.715 163.278 98.576 163.278Z" fill="url(#paint6_radial_226_2263)" fill-opacity="0.2"></path>
</g>
<path d="M66.7968 41.1736L48.4818 41.1294L38.6595 58.1572L56.9745 58.2015L66.7968 41.1736Z" fill="#5DA9E5"></path>
<path d="M79.583 128.149L88.781 144.006L107.638 143.87L98.6899 128.446L79.583 128.149Z" fill="#C5C5C5"></path>
<path d="M119.654 58.1567L79.3188 127.715L98.6705 128.445L139.188 58.2039L119.654 58.1567Z" fill="#3587C8"></path>
<path d="M57.2776 58.1177L38.9698 58.0732L89.2193 144.718L107.527 144.762L57.2776 58.1177Z" fill="url(#paint7_linear_226_2263)"></path>
<path d="M39.3667 57.8433L48.5589 73.6937L129.106 73.8897L119.913 58.0393L39.3667 57.8433Z" fill="url(#paint8_linear_226_2263)"></path>
<path d="M98.6694 128.448L107.617 143.871L148.387 74.0542L139.19 58.1987L98.6694 128.448Z" fill="url(#paint9_linear_226_2263)"></path>
<path d="M65.7482 73.8085L107.261 144.901L117.084 127.871L85.9678 73.8003L65.7482 73.8085Z" fill="url(#paint10_linear_226_2263)"></path>
<path d="M98.6694 128.448L108.018 112.241L117.084 127.871L107.261 144.901L97.7158 128.446L98.6694 128.448Z" fill="url(#paint11_linear_226_2263)"></path>
<path d="M139.19 58.1985L148.387 74.0539L158.211 57.0239L149.014 41.1685L139.19 58.1985Z" fill="url(#paint12_linear_226_2263)"></path>
<path d="M119.638 58.1533L139.168 58.2009L108.007 112.216L98.2009 95.3137L119.638 58.1533Z" fill="url(#paint13_linear_226_2263)"></path>
<path d="M139.168 58.2008L148.988 41.1797L48.9014 40.936L39.082 57.9571L119.638 58.1531L139.168 58.2008Z" fill="url(#paint14_linear_226_2263)"></path>
</g>
<defs>
<filter id="filter0_f_226_2263" x="-35.1178" y="-46.3855" width="295.15" height="273.793" filterUnits="userSpaceOnUse" color-interpolation-filters="sRGB">
<feFlood flood-opacity="0" result="BackgroundImageFix"></feFlood>
<feBlend mode="normal" in="SourceGraphic" in2="BackgroundImageFix" result="shape"></feBlend>
<feGaussianBlur stdDeviation="55.15" result="effect1_foregroundBlur_226_2263"></feGaussianBlur>
</filter>
<filter id="filter1_f_226_2263" x="-38.836" y="-8.4377" width="283.25" height="283.517" filterUnits="userSpaceOnUse" color-interpolation-filters="sRGB">
<feFlood flood-opacity="0" result="BackgroundImageFix"></feFlood>
<feBlend mode="normal" in="SourceGraphic" in2="BackgroundImageFix" result="shape"></feBlend>
<feGaussianBlur stdDeviation="55.15" result="effect1_foregroundBlur_226_2263"></feGaussianBlur>
</filter>
<filter id="filter2_f_226_2263" x="-68.2894" y="-46.8508" width="284.766" height="292.853" filterUnits="userSpaceOnUse" color-interpolation-filters="sRGB">
<feFlood flood-opacity="0" result="BackgroundImageFix"></feFlood>
<feBlend mode="normal" in="SourceGraphic" in2="BackgroundImageFix" result="shape"></feBlend>
<feGaussianBlur stdDeviation="55.15" result="effect1_foregroundBlur_226_2263"></feGaussianBlur>
</filter>
<filter id="filter3_diii_226_2263" x="-36.3561" y="60.9155" width="229.864" height="132.362" filterUnits="userSpaceOnUse" color-interpolation-filters="sRGB">
<feFlood flood-opacity="0" result="BackgroundImageFix"></feFlood>
<feColorMatrix in="SourceAlpha" type="matrix" values="0 0 0 0 0 0 0 0 0 0 0 0 0 0 0 0 0 0 127 0" result="hardAlpha"></feColorMatrix>
<feOffset dx="-20" dy="-20"></feOffset>
<feGaussianBlur stdDeviation="25"></feGaussianBlur>
<feComposite in2="hardAlpha" operator="out"></feComposite>
<feColorMatrix type="matrix" values="0 0 0 0 0.713648 0 0 0 0 0.457188 0 0 0 0 0.870833 0 0 0 0.4 0"></feColorMatrix>
<feBlend mode="normal" in2="BackgroundImageFix" result="effect1_dropShadow_226_2263"></feBlend>
<feBlend mode="normal" in="SourceGraphic" in2="effect1_dropShadow_226_2263" result="shape"></feBlend>
<feColorMatrix in="SourceAlpha" type="matrix" values="0 0 0 0 0 0 0 0 0 0 0 0 0 0 0 0 0 0 127 0" result="hardAlpha"></feColorMatrix>
<feOffset dy="10"></feOffset>
<feGaussianBlur stdDeviation="30"></feGaussianBlur>
<feComposite in2="hardAlpha" operator="arithmetic" k2="-1" k3="1"></feComposite>
<feColorMatrix type="matrix" values="0 0 0 0 0.159444 0 0 0 0 0.5576 0 0 0 0 0.683333 0 0 0 0.8 0"></feColorMatrix>
<feBlend mode="normal" in2="shape" result="effect2_innerShadow_226_2263"></feBlend>
<feColorMatrix in="SourceAlpha" type="matrix" values="0 0 0 0 0 0 0 0 0 0 0 0 0 0 0 0 0 0 127 0" result="hardAlpha"></feColorMatrix>
<feOffset dy="20"></feOffset>
<feGaussianBlur stdDeviation="30"></feGaussianBlur>
<feComposite in2="hardAlpha" operator="arithmetic" k2="-1" k3="1"></feComposite>
<feColorMatrix type="matrix" values="0 0 0 0 0.384635 0 0 0 0 0.46376 0 0 0 0 0.879167 0 0 0 0.2 0"></feColorMatrix>
<feBlend mode="normal" in2="effect2_innerShadow_226_2263" result="effect3_innerShadow_226_2263"></feBlend>
<feColorMatrix in="SourceAlpha" type="matrix" values="0 0 0 0 0 0 0 0 0 0 0 0 0 0 0 0 0 0 127 0" result="hardAlpha"></feColorMatrix>
<feOffset></feOffset>
<feGaussianBlur stdDeviation="5"></feGaussianBlur>
<feComposite in2="hardAlpha" operator="arithmetic" k2="-1" k3="1"></feComposite>
<feColorMatrix type="matrix" values="0 0 0 0 1 0 0 0 0 1 0 0 0 0 1 0 0 0 0.5 0"></feColorMatrix>
<feBlend mode="normal" in2="effect3_innerShadow_226_2263" result="effect4_innerShadow_226_2263"></feBlend>
</filter>
<linearGradient id="paint0_linear_226_2263" x1="129.351" y1="115.487" x2="97.8479" y2="66.9134" gradientUnits="userSpaceOnUse">
<stop stop-color="white"></stop>
<stop offset="1" stop-color="white"></stop>
</linearGradient>
<linearGradient id="paint1_linear_226_2263" x1="110.23" y1="162.875" x2="74.6478" y2="127.592" gradientUnits="userSpaceOnUse">
<stop stop-color="white"></stop>
<stop offset="1" stop-color="white"></stop>
</linearGradient>
<linearGradient id="paint2_linear_226_2263" x1="59.144" y1="127.659" x2="82.5475" y2="71.516" gradientUnits="userSpaceOnUse">
<stop stop-color="white"></stop>
<stop offset="1" stop-color="white"></stop>
</linearGradient>
<radialGradient id="paint3_radial_226_2263" cx="0" cy="0" r="1" gradientUnits="userSpaceOnUse" gradientTransform="translate(77.5469 166.312) rotate(-15.6851) scale(78.5565 48.8445)">
<stop stop-color="#6681E2" stop-opacity="0.81"></stop>
<stop offset="0.953677" stop-color="#6681E2" stop-opacity="0"></stop>
</radialGradient>
<radialGradient id="paint4_radial_226_2263" cx="0" cy="0" r="1" gradientUnits="userSpaceOnUse" gradientTransform="translate(59.838 123.584) rotate(105.229) scale(35.1124 107.352)">
<stop stop-color="#1D52A0"></stop>
<stop offset="1" stop-color="#1D52A0" stop-opacity="0.18"></stop>
</radialGradient>
<radialGradient id="paint5_radial_226_2263" cx="0" cy="0" r="1" gradientUnits="userSpaceOnUse" gradientTransform="translate(170.149 125.859) rotate(164.671) scale(141.541 61.7639)">
<stop offset="0.196645" stop-color="#13E5D5" stop-opacity="0.5"></stop>
<stop offset="0.710624" stop-color="#13E5D5" stop-opacity="0.06"></stop>
</radialGradient>
<radialGradient id="paint6_radial_226_2263" cx="0" cy="0" r="1" gradientUnits="userSpaceOnUse" gradientTransform="translate(98.576 136.478) rotate(90) scale(26.8001 143.146)">
<stop stop-color="white" stop-opacity="0.49"></stop>
<stop offset="1" stop-color="white" stop-opacity="0.19"></stop>
</radialGradient>
<linearGradient id="paint7_linear_226_2263" x1="113.49" y1="57.8311" x2="80.0264" y2="148.037" gradientUnits="userSpaceOnUse">
<stop offset="0.0370701" stop-color="#084D7E"></stop>
<stop offset="0.403607" stop-color="#10639C"></stop>
<stop offset="1" stop-color="#094B79"></stop>
</linearGradient>
<linearGradient id="paint8_linear_226_2263" x1="113.49" y1="57.831" x2="80.0264" y2="148.037" gradientUnits="userSpaceOnUse">
<stop offset="0.0370701" stop-color="#084D7E"></stop>
<stop offset="0.403607" stop-color="#10639C"></stop>
<stop offset="1" stop-color="#094B79"></stop>
</linearGradient>
<linearGradient id="paint9_linear_226_2263" x1="124.225" y1="35.0497" x2="98.2618" y2="154.791" gradientUnits="userSpaceOnUse">
<stop offset="0.0774246" stop-color="#1964A0"></stop>
<stop offset="0.448809" stop-color="#1A73BA"></stop>
<stop offset="0.97652" stop-color="#185D94"></stop>
</linearGradient>
<linearGradient id="paint10_linear_226_2263" x1="124.225" y1="35.0497" x2="98.2618" y2="154.791" gradientUnits="userSpaceOnUse">
<stop offset="0.0774246" stop-color="#1964A0"></stop>
<stop offset="0.448809" stop-color="#1A73BA"></stop>
<stop offset="0.97652" stop-color="#185D94"></stop>
</linearGradient>
<linearGradient id="paint11_linear_226_2263" x1="124.225" y1="35.0494" x2="98.2617" y2="154.79" gradientUnits="userSpaceOnUse">
<stop offset="0.0774246" stop-color="#1964A0"></stop>
<stop offset="0.448809" stop-color="#1A73BA"></stop>
<stop offset="0.97652" stop-color="#185D94"></stop>
</linearGradient>
<linearGradient id="paint12_linear_226_2263" x1="124.225" y1="35.0494" x2="98.2618" y2="154.79" gradientUnits="userSpaceOnUse">
<stop offset="0.0774246" stop-color="#1964A0"></stop>
<stop offset="0.448809" stop-color="#1A73BA"></stop>
<stop offset="0.97652" stop-color="#185D94"></stop>
</linearGradient>
<linearGradient id="paint13_linear_226_2263" x1="38.9636" y1="39.9377" x2="125.549" y2="97.0233" gradientUnits="userSpaceOnUse">
<stop stop-color="#64AEE9"></stop>
<stop offset="1" stop-color="#277CBF"></stop>
</linearGradient>
<linearGradient id="paint14_linear_226_2263" x1="38.9637" y1="39.9375" x2="125.549" y2="97.0231" gradientUnits="userSpaceOnUse">
<stop stop-color="#64AEE9"></stop>
<stop offset="1" stop-color="#277CBF"></stop>
</linearGradient>
</defs>
</svg>

