<svg xmlns="http://www.w3.org/2000/svg" width="100%" height="100%" viewBox="0 0 200 200" fill="none" role="presentation">
<rect width="200" height="200" rx="100" fill="white"></rect>
<g clip-path="url(#clip0_242_3906)">
<path fill-rule="evenodd" clip-rule="evenodd" d="M135.47 104.577C139.665 104.195 143.86 104.195 148.056 103.814V100.763C143.86 100.381 139.665 100.381 135.47 99.9999L122.884 99.6185C115.637 99.2371 108.009 99.2371 100.763 99.2371C100.763 91.9906 100.763 84.3627 100.381 77.1162L100 64.5301C99.6186 60.3348 99.6186 56.1394 99.2372 51.9441H95.8047C95.4233 56.1394 95.4233 60.3348 95.0419 64.5301L94.6605 77.1162C94.6605 80.5487 94.6605 83.9813 94.6605 87.4139C93.1349 84.3627 91.9907 80.9301 90.4651 77.879L85.1256 66.4371C83.2186 62.6232 81.6931 58.8092 79.7861 54.9953L76.7349 56.1394C78.2605 60.3348 79.4047 64.1487 80.9303 67.9627L85.507 79.786C86.6512 83.2185 88.1768 86.2697 89.321 89.7022C86.6512 87.4139 84.3628 84.7441 81.6931 82.4557L72.5396 73.6836C69.4884 71.0139 66.4372 67.9627 63.0047 65.2929L60.3349 67.9627C63.0047 71.0139 66.0558 74.065 68.7256 77.4976L77.4977 86.6511C79.7861 89.3208 82.4558 91.6092 84.7442 94.279C81.6931 93.1348 78.2605 91.6092 74.8279 90.465L63.0047 85.8883C59.1907 84.3627 54.9954 82.8371 51.1814 81.6929L49.6558 85.1255C53.4698 87.0325 57.2837 88.558 61.0977 90.465L72.5396 95.8046C75.5907 97.3301 79.0233 98.4743 82.0744 99.9999C78.6419 99.9999 75.2093 99.9999 71.7768 99.9999L59.1907 100.381C54.9954 100.763 50.8 100.763 46.6047 101.144V104.577C50.8 104.958 54.9954 104.958 59.1907 105.339L71.7768 105.721C79.4047 106.102 86.6512 106.102 93.8977 106.102C93.8977 113.349 93.8977 120.977 94.2791 128.223L94.6605 140.809C95.0419 145.005 95.0419 149.2 95.4233 153.395H98.4744C98.8558 149.2 98.8558 145.005 99.2372 140.809L99.6186 128.223C99.6186 124.791 99.6186 120.977 100 117.544C101.526 120.977 102.67 124.028 104.195 127.46L109.535 138.902C111.442 142.716 112.967 146.53 114.874 150.344L117.926 149.2C116.781 145.005 115.256 141.191 113.73 137.377L109.916 124.791C108.772 121.358 107.247 118.307 106.102 114.874C108.772 117.544 111.061 119.832 113.73 122.121L122.884 130.893C125.935 133.563 128.986 136.614 132.419 139.284L134.707 136.995C132.037 133.944 128.986 130.893 126.316 127.46L117.544 118.307C115.256 115.637 112.586 112.967 110.298 110.679C113.73 111.823 116.781 113.349 120.214 114.493L132.037 119.07C135.851 120.595 140.047 122.121 143.86 123.265L145.005 120.214C141.191 118.307 137.377 116.4 133.563 114.874L122.121 109.535C118.688 108.009 115.637 106.484 112.205 105.339C115.637 105.339 119.451 105.339 122.884 104.958L135.47 104.577Z" fill="#173361"></path>
<path fill-rule="evenodd" clip-rule="evenodd" d="M100 182C54.614 182 18 145.386 18 100C18 54.614 54.614 18 100 18C145.386 18 182 54.614 182 100C182 145.386 145.386 182 100 182ZM100 25.6279C59.1907 25.6279 25.6279 59.1907 25.6279 100C25.6279 140.809 59.1907 174.372 100 174.372C140.809 174.372 174.372 140.809 174.372 100C174.372 59.1907 140.809 25.6279 100 25.6279Z" fill="#173361"></path>
</g>
<defs>
<clipPath id="clip0_242_3906">
<rect width="164" height="164" fill="white" transform="translate(18 18)"></rect>
</clipPath>
</defs>
</svg>

