<svg xmlns="http://www.w3.org/2000/svg" width="100%" height="100%" viewBox="0 0 47 46" fill="none" role="presentation">
<rect width="45.36" height="45.36" rx="22.68" transform="matrix(-1 8.74228e-08 8.74228e-08 1 46.1807 0.359863)" fill="white"></rect>
<path d="M10.7607 16.4755V17.297L23.3667 24.4049L34.6764 18.059V20.6426L23.3667 27.048L11.4029 20.2378L10.7607 20.5831V25.524L23.3667 32.62L34.6764 26.286V28.8101L23.3667 35.2035L11.4029 28.3934L10.7607 28.7505V29.6316L23.3667 36.7275L35.9607 29.6316V24.7025L35.378 24.3453L23.3667 31.1555L12.1046 24.7025V22.1785L23.3667 28.5124L35.9607 21.4046V16.5351L35.378 16.1898L23.3667 23L12.6873 16.9518L23.3667 10.9036L32.2146 15.8921L32.9758 15.4278V14.773L23.3667 9.32007L10.7607 16.4755Z" fill="#EF3E2B"></path>
</svg>

