<svg xmlns="http://www.w3.org/2000/svg" width="100%" height="100%" viewBox="0 0 200 200" fill="none" role="presentation">
<rect width="200" height="200" rx="100" transform="matrix(-1 8.74228e-08 8.74228e-08 1 200 0)" fill="white"></rect>
<path d="M157.646 42.2821C160.608 45.1528 162.544 48.9421 163 53.0759C163 54.7983 162.544 55.9467 161.519 58.1284C160.494 60.3101 147.848 82.3572 144.089 88.443C141.924 92.0027 140.785 96.2514 140.785 100.385C140.785 104.634 141.924 108.768 144.089 112.327C147.848 118.413 160.494 140.575 161.519 142.757C162.544 144.939 163 145.972 163 147.694C162.544 151.828 160.721 155.618 157.76 158.373C154.911 161.359 151.152 163.311 147.165 163.656C145.456 163.656 144.316 163.196 142.266 162.163C140.215 161.129 117.886 148.728 111.848 144.939C111.392 144.709 110.937 144.364 110.367 144.135L80.519 126.336C81.2025 132.078 83.7089 137.59 87.8101 141.608C88.6076 142.412 89.4051 143.101 90.3165 143.79C89.6329 144.135 88.8354 144.479 88.1519 144.939C82.1139 148.728 60.1266 161.474 57.9621 162.507C55.7975 163.541 54.7722 164 52.9494 164C48.8481 163.541 45.0886 161.703 42.3544 158.718C39.3924 155.847 37.4557 152.058 37 147.924C37.1139 146.202 37.5696 144.479 38.481 142.986C39.5063 140.805 52.1519 118.643 55.9113 112.557C58.0759 108.997 59.2152 104.863 59.2152 100.615C59.2152 96.3662 58.0759 92.2323 55.9113 88.6726C52.1519 82.3572 39.3924 60.1953 38.481 58.0136C37.5696 56.5207 37.1139 54.7983 37 53.0759C37.4557 48.9421 39.2785 45.1528 42.2405 42.2821C45.0886 39.2966 48.8481 37.4593 52.9494 37C54.6582 37.1148 56.367 37.5741 57.9621 38.4928C59.7849 39.2966 75.848 48.7125 84.3924 53.765L86.3291 54.9132C87.0126 55.3725 87.5823 55.717 88.038 55.9467L88.9494 56.5207L119.367 74.6637C118.684 67.7739 115.152 61.4584 109.684 57.2098C110.367 56.8653 111.165 56.5207 111.848 56.0614C117.886 52.2722 139.873 39.4114 142.038 38.4928C143.519 37.5741 145.228 37.1148 147.051 37C151.038 37.4593 154.798 39.2966 157.646 42.2821ZM101.595 108.653L108.089 102.108C109 101.189 109 99.8111 108.089 98.8925L101.595 92.3472C100.683 91.4285 99.3165 91.4285 98.4051 92.3472L91.9114 98.8925C91 99.8111 91 101.189 91.9114 102.108L98.4051 108.653C99.2026 109.457 100.683 109.457 101.595 108.653Z" fill="#FF694A"></path>
</svg>

