<svg xmlns="http://www.w3.org/2000/svg" width="100%" height="100%" viewBox="0 0 200 200" fill="none" role="presentation">
<rect width="200" height="200" rx="100" fill="white"></rect>
<path d="M99.5809 181.468C54.4479 181.468 18 144.951 18 99.7338C18 54.5162 54.4479 18 99.5809 18C144.714 18 181.162 54.5162 181.162 99.7338C181.162 144.902 144.714 181.468 99.5809 181.468Z" fill="black"></path>
<path d="M143.201 87.5129H127.197V111.71H143.201C149.886 111.71 155.35 106.187 155.35 99.5384C155.35 92.8902 149.886 87.5129 143.201 87.5129Z" fill="#FFF100"></path>
<path d="M48.7876 99.6841C48.7876 118.358 63.962 133.561 82.6007 133.561C101.239 133.561 116.414 118.358 116.414 99.6841C116.414 81.0105 101.239 65.8076 82.6007 65.8076C63.962 65.8076 48.7876 81.0105 48.7876 99.6841Z" fill="#FFF100"></path>
</svg>

