<svg xmlns="http://www.w3.org/2000/svg" width="100%" height="100%" viewBox="0 0 200 200" fill="none" role="presentation">
<rect width="200" height="200" rx="100" fill="white"></rect>
<path d="M117.513 100.5H130.613C131.636 100.5 132.659 99.6813 132.659 98.4531C132.659 98.2484 132.659 97.8391 132.455 97.6344L109.939 36.2281C109.53 35.6141 108.916 35 108.097 35H94.9969C93.9734 35 92.95 35.8187 92.95 37.0469C92.95 37.2516 92.95 37.4562 93.1547 37.6609L115.875 99.4766C116.08 100.091 116.694 100.5 117.513 100.5Z" fill="#0073FF"></path>
<path d="M115.261 166H128.361C129.384 166 130.408 165.181 130.408 163.953C130.408 163.748 130.408 163.544 130.203 163.339L83.5344 36.2281C83.3297 35.6141 82.5109 35 81.6922 35H68.5922C67.5687 35 66.5453 35.8187 66.5453 37.0469C66.5453 37.2516 66.5453 37.4562 66.75 37.6609L113.419 164.772C113.623 165.591 114.442 166 115.261 166Z" fill="#0073FF"></path>
<path d="M89.2656 166H102.366C103.389 166 104.208 165.181 104.412 164.158C104.412 163.953 104.412 163.544 104.208 163.339L81.4875 101.728C81.2828 100.909 80.464 100.5 79.6453 100.5H66.3406C65.3172 100.5 64.4984 101.523 64.4984 102.547C64.4984 102.752 64.4984 102.956 64.7031 103.161L87.2187 164.772C87.8328 165.591 88.4469 166 89.2656 166Z" fill="#0073FF"></path>
<path d="M119.15 37.6609L129.794 66.5219C129.998 67.3406 130.817 67.75 131.636 67.75H144.531C145.555 67.75 146.578 66.9312 146.578 65.7031C146.578 65.4984 146.578 65.2937 146.373 65.0891L135.73 36.2281C135.525 35.6141 134.911 35 134.092 35H120.992C119.969 35 118.945 35.8187 118.945 37.0469C118.945 37.2516 118.945 37.4562 119.15 37.6609Z" fill="#0073FF"></path>
<path d="M65.1125 166H78.2125C79.2359 166 80.2594 165.181 80.2594 163.953C80.2594 163.748 80.2594 163.544 80.0547 163.339L69.4109 134.478C69.2062 133.659 68.3875 133.25 67.5687 133.25H54.4688C53.4453 133.25 52.4219 134.069 52.4219 135.297C52.4219 135.502 52.4219 135.706 52.6266 135.911L63.2703 164.772C63.475 165.591 64.2937 166 65.1125 166Z" fill="#0073FF"></path>
</svg>

