<svg xmlns="http://www.w3.org/2000/svg" width="100%" height="100%" viewBox="0 0 61 61" fill="none" role="presentation">
<rect width="60" height="60" rx="30" transform="matrix(-1 8.74228e-08 8.74228e-08 1 60.1807 0.359863)" fill="white"></rect>
<rect x="7" y="7" width="45.36" height="45.36" rx="22.68" fill="white"></rect>
<mask id="mask0_124_3525" style="mask-type:luminance" maskUnits="userSpaceOnUse" x="11" y="14" width="201" height="31">
<path d="M211.898 14.5002H11.8984V44.6589H211.898V14.5002Z" fill="white"></path>
</mask>
<g mask="url(#mask0_124_3525)">
<path d="M35.6197 22.4267L36.8092 22.4596L40.0037 19.368L40.1737 18.0525C37.6248 15.8819 34.2943 14.5334 30.6579 14.5334C24.0309 14.5334 18.4574 18.8747 16.8262 24.7946C17.166 24.5644 17.9137 24.7289 17.9137 24.7289L24.3028 23.7093C24.3028 23.7093 24.6427 23.1831 24.8126 23.216C26.2739 21.6702 28.381 20.7165 30.6919 20.7165C32.4931 20.7165 34.2263 21.3742 35.6197 22.4267Z" fill="#E64217"></path>
</g>
<mask id="mask1_124_3525" style="mask-type:luminance" maskUnits="userSpaceOnUse" x="11" y="14" width="201" height="31">
<path d="M211.898 14.5002H11.8984V44.6589H211.898V14.5002Z" fill="white"></path>
</mask>
<g mask="url(#mask1_124_3525)">
<path d="M44.456 24.7941C43.7083 22.1631 42.179 19.828 40.1399 18.052L35.62 22.4262C37.4212 23.8404 38.5766 26.011 38.5766 28.4119V29.1683C40.7857 29.1683 42.5529 30.9114 42.5529 33.0162C42.5529 35.154 40.7517 36.8642 38.5766 36.8642H30.6242L29.8086 37.6535V42.2908L30.6242 43.0472H38.5766C44.2861 43.0472 48.942 38.5415 48.942 33.0162C48.942 29.6287 47.1748 26.603 44.456 24.7941Z" fill="#008FD3"></path>
</g>
<mask id="mask2_124_3525" style="mask-type:luminance" maskUnits="userSpaceOnUse" x="11" y="14" width="201" height="31">
<path d="M211.898 14.5002H11.8984V44.6589H211.898V14.5002Z" fill="white"></path>
</mask>
<g mask="url(#mask2_124_3525)">
<path d="M22.638 43.0804H30.5904V36.8974H22.638C22.0602 36.8974 21.4825 36.7659 21.0067 36.5356L19.8512 36.8645L16.6566 39.956L16.3848 41.0085C18.118 42.324 20.293 43.0804 22.638 43.0804Z" fill="#46AC44"></path>
</g>
<mask id="mask3_124_3525" style="mask-type:luminance" maskUnits="userSpaceOnUse" x="11" y="14" width="201" height="31">
<path d="M211.898 14.5002H11.8984V44.6589H211.898V14.5002Z" fill="white"></path>
</mask>
<g mask="url(#mask3_124_3525)">
<path d="M22.6378 23.019C16.9284 23.019 12.2725 27.5248 12.2725 33.05C12.2725 36.306 13.8697 39.2001 16.3846 41.0419L21.0065 36.5691C19.6132 35.9771 18.6616 34.6287 18.6616 33.05C18.6616 30.9123 20.4628 29.2021 22.6378 29.2021C24.2351 29.2021 25.6285 30.1229 26.2742 31.4714L30.8961 26.9985C28.9929 24.5977 26.0023 23.019 22.6378 23.019Z" fill="#FBBF00"></path>
</g>
</svg>

