<svg xmlns="http://www.w3.org/2000/svg" width="100%" height="100%" viewBox="0 0 200 200" fill="none" role="presentation">
<rect width="200" height="200" rx="100" fill="white"></rect>
<path d="M162.698 37.4026H36.905V162.995H162.698V37.4026Z" fill="#FFD100"></path>
<path d="M108.952 66.4163V68.1732C98.3436 62.9527 85.523 67.3198 80.3444 77.8611C80.3444 77.9113 80.2941 77.9615 80.2941 78.0117V78.0619C78.8864 80.9232 78.1825 84.0856 78.1825 87.2982C78.1825 99.0944 87.7854 108.632 99.5503 108.632C102.818 108.632 106.036 107.879 109.002 106.423V113.15C108.902 118.32 104.578 122.436 99.3994 122.285C94.3717 122.185 90.3496 118.119 90.249 113.15V112.296H78.283V113.15C78.4339 124.896 88.0871 134.282 99.8519 134.132C111.365 133.981 120.667 124.745 120.868 113.25V66.4163H108.952ZM90.6009 82.9812C92.964 78.0619 98.8464 75.9537 103.774 78.3129C107.243 79.9694 109.405 83.433 109.405 87.248C109.405 88.6033 109.153 89.9084 108.6 91.1131C106.438 96.1328 100.656 98.4419 95.6287 96.3336C93.517 95.43 91.7573 93.8237 90.7015 91.7657L90.6512 91.7155C89.2937 88.9546 89.2937 85.7421 90.6009 82.9812Z" fill="#212322"></path>
</svg>

