<svg xmlns="http://www.w3.org/2000/svg" width="100%" height="100%" viewBox="0 0 47 46" fill="none" role="presentation">
<rect x="0.820312" y="0.359863" width="45.36" height="45.36" rx="22.68" fill="white"></rect>
<path d="M21.9346 24.8095L29.512 29.0638L29.7862 25.8388L27.6948 23.5915L24.5918 23.0769L21.9346 24.8095Z" fill="#F15A22"></path>
<path d="M23.2207 10.1597L29.5123 29.0639L35.804 22.7511L23.2207 10.1597Z" fill="#F58220"></path>
<path d="M22.1917 20.1606L21.9346 24.8095L31.6034 22.751L22.1917 20.1606Z" fill="#0057A8"></path>
<path d="M17.3403 29.4758L18.5918 27.8118L18.3689 25.7876L15.2831 23.7805L10.6201 22.7512L17.3403 29.4758Z" fill="#EF4123"></path>
<path d="M10.6201 22.7512L18.3689 25.7875L22.5348 10.8459L10.6201 22.7512Z" fill="#F15A22"></path>
<path d="M17.3398 29.4756L23.22 35.3596L28.7231 29.8358L18.3684 25.7874L17.3398 29.4756Z" fill="#F58220"></path>
</svg>