<svg xmlns="http://www.w3.org/2000/svg" width="100%" height="100%" viewBox="0 0 200 200" fill="none" role="presentation">
<rect width="200" height="200" rx="100" fill="white"></rect>
<g clip-path="url(#clip0_242_4023)">
<path d="M170.995 149.678C170.995 151.208 169.86 152.235 168.517 152.235V152.225C167.136 152.235 166.023 151.208 166.023 149.678C166.023 148.149 167.136 147.125 168.517 147.125C169.861 147.124 170.995 148.148 170.995 149.678ZM172 149.678C172 147.578 170.353 146.359 168.517 146.359C166.669 146.359 165.022 147.578 165.022 149.678C165.022 151.776 166.67 153 168.517 153C170.353 153 172 151.776 172 149.678ZM167.94 149.958H168.313L169.177 151.461H170.126L169.168 149.895C169.663 149.86 170.07 149.627 170.07 148.968C170.07 148.148 169.5 147.885 168.533 147.885H167.136V151.461H167.939V149.958M167.94 149.353V148.492H168.499C168.803 148.492 169.217 148.516 169.217 148.884C169.217 149.283 169.003 149.353 168.644 149.353H167.94Z" fill="black"></path>
<path d="M148.547 131.386L152.889 143.15H144.07L148.547 131.386ZM143.897 126.806L133.89 151.913H140.956L142.539 147.477H154.381L155.879 151.913H163.55L153.468 126.802L143.897 126.806ZM123.807 151.922H130.976V126.798L123.806 126.796L123.807 151.922ZM74.0394 126.796L68.0583 146.709L62.3288 126.798L54.5937 126.796L62.7766 151.922H73.1044L81.3533 126.796H74.0394ZM103.017 132.267H106.098C110.568 132.267 113.459 134.255 113.459 139.412C113.459 144.571 110.568 146.558 106.098 146.558H103.017V132.267ZM95.9081 126.796V151.922H107.53C113.722 151.922 115.744 150.903 117.931 148.616C119.475 147.011 120.474 143.487 120.474 139.636C120.474 136.103 119.628 132.954 118.155 130.992C115.499 127.482 111.674 126.796 105.966 126.796H95.9081ZM28 126.761V151.922H35.2295V132.818L40.8312 132.819C42.686 132.819 44.0082 133.277 44.9013 134.222C46.0342 135.417 46.4968 137.346 46.4968 140.874V151.922H53.5022V138.021C53.5022 128.099 47.1163 126.761 40.8681 126.761H28ZM84.3704 126.796L84.3733 151.922H91.5389V126.796H84.3704Z" fill="black"></path>
<path d="M47.2662 76.7679C47.2662 76.7679 56.4865 63.2961 74.8965 61.9024V57.0148C54.5051 58.6365 36.847 75.7394 36.847 75.7394C36.847 75.7394 46.8483 104.371 74.8965 106.992V101.797C54.3134 99.2327 47.2662 76.7679 47.2662 76.7679ZM74.8965 91.4651V96.2229C59.3402 93.4764 55.0222 77.4626 55.0222 77.4626C55.0222 77.4626 62.4914 69.2686 74.8965 67.9398V73.1605C74.887 73.1605 74.8805 73.1576 74.8727 73.1576C68.3618 72.3839 63.2756 78.4071 63.2756 78.4071C63.2756 78.4071 66.1264 88.547 74.8965 91.4651ZM74.8965 48V57.0148C75.4951 56.9693 76.0937 56.9308 76.6955 56.9105C99.8783 56.1368 114.983 75.7394 114.983 75.7394C114.983 75.7394 97.6347 96.6302 79.5603 96.6302C77.9038 96.6302 76.353 96.4781 74.8965 96.2225V101.797C76.142 101.954 77.4334 102.046 78.781 102.046C95.6004 102.046 107.764 93.5393 119.542 83.4716C121.494 85.0203 129.489 88.7881 131.132 90.4374C119.934 99.722 93.8349 107.206 79.0387 107.206C77.6125 107.206 76.2428 107.121 74.8965 106.992V114.825H138.826V48H74.8965ZM74.8965 67.9398V61.9024C75.4889 61.8614 76.0859 61.8301 76.6955 61.8111C93.3662 61.2925 104.303 75.9978 104.303 75.9978C104.303 75.9978 92.4902 92.245 79.8242 92.245C78.0013 92.245 76.3674 91.9549 74.8965 91.4651V73.1605C81.3864 73.9371 82.6922 76.776 86.594 83.2172L95.2718 75.9711C95.2718 75.9711 88.9371 67.7438 78.2586 67.7438C77.0979 67.7434 75.9871 67.8242 74.8965 67.9398Z" fill="#77B900"></path>
</g>
<defs>
<clipPath id="clip0_242_4023">
<rect width="144" height="105" fill="white" transform="translate(28 48)"></rect>
</clipPath>
</defs>
</svg>