<svg xmlns="http://www.w3.org/2000/svg" width="100%" height="100%" viewBox="0 0 47 46" fill="none" role="presentation">
<rect x="0.820312" y="0.359863" width="45.36" height="45.36" rx="22.68" fill="white"></rect>
<g clip-path="url(#clip0_124_3595)">
<path d="M32.1582 8.62549H16.1318C11.7363 8.62549 8.17871 12.1538 8.17871 16.5035V28.9994V32.8043V38.3713H12.4452L14.1553 32.8043L14.9459 30.2336C18.2758 32.7533 22.1041 32.8043 22.3748 32.8043H22.3918H23.3973V28.9994V24.4751C22.2673 24.4751 21.3478 25.3859 21.3478 26.5052V28.9994V30.638C19.6421 30.5358 18.0309 29.9443 16.6516 28.9994C13.992 27.182 12.1917 24.0623 12.1917 20.6191V16.6525H25.0601C25.7777 16.6525 26.4737 16.8865 27.0451 17.3207L29.6059 19.2657C30.5297 19.968 31.664 20.3467 32.8284 20.3467H35.9951V23.9005C35.9951 25.4966 34.6889 26.7947 33.0733 26.7947H31.4106C29.7392 26.7947 28.274 27.68 27.4705 29.0036C27.0538 29.6889 26.8131 30.4932 26.8131 31.3487V32.8086V38.3755H32.6437V32.7958C36.8114 32.549 40.1155 29.1228 40.1155 24.9306V16.5077C40.1155 12.1538 36.5536 8.62549 32.1582 8.62549Z" fill="#5E2F76"></path>
</g>
<defs>
<clipPath id="clip0_124_3595">
<rect width="31.5" height="29.75" fill="white" transform="translate(8.17871 8.62549)"></rect>
</clipPath>
</defs>
</svg>
