<svg xmlns="http://www.w3.org/2000/svg" width="100%" height="100%" viewBox="0 0 200 200" fill="none" role="presentation">
<rect width="200" height="200" rx="100" fill="white"></rect>
<g clip-path="url(#clip0_226_2395)">
<path d="M85.5736 53.9765C91.1197 48.2647 98.8424 44.7216 107.384 44.7216C118.739 44.7216 128.643 50.9784 133.919 60.2683C138.504 58.2443 143.578 57.1173 148.917 57.1173C169.395 57.1173 185.998 73.6717 185.998 94.0911C185.998 114.514 169.395 131.067 148.917 131.067C146.417 131.067 143.975 130.817 141.611 130.348C136.968 138.536 128.115 144.071 117.953 144.071C113.701 144.071 109.679 143.102 106.095 141.372C101.388 152.322 90.4147 160 77.6284 160C64.3119 160 52.9619 151.672 48.6063 139.99C46.7028 140.388 44.7286 140.598 42.7063 140.598C26.8516 140.598 14 127.762 14 111.927C14 101.312 19.771 92.0473 28.3531 87.0898C26.5861 83.0693 25.6054 78.6363 25.6054 73.9739C25.6054 55.7633 40.5627 40.9982 59.0111 40.9982C69.8431 40.9982 79.4689 46.0883 85.5736 53.9765Z" fill="#479DDC"></path>
<path d="M38.9106 102.709C38.8018 102.989 38.9485 103.046 38.9838 103.094C39.3074 103.326 39.6336 103.494 39.9647 103.681C41.7189 104.601 43.3772 104.868 45.1087 104.868C48.6378 104.868 50.8293 103.014 50.8293 100.028V99.9705C50.8293 97.2096 48.3546 96.205 46.0366 95.4802L45.7331 95.3852C43.9839 94.823 42.4748 94.3385 42.4748 93.1993V93.1414C42.4748 92.1672 43.3569 91.4496 44.7246 91.4496C46.2439 91.4496 48.0461 91.9498 49.2064 92.5842C49.2064 92.5842 49.5502 92.8016 49.674 92.4745C49.7425 92.2967 50.329 90.7349 50.3919 90.5653C50.4578 90.383 50.3416 90.2453 50.2202 90.1732C48.8931 89.3758 47.0604 88.8314 45.1645 88.8314L44.813 88.8339C41.5824 88.8339 39.3277 90.7629 39.3277 93.5263V93.5837C39.3277 96.495 41.8151 97.4417 44.1457 98.0989L44.5198 98.2142C46.2186 98.7287 47.6822 99.1736 47.6822 100.353V100.413C47.6822 101.492 46.7292 102.297 45.1974 102.297C44.6007 102.297 42.7022 102.287 40.6522 101.005C40.4045 100.86 40.263 100.758 40.0709 100.643C39.9698 100.58 39.7169 100.473 39.6057 100.8L38.9106 102.709Z" fill="white"></path>
<path d="M90.5611 102.709C90.4522 102.989 90.5986 103.046 90.6341 103.094C90.9578 103.326 91.284 103.494 91.6149 103.681C93.3691 104.601 95.0277 104.868 96.7593 104.868C100.288 104.868 102.48 103.014 102.48 100.028V99.9705C102.48 97.2096 100.005 96.205 97.6867 95.4802L97.3836 95.3852C95.634 94.823 94.1249 94.3385 94.1249 93.1993V93.1414C94.1249 92.1672 95.0072 91.4496 96.3749 91.4496C97.8943 91.4496 99.6968 91.9498 100.857 92.5842C100.857 92.5842 101.201 92.8016 101.325 92.4745C101.393 92.2967 101.979 90.7349 102.042 90.5653C102.108 90.383 101.992 90.2453 101.871 90.1732C100.544 89.3758 98.7133 88.8314 96.8148 88.8314L96.4633 88.8339C93.2329 88.8339 90.9778 90.7629 90.9778 93.5263V93.5837C90.9778 96.495 93.4678 97.4417 95.7959 98.0989L96.1699 98.2142C97.8691 98.7287 99.335 99.1736 99.335 100.353V100.413C99.335 101.492 98.3819 102.297 96.8476 102.297C96.2511 102.297 94.3551 102.287 92.3024 101.005C92.0548 100.86 91.9083 100.763 91.7213 100.643C91.6581 100.603 91.3596 100.488 91.2584 100.8L90.5611 102.709Z" fill="white"></path>
<path d="M125.822 96.8589C125.822 98.5456 125.504 99.8773 124.877 100.817C124.255 101.747 123.318 102.201 122.01 102.201C120.701 102.201 119.769 101.747 119.157 100.817C118.538 99.8773 118.224 98.5456 118.224 96.8589C118.224 95.1752 118.538 93.8455 119.154 92.9161C119.769 91.9963 120.701 91.5493 122.01 91.5493C123.318 91.5493 124.255 91.9963 124.877 92.9161C125.504 93.8455 125.822 95.1752 125.822 96.8589ZM128.768 93.7307C128.479 92.7637 128.027 91.9114 127.428 91.2019C126.829 90.4898 126.068 89.9174 125.165 89.503C124.266 89.088 123.204 88.8757 122.01 88.8757C120.815 88.8757 119.751 89.088 118.851 89.503C117.951 89.9174 117.19 90.4898 116.591 91.2044C115.989 91.914 115.539 92.7662 115.251 93.7307C114.963 94.6927 114.817 95.7445 114.817 96.8589C114.817 97.9737 114.963 99.0281 115.251 99.9875C115.539 100.952 115.989 101.804 116.591 102.516C117.19 103.228 117.953 103.798 118.854 104.203C119.753 104.607 120.815 104.812 122.01 104.812C123.204 104.812 124.263 104.607 125.165 104.203C126.066 103.798 126.826 103.228 127.428 102.516C128.027 101.807 128.479 100.955 128.768 99.9875C129.056 99.0255 129.202 97.9737 129.202 96.8589C129.202 95.7445 129.056 94.6927 128.768 93.7307Z" fill="white"></path>
<path fill-rule="evenodd" clip-rule="evenodd" d="M152.951 101.749C152.855 101.467 152.574 101.574 152.574 101.574C152.147 101.737 151.692 101.884 151.204 101.959C150.714 102.036 150.173 102.074 149.591 102.074C148.168 102.074 147.033 101.654 146.222 100.827C145.411 99.9977 144.953 98.6584 144.958 96.8467C144.963 95.2001 145.365 93.9608 146.088 93.0136C146.806 92.074 147.9 91.592 149.356 91.592C150.57 91.592 151.497 91.7317 152.468 92.0319C152.468 92.0319 152.701 92.1314 152.809 91.8317C153.07 91.1222 153.259 90.6199 153.535 89.8428C153.613 89.6204 153.421 89.5279 153.351 89.5005C152.969 89.3532 152.069 89.1104 151.386 89.0084C150.752 88.9134 150.006 88.8631 149.177 88.8631C147.941 88.8631 146.838 89.0729 145.896 89.4878C144.953 89.9002 144.156 90.4726 143.522 91.1847C142.89 91.8968 142.41 92.749 142.091 93.7135C141.77 94.6755 141.611 95.7298 141.611 96.8492C141.611 99.2628 142.268 101.215 143.57 102.641C144.875 104.078 146.831 104.805 149.384 104.805C150.893 104.805 152.44 104.503 153.555 104.071C153.555 104.071 153.767 103.968 153.674 103.723L152.951 101.749Z" fill="white"></path>
<path fill-rule="evenodd" clip-rule="evenodd" d="M158.105 95.242C158.247 94.305 158.507 93.5258 158.912 92.9184C159.521 91.9966 160.451 91.4866 161.76 91.4866C163.07 91.4866 163.932 91.9966 164.554 92.9184C164.965 93.5284 165.145 94.3375 165.216 95.2446L158.105 95.242ZM168.02 93.1835C167.769 92.2485 167.15 91.3069 166.745 90.8772C166.103 90.192 165.474 89.7151 164.852 89.45C164.041 89.1051 163.065 88.8781 161.996 88.8781C160.752 88.8781 159.622 89.0853 158.704 89.5104C157.786 89.935 157.016 90.5171 156.409 91.2418C155.805 91.9641 155.35 92.8234 155.059 93.8006C154.768 94.7702 154.622 95.8271 154.622 96.944C154.622 98.0807 154.773 99.1401 155.074 100.09C155.378 101.052 155.863 101.894 156.518 102.596C157.175 103.301 158.017 103.85 159.025 104.238C160.029 104.62 161.247 104.82 162.645 104.815C165.524 104.807 167.041 104.173 167.666 103.831C167.777 103.768 167.88 103.663 167.751 103.358L167.097 101.554C166.998 101.286 166.723 101.384 166.723 101.384C166.007 101.647 164.996 102.116 162.63 102.111C161.083 102.109 159.938 101.659 159.22 100.952C158.484 100.232 158.12 99.1726 158.06 97.6764L168.027 97.6835C168.027 97.6835 168.29 97.6809 168.318 97.426C168.328 97.3214 168.659 95.402 168.02 93.1835Z" fill="white"></path>
<path fill-rule="evenodd" clip-rule="evenodd" d="M78.2632 95.242C78.4045 94.305 78.665 93.5258 79.0668 92.9184C79.6813 91.9966 80.6088 91.4866 81.9185 91.4866C83.2277 91.4866 84.0925 91.9966 84.7142 92.9184C85.1237 93.5284 85.303 94.3375 85.3739 95.2446L78.2632 95.242ZM88.1773 93.1835C87.9271 92.2485 87.3079 91.3069 86.9035 90.8772C86.2613 90.192 85.6344 89.7151 85.0101 89.45C84.1963 89.1051 83.2226 88.8781 82.1559 88.8781C80.9099 88.8781 79.78 89.0853 78.8623 89.5104C77.9446 89.935 77.1734 90.5171 76.5671 91.2418C75.9629 91.9641 75.5076 92.8234 75.2173 93.8006C74.9265 94.7702 74.7795 95.8271 74.7795 96.944C74.7795 98.0807 74.9316 99.1401 75.2322 100.09C75.5354 101.052 76.0209 101.894 76.6755 102.596C77.3327 103.301 78.1748 103.85 79.1835 104.238C80.1869 104.62 81.4052 104.82 82.8033 104.815C85.6822 104.807 87.199 104.173 87.8233 103.831C87.9348 103.768 88.0386 103.663 87.9096 103.358L87.2545 101.554C87.1563 101.286 86.8804 101.384 86.8804 101.384C86.1652 101.647 85.154 102.116 82.7879 102.111C81.2433 102.109 80.096 101.659 79.3777 100.952C78.6424 100.232 78.2781 99.1726 78.2175 97.6764L88.185 97.6835C88.185 97.6835 88.4481 97.6809 88.4758 97.426C88.4856 97.3214 88.817 95.402 88.1773 93.1835Z" fill="white"></path>
<path d="M56.7143 101.695C56.3226 101.387 56.2696 101.31 56.1405 101.11C55.9408 100.808 55.8399 100.378 55.8399 99.8286C55.8399 98.9637 56.1305 98.339 56.7296 97.922C56.7246 97.922 57.5891 97.1825 59.6215 97.2099C61.0497 97.2272 62.3288 97.437 62.3288 97.437V101.918C62.3288 101.918 61.0624 102.185 59.6367 102.27C57.6093 102.392 56.7069 101.693 56.7143 101.695ZM60.6806 94.771C60.2762 94.741 59.7529 94.7263 59.1261 94.7263C58.2717 94.7263 57.4449 94.8309 56.669 95.0382C55.8902 95.2459 55.1902 95.5659 54.5884 95.9905C53.9819 96.4202 53.4964 96.9672 53.1425 97.6173C52.7887 98.2669 52.6093 99.0313 52.6093 99.886C52.6093 100.761 52.761 101.517 53.0667 102.137C53.3701 102.759 53.8075 103.279 54.366 103.679C54.9196 104.079 55.6046 104.371 56.3958 104.549C57.1796 104.726 58.067 104.816 59.0376 104.816C60.0614 104.816 61.0776 104.731 62.0659 104.566C63.0441 104.401 64.2424 104.162 64.5761 104.084C64.9073 104.009 65.2738 103.909 65.2738 103.909C65.5214 103.846 65.5013 103.587 65.5013 103.587L65.4962 94.576C65.4962 92.5972 64.9629 91.133 63.9138 90.2233C62.8673 89.3188 61.3253 88.8616 59.3332 88.8616C58.585 88.8616 57.3843 88.9617 56.6614 89.1039C56.6614 89.1039 54.4849 89.5214 53.5901 90.2157C53.5901 90.2157 53.3928 90.3356 53.499 90.6083L54.2043 92.4824C54.2928 92.7247 54.5328 92.6419 54.5328 92.6419C54.5328 92.6419 54.6087 92.612 54.6972 92.5596C56.6134 91.5301 59.04 91.5601 59.04 91.5601C60.117 91.5601 60.9461 91.7775 61.5047 92.1975C62.0482 92.612 62.3238 93.2316 62.3238 94.546V94.9635C61.4693 94.8411 60.6806 94.771 60.6806 94.771Z" fill="white"></path>
<path fill-rule="evenodd" clip-rule="evenodd" d="M141.089 89.6929C141.166 89.4705 141.006 89.3633 140.94 89.3379C140.771 89.2754 139.922 89.0982 139.27 89.056C138.016 88.9809 137.321 89.1886 136.699 89.4659C136.079 89.7407 135.394 90.1876 135.015 90.695L135.013 89.4933C135.013 89.3283 134.894 89.1957 134.727 89.1957H132.171C132.005 89.1957 131.885 89.3283 131.885 89.4933V104.193C131.885 104.358 132.02 104.49 132.189 104.49H134.808C134.975 104.49 135.109 104.358 135.109 104.193V96.8492C135.109 95.8623 135.22 94.8806 135.44 94.263C135.655 93.651 135.948 93.1639 136.312 92.814C136.676 92.464 137.09 92.2192 137.546 92.0821C138.008 91.9419 138.521 91.8947 138.88 91.8947C139.404 91.8947 139.975 92.0293 139.975 92.0293C140.17 92.0496 140.276 91.9317 140.341 91.7621C140.511 91.3121 140.999 89.9606 141.089 89.6929Z" fill="white"></path>
<path fill-rule="evenodd" clip-rule="evenodd" d="M116.504 82.8809C116.186 82.7838 115.897 82.7188 115.518 82.6513C115.134 82.5812 114.679 82.5462 114.163 82.5462C112.361 82.5462 110.941 83.051 109.942 84.0455C108.951 85.0323 108.276 86.5367 107.937 88.5129L107.816 89.1803H105.554C105.554 89.1803 105.276 89.1706 105.22 89.4678L104.848 91.5166C104.821 91.7116 104.906 91.834 105.172 91.834H107.376L105.139 104.168C104.964 105.16 104.765 105.977 104.543 106.597C104.325 107.209 104.11 107.666 103.847 107.998C103.592 108.318 103.352 108.558 102.935 108.696C102.591 108.808 102.194 108.86 101.762 108.86C101.522 108.86 101.201 108.82 100.963 108.773C100.725 108.728 100.602 108.675 100.424 108.603C100.424 108.603 100.167 108.505 100.063 108.76C99.982 108.97 99.3957 110.567 99.3248 110.764C99.2544 110.959 99.3525 111.112 99.4789 111.156C99.7723 111.259 99.9897 111.327 100.389 111.419C100.945 111.549 101.413 111.556 101.85 111.556C102.768 111.556 103.605 111.429 104.298 111.182C104.995 110.932 105.602 110.497 106.14 109.912C106.719 109.278 107.085 108.613 107.434 107.706C107.781 106.809 108.074 105.695 108.311 104.395L110.556 91.834H113.84C113.84 91.834 114.118 91.8442 114.174 91.5466L114.545 89.4977C114.57 89.3027 114.487 89.1803 114.222 89.1803H111.034C111.049 89.1102 111.193 88.001 111.56 86.9588C111.717 86.5113 112.01 86.1542 112.26 85.9069C112.503 85.6646 112.786 85.492 113.094 85.3924C113.41 85.2923 113.769 85.2421 114.163 85.2421C114.464 85.2421 114.758 85.2771 114.982 85.3223C115.291 85.3873 115.412 85.4219 115.493 85.4447C115.817 85.5448 115.86 85.4498 115.925 85.2949L116.686 83.2257C116.765 83.0033 116.575 82.9088 116.504 82.8809Z" fill="white"></path>
<path fill-rule="evenodd" clip-rule="evenodd" d="M71.9666 104.193C71.9666 104.358 71.8479 104.493 71.6809 104.493H69.0368C68.8698 104.493 68.7511 104.358 68.7511 104.193V83.1613C68.7511 82.9962 68.8698 82.8642 69.0368 82.8642H71.6809C71.8479 82.8642 71.9666 82.9962 71.9666 83.1613V104.193Z" fill="white"></path>
</g>
<defs>
<clipPath id="clip0_226_2395">
<rect width="172" height="119" fill="white" transform="translate(14 41)"></rect>
</clipPath>
</defs>
</svg>