<svg xmlns="http://www.w3.org/2000/svg" width="100%" height="100%" viewBox="0 0 200 200" fill="none" role="presentation">
<rect width="200" height="200" rx="100" fill="white"></rect>
<g clip-path="url(#clip0_226_2414)">
<path fill-rule="evenodd" clip-rule="evenodd" d="M71.4384 90.0866C60.8856 81.7021 49.2666 72.4512 43.0724 67.5134C40.791 65.7067 39.2339 64.4616 38.7458 64.0821C35.7587 61.6837 33.419 57.4607 38.4805 54.5574C40.6955 53.2889 78.3622 32.4199 92.2595 24.6581C97.1384 21.9316 103.155 21.9265 108.046 24.6581C114.697 28.3712 134.651 39.495 134.651 39.495C136.749 40.6635 136.749 43.5873 134.651 44.7558L72.3666 79.2572C68.2313 81.5659 67.7587 87.1551 71.4384 90.0866Z" fill="#FABF00"></path>
<path fill-rule="evenodd" clip-rule="evenodd" d="M87.0033 114.556L61.6403 151.894C59.8125 154.587 56.1251 155.433 53.2363 153.821L36.4311 144.45C31.558 141.729 28.5365 136.701 28.5365 131.248V68.9408C28.5365 64.0977 30.9266 59.585 34.8739 56.7432C30.3616 60.1026 32.1549 63.8668 35.1419 66.268C35.5451 66.5805 72.8322 96.2568 85.751 106.54C88.2288 108.511 88.7645 111.963 87.0033 114.556Z" fill="#338393"></path>
<path fill-rule="evenodd" clip-rule="evenodd" d="M128.891 110.029C139.444 118.413 151.062 127.664 157.257 132.602C159.538 134.408 161.095 135.654 161.583 136.033C164.57 138.432 166.91 142.655 161.849 145.558C159.633 146.826 121.967 167.695 108.07 175.457C103.191 178.184 97.1744 178.189 92.2828 175.457C85.6324 171.744 65.6783 160.62 65.6783 160.62C63.5802 159.452 63.5802 156.528 65.6783 155.359L127.962 120.861C132.098 118.549 132.57 112.96 128.891 110.029Z" fill="#338393"></path>
<path fill-rule="evenodd" clip-rule="evenodd" d="M113.323 85.5595L138.686 48.2211C140.514 45.5279 144.201 44.6823 147.09 46.2941L163.895 55.6652C168.768 58.3865 171.789 63.4142 171.789 68.867V131.174C171.789 136.02 169.399 140.53 165.452 143.372C169.965 140.013 168.171 136.248 165.184 133.847C164.781 133.535 127.494 103.858 114.575 93.5773C112.097 91.6043 111.561 88.1525 113.323 85.5595Z" fill="#338393"></path>
</g>
<defs>
<clipPath id="clip0_226_2414">
<rect width="141" height="164" fill="white" transform="translate(30 18)"></rect>
</clipPath>
</defs>
</svg>

