<svg xmlns="http://www.w3.org/2000/svg" width="100%" height="100%" viewBox="0 0 200 200" fill="none" role="presentation">
<rect width="200" height="200" rx="100" transform="matrix(-1 8.74228e-08 8.74228e-08 1 200 0)" fill="white"></rect>
<g clip-path="url(#clip0_226_2420)">
<path fill-rule="evenodd" clip-rule="evenodd" d="M74.0428 97.8834C73.915 98.5441 73.8638 99.2049 73.8638 99.9164C73.8638 105.66 78.1839 110.056 83.8589 110.056C87.7188 110.056 90.8375 108.049 92.4224 105.075L96.6147 107.54C94.2373 112.013 89.406 114.986 83.8589 114.986C75.2954 114.986 68.9302 108.404 68.9302 99.9164C68.9302 99.2303 68.9814 98.5441 69.0581 97.8834H74.0428ZM60.4434 105.889L64.6613 108.354C62.1561 112.343 57.836 114.986 52.1611 114.986V110.158C52.1867 110.158 52.2122 110.158 52.2378 110.158C56.1745 110.158 59.0119 108.277 60.4434 105.889ZM169.059 84.999C176.498 84.999 182.582 91.0219 182.582 98.4171V114.986H177.418V98.6204C177.418 94.5289 174.223 90.0816 169.059 90.0816C163.896 90.0816 160.7 94.5035 160.7 98.6204V114.986H155.537V98.4171C155.537 91.0219 161.595 84.999 169.059 84.999ZM136.211 84.999C140.404 84.999 143.982 86.4476 146.897 89.3192C149.836 92.2163 151.293 95.7487 151.293 99.9927C151.293 104.237 149.836 107.769 146.897 110.666C143.957 113.563 140.404 114.986 136.211 114.986C132.019 114.986 128.466 113.538 125.552 110.666C122.637 107.769 121.18 104.237 121.18 99.9927C121.18 95.7487 122.637 92.2163 125.552 89.3192C128.44 86.4476 132.019 84.999 136.211 84.999ZM34.5228 84.999V89.98H26.8029L26.8029 106.092C26.8029 110.615 29.3592 110.31 34.5228 110.082V114.707C25.8059 115.901 21.7415 113.512 21.7415 106.092L21.7415 89.98H15.9899L15.9899 84.999H34.5228ZM117.806 84.999V89.98H110.086V106.092C110.086 110.615 112.642 110.31 117.806 110.082L117.806 114.707C109.089 115.901 105.025 113.512 105.025 106.092V89.98L99.2732 89.98V84.999L117.806 84.999ZM136.083 89.8021C133.246 89.8021 130.869 90.7678 128.9 92.7246C126.958 94.6814 125.986 97.0956 125.986 99.9927C125.986 102.89 126.958 105.329 128.9 107.261C130.843 109.218 133.246 110.183 136.083 110.183C138.947 110.183 141.375 109.218 143.318 107.261C145.261 105.304 146.232 102.89 146.232 99.9927C146.232 97.0956 145.261 94.656 143.318 92.7246C141.375 90.7932 138.947 89.8021 136.083 89.8021ZM51.6499 84.999C60.2389 84.999 65.786 91.9876 65.786 99.891C65.786 100.628 65.7349 101.365 65.6071 102.077L41.8082 102.077C41.8082 102.077 41.8082 102.077 41.8082 102.102H36.9257C36.8235 101.365 36.7468 100.603 36.7468 99.8402C36.7468 91.4793 42.7796 84.999 51.6499 84.999ZM51.6499 89.6242C46.3072 89.6242 42.6262 92.9025 41.8338 97.8072L60.8013 97.8072C59.9322 92.2163 55.8933 89.6242 51.6499 89.6242ZM83.8844 84.999C89.5849 84.999 94.4163 88.1248 96.5891 92.9025L92.3968 95.4438C90.9653 92.2417 87.7444 90.1324 83.8844 90.1324C83.4243 90.1324 82.9642 90.1833 82.5296 90.2341V85.0753C82.9642 85.0244 83.4243 84.999 83.8844 84.999Z" fill="#D30602"></path>
</g>
<defs>
<clipPath id="clip0_226_2420">
<rect width="167" height="30" fill="white" transform="translate(16 85)"></rect>
</clipPath>
</defs>
</svg>

