<?xml version="1.0" encoding="UTF-8"?>
<svg xmlns="http://www.w3.org/2000/svg" width="216" height="216" viewBox="0 0 216 216">
  <rect x="36" y="36" width="144" height="144" fill="#26C7FE"/>
  <g fill="#000" transform="translate(24, 24) scale(0.8)">
    <path d="M49.9 52.1c0 1.8-.4 3.2-1.2 4.2-.8 1-2 1.5-3.6 1.5s-2.8-.5-3.7-1.5c-.8-1-1.3-2.4-1.3-4.2V37h-5.5v15c0 2.5.4 4.5 1.2 6.2.8 1.6 2 2.9 3.5 3.7 1.5.8 3.4 1.2 5.7 1.2 2.3 0 4.2-.4 5.7-1.2 1.5-.8 2.7-2.1 3.5-3.7.8-1.6 1.2-3.7 1.2-6.2V37h-5.5v15.1Zm43.9.7L82.2 37h-5v25.6h5.4V46.8l11.7 15.8h5V37h-5.5v15.8Zm38.5 5.4c-1.3 0-2.5-.3-3.5-.9-1.1-.6-1.9-1.5-2.7-2.7l-4.3 2.7c.7 1.4 1.6 2.6 2.6 3.4 1 .9 2.2 1.6 3.5 2 1.3.4 2.7.7 4.2.7s3.6-.3 5-1 2.5-1.6 3.3-2.8c.8-1.2 1.1-2.5 1.1-4s-.3-2.7-.9-3.8c-.6-1.1-1.5-1.9-2.8-2.7-1.3-.7-3-1.3-5.1-1.8-1.8-.4-2.9-.8-3.5-1.3-.6-.5-.9-1-.9-1.7s.3-1.3.9-1.7c.6-.4 1.4-.6 2.5-.6s1.8.2 2.7.6c.9.4 1.7 1 2.4 1.8l4.3-3c-.9-1.4-2.1-2.5-3.6-3.3-1.5-.9-3.3-1.3-5.5-1.3s-3.5.3-4.9 1c-1.4.7-2.4 1.6-3.2 2.8-.7 1.2-1.1 2.5-1.1 4s.2 2.4.8 3.5c.5 1 1.4 1.9 2.6 2.7 1.2.8 2.9 1.4 4.9 1.9 1.3.3 2.3.6 2.9.9.7.3 1.1.7 1.4 1 .3.4.4.8.4 1.3 0 .8-.3 1.4-.9 1.9-.6.5-1.4.7-2.6.7m35.699 4.1h5.6V42.3h7.7V37h-20.9v5.3h7.6v20.3ZM52.5 108.9c.8-1.3 1.3-2.9 1.3-4.8s-.4-3.4-1.3-4.7c-.9-1.3-2-2.4-3.4-3.1-1.4-.7-3.1-1.1-4.9-1.1h-9.4v25.6h5.5V113H44l4.1 7.8h6l-4.7-9c1.3-.7 2.4-1.7 3.2-2.9m-5.7-2.1c-.8.6-1.8.9-3.2.9h-3.5v-7.2h3.5c1.4 0 2.5.3 3.2.9.8.6 1.1 1.5 1.1 2.7 0 1.2-.4 2.1-1.1 2.7Zm46 3.5c0 1.8-.4 3.2-1.2 4.2-.8 1-2 1.5-3.6 1.5s-2.8-.5-3.7-1.5c-.8-1-1.3-2.4-1.3-4.2V95.2h-5.5v15c0 2.5.4 4.5 1.2 6.2.8 1.6 2 2.9 3.5 3.7 1.5.8 3.4 1.2 5.7 1.2 2.3 0 4.2-.4 5.7-1.2 1.5-.8 2.7-2.1 3.5-3.7.8-1.6 1.2-3.7 1.2-6.2v-15h-5.5v15.1Zm35.999-9.2c1.1-.7 2.4-1 3.8-1s2.8.3 3.9 1 2.1 1.7 2.9 3.1l5-1.9c-1-2.4-2.5-4.3-4.4-5.6-1.9-1.3-4.4-2-7.4-2s-3.7.3-5.2 1c-1.6.6-3 1.6-4.1 2.7-1.2 1.2-2.1 2.6-2.7 4.2-.6 1.6-1 3.4-1 5.3s.5 4.9 1.6 6.9 2.6 3.6 4.5 4.7 4.2 1.7 6.9 1.7 5.5-.7 7.4-2c1.9-1.3 3.4-3.2 4.4-5.6l-5-1.9c-.8 1.4-1.8 2.5-2.9 3.1-1.1.7-2.4 1-3.9 1s-2.7-.3-3.8-1c-1.1-.7-2-1.6-2.6-2.8-.6-1.2-1-2.6-1-4.2s.3-3 1-4.2c.6-1.2 1.5-2.1 2.6-2.8m45.4 20v-20.3h7.7v-5.3h-20.8v5.3h7.6v20.3h5.5ZM48.9 168.5c0 1.8-.4 3.2-1.2 4.2-.8 1-2 1.5-3.6 1.5s-2.8-.5-3.7-1.5c-.8-1-1.3-2.4-1.3-4.2v-15.1h-5.5v15c0 2.5.4 4.5 1.2 6.1.8 1.6 2 2.9 3.5 3.7 1.5.8 3.4 1.2 5.7 1.2 2.3 0 4.2-.4 5.7-1.2 1.5-.8 2.7-2.1 3.5-3.7.8-1.6 1.2-3.7 1.2-6.1v-15h-5.5v15.1Zm46-1.4c.8-1.3 1.3-2.9 1.3-4.8s-.4-3.4-1.3-4.7c-.8-1.3-2-2.4-3.4-3.1-1.4-.7-3.1-1.1-4.9-1.1h-9.4V179h5.5v-7.8h3.7l4.1 7.8h6l-4.7-9c1.3-.7 2.4-1.7 3.2-2.9m-5.6-2c-.8.6-1.8.9-3.2.9h-3.5v-7.2h3.5c1.4 0 2.5.3 3.2.9.8.6 1.1 1.5 1.1 2.7 0 1.2-.4 2.1-1.1 2.7Zm34.299 14h16.3v-5.3h-10.8v-5h8.7v-5.2h-8.7v-4.9h10.8v-5.2h-16.3v25.6Zm57.201-19.7c-1-1.9-2.5-3.4-4.4-4.4-1.9-1-4.2-1.5-6.9-1.5h-9v25.6h8.9c2.7 0 5-.5 6.9-1.5 1.9-1 3.4-2.5 4.5-4.4 1-1.9 1.6-4.2 1.6-6.9s-.5-5-1.6-6.9Zm-5.1 11.2c-.6 1.1-1.5 1.9-2.7 2.4-1.1.5-2.5.8-4 .8h-3v-15h3.1c1.5 0 2.9.3 4 .8s2 1.4 2.7 2.5c.6 1.1.9 2.5.9 4.3 0 1.8-.3 3.2-1 4.3"/>
  </g>
</svg>