<svg xmlns="http://www.w3.org/2000/svg" width="100%" height="100%" viewBox="0 0 200 200" fill="none" role="presentation">
<rect width="200" height="200" rx="100" fill="white"></rect>
<g clip-path="url(#clip0_226_2292)">
<path d="M65.4713 87.0211C65.4713 88.9728 65.6819 90.5552 66.0503 91.7156C66.4713 92.876 66.9976 94.142 67.7345 95.5134C67.9976 95.9354 68.1029 96.3574 68.1029 96.7266C68.1029 97.2541 67.7871 97.7815 67.1029 98.309L63.7871 100.524C63.3134 100.841 62.8397 100.999 62.4187 100.999C61.8924 100.999 61.3661 100.735 60.8397 100.261C60.1029 99.4695 59.4713 98.6255 58.945 97.7815C58.4187 96.8848 57.8924 95.8826 57.3134 94.6695C53.2082 99.5222 48.0503 101.949 41.8398 101.949C37.4187 101.949 33.8924 100.683 31.3134 98.1508C28.7345 95.6189 27.4187 92.2431 27.4187 88.0233C27.4187 83.5398 28.9976 79.9002 32.2082 77.1574C35.4187 74.4145 39.6819 73.0431 45.1029 73.0431C46.8924 73.0431 48.7345 73.2013 50.6819 73.4651C52.6292 73.7288 54.6292 74.1508 56.7345 74.6255V70.775C56.7345 66.7662 55.8924 63.9706 54.2608 62.3354C52.5766 60.7002 49.7345 59.909 45.6819 59.909C43.8397 59.909 41.945 60.12 39.9976 60.5947C38.0503 61.0695 36.1555 61.6497 34.3134 62.3881C33.4713 62.7574 32.8398 62.9684 32.4713 63.0739C32.1029 63.1793 31.8398 63.2321 31.6292 63.2321C30.8924 63.2321 30.524 62.7046 30.524 61.5969V59.0123C30.524 58.1684 30.6292 57.5354 30.8924 57.1662C31.1555 56.7969 31.6292 56.4277 32.3661 56.0585C34.2082 55.109 36.4187 54.3178 38.9976 53.6848C41.5766 52.9991 44.3134 52.6826 47.2082 52.6826C53.4713 52.6826 58.0503 54.1068 60.9976 56.9552C63.8924 59.8035 65.3661 64.1288 65.3661 69.931V87.0211H65.4713ZM44.1029 95.0387C45.8398 95.0387 47.6292 94.7222 49.524 94.0892C51.4187 93.4563 53.1029 92.2958 54.524 90.7134C55.3661 89.7112 55.9976 88.6035 56.3134 87.3376C56.6292 86.0717 56.8397 84.542 56.8397 82.7486V80.5332C55.3134 80.164 53.6819 79.8475 51.9976 79.6365C50.3134 79.4255 48.6819 79.32 47.0503 79.32C43.524 79.32 40.945 80.0057 39.2082 81.4299C37.4713 82.8541 36.6292 84.8585 36.6292 87.4958C36.6292 89.9749 37.2608 91.8211 38.5766 93.087C39.8398 94.4057 41.6819 95.0387 44.1029 95.0387ZM86.3661 100.735C85.4187 100.735 84.7871 100.577 84.3661 100.208C83.945 99.8914 83.5766 99.153 83.2608 98.1508L70.8924 57.3771C70.5766 56.3222 70.4187 55.6365 70.4187 55.2673C70.4187 54.4233 70.8397 53.9486 71.6819 53.9486H76.8397C77.8397 53.9486 78.524 54.1068 78.8924 54.476C79.3134 54.7925 79.6292 55.531 79.945 56.5332L88.7871 91.4519L96.9976 56.5332C97.2608 55.4782 97.5766 54.7925 97.9976 54.476C98.4187 54.1596 99.1555 53.9486 100.103 53.9486H104.313C105.313 53.9486 105.998 54.1068 106.419 54.476C106.84 54.7925 107.208 55.531 107.419 56.5332L115.734 91.8738L124.84 56.5332C125.156 55.4782 125.524 54.7925 125.892 54.476C126.313 54.1596 126.998 53.9486 127.945 53.9486H132.84C133.682 53.9486 134.156 54.3706 134.156 55.2673C134.156 55.531 134.103 55.7947 134.05 56.1112C133.998 56.4277 133.892 56.8497 133.682 57.4299L120.998 98.2035C120.682 99.2585 120.313 99.9442 119.892 100.261C119.471 100.577 118.787 100.788 117.892 100.788H113.366C112.366 100.788 111.682 100.63 111.261 100.261C110.84 99.8914 110.471 99.2057 110.261 98.1508L102.103 64.1288L93.9976 98.098C93.7345 99.153 93.4187 99.8387 92.9976 100.208C92.5766 100.577 91.8397 100.735 90.8924 100.735H86.3661ZM153.998 102.16C151.261 102.16 148.524 101.843 145.892 101.21C143.261 100.577 141.208 99.8914 139.84 99.1002C138.998 98.6255 138.419 98.098 138.208 97.6233C137.998 97.1486 137.892 96.6211 137.892 96.1464V93.4563C137.892 92.3486 138.313 91.8211 139.103 91.8211C139.419 91.8211 139.734 91.8739 140.05 91.9793C140.366 92.0848 140.84 92.2958 141.366 92.5068C143.156 93.298 145.103 93.931 147.156 94.353C149.261 94.775 151.313 94.9859 153.419 94.9859C156.734 94.9859 159.313 94.4057 161.103 93.2453C162.892 92.0848 163.84 90.3969 163.84 88.2343C163.84 86.7574 163.366 85.5442 162.419 84.542C161.471 83.5398 159.682 82.6431 157.103 81.7991L149.471 79.4255C145.629 78.2123 142.787 76.4189 141.05 74.0453C139.313 71.7244 138.419 69.1398 138.419 66.3969C138.419 64.1815 138.892 62.2299 139.84 60.542C140.787 58.8541 142.05 57.3771 143.629 56.2167C145.208 55.0035 146.998 54.1068 149.103 53.4739C151.208 52.8409 153.419 52.5771 155.734 52.5771C156.892 52.5771 158.103 52.6299 159.261 52.7881C160.471 52.9464 161.577 53.1574 162.682 53.3684C163.734 53.6321 164.734 53.8958 165.682 54.2123C166.629 54.5288 167.366 54.8453 167.892 55.1618C168.629 55.5837 169.156 56.0057 169.471 56.4804C169.787 56.9024 169.945 57.4826 169.945 58.2211V60.7002C169.945 61.8079 169.524 62.3881 168.734 62.3881C168.313 62.3881 167.629 62.1771 166.734 61.7552C163.734 60.3837 160.366 59.698 156.629 59.698C153.629 59.698 151.261 60.1728 149.629 61.1749C147.998 62.1771 147.156 63.7068 147.156 65.8695C147.156 67.3464 147.682 68.6123 148.734 69.6145C149.787 70.6167 151.734 71.6189 154.524 72.5156L161.998 74.8892C165.787 76.1024 168.524 77.7903 170.156 79.953C171.787 82.1156 172.577 84.5947 172.577 87.3376C172.577 89.6057 172.103 91.6629 171.208 93.4563C170.261 95.2497 168.998 96.8321 167.366 98.098C165.734 99.4167 163.787 100.366 161.524 101.052C159.156 101.79 156.682 102.16 153.998 102.16Z" fill="#252F3E"></path>
<path fill-rule="evenodd" clip-rule="evenodd" d="M163.946 127.793C146.63 140.61 121.472 147.415 99.8409 147.415C69.5251 147.415 42.2093 136.18 21.5778 117.507C19.9462 116.03 21.4199 114.026 23.3672 115.186C45.683 128.162 73.2093 136.021 101.683 136.021C120.894 136.021 141.999 132.013 161.42 123.784C164.315 122.465 166.788 125.683 163.946 127.793Z" fill="#FF9900"></path>
<path fill-rule="evenodd" clip-rule="evenodd" d="M171.157 119.563C168.947 116.715 156.526 118.192 150.894 118.878C149.21 119.089 148.947 117.612 150.473 116.504C160.368 109.541 176.631 111.546 178.526 113.867C180.42 116.24 177.999 132.539 168.736 140.346C167.315 141.559 165.947 140.926 166.578 139.344C168.684 134.122 173.368 122.359 171.157 119.563Z" fill="#FF9900"></path>
</g>
<defs>
<clipPath id="clip0_226_2292">
<rect width="160" height="96" fill="white" transform="translate(20 52)"></rect>
</clipPath>
</defs>
</svg>

