<svg xmlns="http://www.w3.org/2000/svg" width="100%" height="100%" viewBox="0 0 200 200" fill="none" role="presentation">
<rect width="200" height="200" rx="100" fill="white"></rect>
<path d="M79.2706 40.4751H116.971L77.8343 156.434C77.4321 157.626 76.6663 158.661 75.6447 159.395C74.6231 160.128 73.3973 160.523 72.1397 160.523H42.7991C41.8462 160.523 40.907 160.297 40.0592 159.862C39.2113 159.427 38.4793 158.796 37.9235 158.022C37.3677 157.248 37.0042 156.353 36.863 155.411C36.7218 154.468 36.8071 153.506 37.1116 152.603L73.5745 44.564C73.9766 43.3719 74.7425 42.336 75.7644 41.6022C76.7863 40.8684 78.0126 40.4752 79.2706 40.4751Z" fill="url(#paint0_linear_226_2299)"></path>
<path d="M134.056 118.253H74.271C73.7152 118.252 73.1721 118.419 72.7124 118.732C72.2527 119.044 71.8978 119.488 71.6939 120.005C71.49 120.522 71.4465 121.088 71.5692 121.63C71.6918 122.173 71.9749 122.665 72.3815 123.044L110.798 158.9C111.916 159.944 113.389 160.524 114.918 160.523H148.771L134.056 118.253Z" fill="#0078D4"></path>
<path d="M79.2707 40.4751C77.9989 40.4703 76.7589 40.8722 75.7317 41.6221C74.7046 42.3721 73.9442 43.4308 73.5615 44.6437L37.1566 152.505C36.8315 153.411 36.7294 154.382 36.859 155.336C36.9886 156.29 37.3461 157.199 37.9011 157.985C38.4562 158.772 39.1925 159.413 40.0478 159.855C40.9032 160.297 41.8523 160.526 42.815 160.523H72.9129C74.0338 160.323 75.0816 159.829 75.949 159.091C76.8165 158.353 77.4725 157.399 77.8503 156.324L85.1101 134.929L111.042 159.116C112.129 160.015 113.492 160.512 114.902 160.523H148.629L133.837 118.253L90.7164 118.263L117.108 40.4751H79.2707Z" fill="url(#paint1_linear_226_2299)"></path>
<path d="M127.424 44.5582C127.022 43.3681 126.258 42.3339 125.237 41.6014C124.217 40.8689 122.993 40.475 121.737 40.4751H79.7195C80.9755 40.4752 82.1998 40.8692 83.2201 41.6017C84.2404 42.3342 85.0052 43.3682 85.4069 44.5582L121.871 152.602C122.176 153.505 122.261 154.467 122.12 155.41C121.979 156.353 121.616 157.248 121.06 158.022C120.504 158.797 119.772 159.427 118.924 159.863C118.076 160.298 117.137 160.525 116.184 160.525H158.202C159.155 160.524 160.095 160.297 160.942 159.862C161.79 159.427 162.522 158.796 163.078 158.022C163.633 157.248 163.997 156.352 164.138 155.41C164.279 154.467 164.193 153.505 163.888 152.602L127.424 44.5582Z" fill="url(#paint2_linear_226_2299)"></path>
<defs>
<linearGradient id="paint0_linear_226_2299" x1="93.0114" y1="49.3711" x2="53.8583" y2="165.039" gradientUnits="userSpaceOnUse">
<stop stop-color="#114A8B"></stop>
<stop offset="1" stop-color="#0669BC"></stop>
</linearGradient>
<linearGradient id="paint1_linear_226_2299" x1="105.242" y1="103.276" x2="96.1852" y2="106.338" gradientUnits="userSpaceOnUse">
<stop stop-opacity="0.3"></stop>
<stop offset="0.071" stop-opacity="0.2"></stop>
<stop offset="0.321" stop-opacity="0.1"></stop>
<stop offset="0.623" stop-opacity="0.05"></stop>
<stop offset="1" stop-opacity="0"></stop>
</linearGradient>
<linearGradient id="paint2_linear_226_2299" x1="100.261" y1="45.9975" x2="143.24" y2="160.5" gradientUnits="userSpaceOnUse">
<stop stop-color="#3CCBF4"></stop>
<stop offset="1" stop-color="#2892DF"></stop>
</linearGradient>
</defs>
</svg>