<svg xmlns="http://www.w3.org/2000/svg" width="100%" height="100%" viewBox="0 0 47 46" fill="none" role="presentation">
<rect width="45.36" height="45.36" rx="22.68" transform="matrix(-1 8.74228e-08 8.74228e-08 1 46.1807 0.359863)" fill="white"></rect>
<g clip-path="url(#clip0_124_3503)">
<path fill-rule="evenodd" clip-rule="evenodd" d="M29.7868 19.056C30.182 17.7085 31.4262 16.7246 32.8997 16.7246C34.6912 16.7246 36.1436 18.179 36.1436 19.973C36.1436 21.7671 34.6912 23.2215 32.8997 23.2215C31.4262 23.2215 30.182 22.2376 29.7868 20.8901C29.4769 21.9468 28.6449 22.7799 27.5898 23.0902C28.9353 23.486 29.9179 24.7319 29.9179 26.2075C29.9179 28.0015 28.4655 29.4559 26.674 29.4559C25.2005 29.4559 23.9563 28.4719 23.5611 27.1245C23.2511 28.1811 22.4192 29.0142 21.364 29.3246C22.7096 29.7204 23.6922 30.9662 23.6922 32.4418C23.6922 34.2358 22.2398 35.6902 20.4482 35.6902C18.6566 35.6902 17.2043 34.2358 17.2043 32.4418C17.2043 30.9662 18.1868 29.7204 19.5324 29.3246C18.4772 29.0142 17.6453 28.1811 17.3353 27.1245C16.9401 28.4719 15.696 29.4559 14.2225 29.4559C12.4309 29.4559 10.9785 28.0015 10.9785 26.2075C10.9785 24.7319 11.961 23.486 13.3067 23.0902C11.961 22.6944 10.9785 21.4486 10.9785 19.973C10.9785 18.4975 11.961 17.2516 13.3067 16.8559C11.961 16.4601 10.9785 15.2143 10.9785 13.7387C10.9785 11.9446 12.4309 10.4902 14.2225 10.4902C15.696 10.4902 16.9401 11.4741 17.3353 12.8216C17.7306 11.4741 18.9747 10.4902 20.4482 10.4902C21.9218 10.4902 23.1658 11.4741 23.5611 12.8216C23.9563 11.4741 25.2005 10.4902 26.674 10.4902C28.4655 10.4902 29.9179 11.9446 29.9179 13.7387C29.9179 15.2143 28.9353 16.4601 27.5898 16.8559C28.6449 17.1662 29.4769 17.9993 29.7868 19.056ZM25.7581 23.0902C24.4125 22.6944 23.43 21.4486 23.43 19.973C23.43 18.4975 24.4125 17.2516 25.7581 16.8559C24.7029 16.5455 23.871 15.7124 23.5611 14.6557C23.1658 16.0033 21.9218 16.9871 20.4482 16.9871C18.9747 16.9871 17.7306 16.0033 17.3353 14.6557C17.0254 15.7124 16.1935 16.5455 15.1382 16.8559C16.4839 17.2516 17.4664 18.4975 17.4664 19.973C17.4664 21.4486 16.4839 22.6944 15.1382 23.0902C16.1935 23.4006 17.0254 24.2337 17.3353 25.2903C17.7306 23.9429 18.9747 22.959 20.4482 22.959C21.9218 22.959 23.1658 23.9429 23.5611 25.2903C23.871 24.2337 24.7029 23.4006 25.7581 23.0902ZM36.1436 32.4418C36.1436 34.2358 34.6912 35.6902 32.8997 35.6902C31.1081 35.6902 29.6558 34.2358 29.6558 32.4418C29.6558 30.6477 31.1081 29.1934 32.8997 29.1934C34.6912 29.1934 36.1436 30.6477 36.1436 32.4418Z" fill="black"></path>
</g>
<defs>
<clipPath id="clip0_124_3503">
<rect width="25.2" height="25.2" fill="white" transform="translate(10.9785 10.4902)"></rect>
</clipPath>
</defs>
</svg>
