<svg xmlns="http://www.w3.org/2000/svg" width="100%" height="100%" viewBox="0 0 200 200" fill="none" role="presentation">
<rect width="200" height="200" rx="100" transform="matrix(-1 8.74228e-08 8.74228e-08 1 200 0)" fill="white"></rect>
<g clip-path="url(#clip0_226_2352)">
<path d="M19.9345 85.2705H15.7316V110.524H33.7585V106.501H19.9345V85.2705Z" fill="black"></path>
<path d="M54.8859 110.528H59.0887V110.483H59.1436L59.1511 110.298C59.153 110.243 59.1681 109.738 59.0906 108.959V99.5605C59.0906 96.0245 61.6929 94.4147 64.1118 94.4147C66.7141 94.4147 67.9803 95.8036 67.9803 98.662V110.528H72.1832V98.108C72.1832 93.3908 69.1577 90.4595 64.2876 90.4595C62.2183 90.4595 60.3719 91.0416 58.9225 92.1479L58.8827 90.8058H54.8915V110.528H54.8859Z" fill="black"></path>
<path d="M89.2901 92.2546C87.8292 91.0791 85.9508 90.4595 83.8324 90.4595C78.1648 90.4595 74.644 94.3305 74.644 100.562C74.644 106.793 78.1648 110.7 83.8324 110.7C85.8317 110.7 87.6157 110.161 89.0217 109.135C88.9008 112.192 86.9675 114.008 83.7984 114.008C81.1337 114.008 79.6256 113.167 79.3156 111.511L79.2779 111.305L75.194 112.538L75.2299 112.705C75.9197 115.997 79.0304 117.963 83.5545 117.963C86.6235 117.963 89.0312 117.136 90.7113 115.501C92.4063 113.854 93.2643 111.481 93.2643 108.448V90.8058H89.3771L89.2919 92.2546H89.2901ZM89.0274 100.736C89.0274 104.499 87.1773 106.747 84.0761 106.747C80.752 106.747 78.847 104.493 78.847 100.564C78.847 96.6348 80.7538 94.4147 84.0761 94.4147C87.1016 94.4147 88.9972 96.6516 89.0274 100.251V100.736Z" fill="black"></path>
<path d="M113.973 102.515C113.102 105.306 110.865 106.845 107.676 106.845C103.116 106.845 100.282 103.416 100.282 97.8955C100.282 92.3753 103.141 88.946 107.746 88.946C110.933 88.946 112.769 90.1833 113.703 92.9556L114.14 94.2528L118.108 92.4071L117.736 91.3682C116.224 87.1509 112.734 84.9233 107.642 84.9233C104.182 84.9233 101.245 86.1606 99.1477 88.5005C97.0727 90.8179 95.9747 94.0656 95.9747 97.8973C95.9747 105.778 100.567 110.871 107.676 110.871C112.686 110.871 116.566 108.275 118.055 103.925L118.435 102.813L114.359 101.278L113.971 102.517L113.973 102.515Z" fill="black"></path>
<path d="M129.669 90.4597C127.662 90.4597 125.876 91.0044 124.474 92.0395V82.8542H120.271V110.53H124.474V99.5626C124.474 96.0042 127.076 94.3832 129.495 94.3832C132.097 94.3832 133.363 95.7721 133.363 98.6304V110.532H137.566V98.0763C137.566 93.4509 134.468 90.4634 129.671 90.4634L129.669 90.4597Z" fill="black"></path>
<path d="M162.132 82.2559C160.57 82.2559 159.437 83.379 159.437 84.9252C159.437 86.4713 160.57 87.5944 162.132 87.5944C163.692 87.5944 164.826 86.4713 164.826 84.9252C164.826 83.379 163.692 82.2559 162.132 82.2559Z" fill="black"></path>
<path d="M177.101 90.4595C175.031 90.4595 173.186 91.0416 171.736 92.1479L171.696 90.8058H167.705V110.528H171.908V99.5605C171.908 96.0245 174.51 94.4147 176.93 94.4147C179.531 94.4147 180.797 95.8036 180.797 98.662V110.528H185.001V98.108C185.001 93.3908 181.975 90.4595 177.105 90.4595H177.101Z" fill="black"></path>
<path d="M164.173 90.8058H159.991V100.583C158.83 99.6167 157.463 98.8867 155.921 98.4094V97.4153C155.921 93.0595 153.034 90.4595 148.198 90.4595C144.269 90.4595 141.331 92.2864 140.134 95.4705L139.812 96.3296L143.181 98.7893L143.759 97.2974C144.521 95.3301 145.933 94.4129 148.198 94.4129C150.464 94.4129 151.717 95.4929 151.717 97.6212V97.7318C151.583 97.7261 151.447 97.7224 151.311 97.7205C146.811 97.6493 143.528 98.692 141.554 100.815C139.534 102.986 139.711 105.425 139.738 105.695L139.756 105.882H139.775C140.089 108.92 142.768 110.87 146.662 110.87C148.806 110.87 150.788 110.279 152.286 109.199L152.302 110.526H155.921V104.356L155.842 104.3C155.331 103.929 154.439 103.45 153.096 103.282C152.675 103.229 152.273 103.203 151.903 103.211H151.715V103.778C151.715 105.083 150.201 106.919 146.834 106.919C144.349 106.919 143.978 105.884 143.978 105.266V105.202C143.997 104.925 144.114 104.248 144.732 103.617C145.517 102.814 147.282 101.874 151.241 101.934C154.108 101.979 156.307 102.773 157.78 104.294C159.587 106.163 159.927 108.72 159.989 109.721V110.528H164.171V90.8058H164.173Z" fill="black"></path>
<path d="M44.0181 90.3682C40.0893 90.3682 37.1506 92.1951 35.9543 95.3791L35.6312 96.2384L39.0007 98.698L39.5789 97.2061C40.3405 95.2387 41.7522 94.3216 44.0181 94.3216C46.2839 94.3216 47.5369 95.4017 47.5369 97.53V98.0298L43.2093 98.786C38.1352 99.6751 35.5613 101.824 35.5613 105.171C35.5613 108.518 38.2769 110.779 42.4798 110.779C44.6247 110.779 46.6053 110.188 48.1039 109.107L48.1209 110.435H51.738V97.3241C51.738 92.9682 48.8522 90.3682 44.0163 90.3682H44.0181ZM47.5369 101.931V103.688C47.5369 104.993 46.0232 106.829 42.6556 106.829C40.1705 106.829 39.8 105.794 39.8 105.177C39.8 104.628 39.8 103.344 44.2033 102.535L47.5369 101.933V101.931Z" fill="black"></path>
</g>
<defs>
<clipPath id="clip0_226_2352">
<rect width="170" height="36" fill="white" transform="translate(15 82)"></rect>
</clipPath>
</defs>
</svg>

