<svg class="testimonial_icon" viewBox="0 0 80 50" fill="none" xmlns="http://www.w3.org/2000/svg" role="presentation" aria-hidden="true">
<g clip-path="url(#clip0_57_4384)" aria-hidden="true">
<path d="M20.0923 18.1991C20.0923 19.222 20.2025 20.0514 20.3952 20.6596C20.6155 21.2678 20.8909 21.9313 21.2764 22.6501C21.4141 22.8713 21.4692 23.0925 21.4692 23.286C21.4692 23.5625 21.304 23.8389 20.946 24.1154L19.2111 25.2765C18.9633 25.4424 18.7154 25.5253 18.4951 25.5253C18.2198 25.5253 17.9444 25.3871 17.669 25.1383C17.2835 24.7236 16.953 24.2812 16.6777 23.8389C16.4023 23.3689 16.1269 22.8437 15.824 22.2078C13.6761 24.7512 10.9774 26.0229 7.72793 26.0229C5.41477 26.0229 3.56975 25.3594 2.2204 24.0324C0.871058 22.7054 0.182617 20.9361 0.182617 18.7244C0.182617 16.3745 1.00875 14.4669 2.68854 13.0293C4.36834 11.5917 6.59889 10.8729 9.43526 10.8729C10.3715 10.8729 11.3354 10.9558 12.3543 11.0941C13.3731 11.2323 14.4196 11.4535 15.5211 11.7023V9.68413C15.5211 7.58303 15.0805 6.11779 14.2268 5.26076C13.3456 4.40373 11.8586 3.98904 9.73818 3.98904C8.77436 3.98904 7.78301 4.09963 6.76411 4.34844C5.74522 4.59725 4.75387 4.90136 3.79005 5.28841C3.34945 5.48193 3.01899 5.59251 2.82623 5.64781C2.63347 5.7031 2.49578 5.73074 2.38563 5.73074C2.0001 5.73074 1.80734 5.45428 1.80734 4.87372V3.51906C1.80734 3.07672 1.86241 2.74497 2.0001 2.55145C2.13779 2.35792 2.38563 2.1644 2.77116 1.97088C3.73497 1.47325 4.89155 1.05856 6.2409 0.726807C7.59024 0.367409 9.0222 0.201532 10.5368 0.201532C13.8137 0.201532 16.2095 0.947976 17.7516 2.44086C19.2662 3.93375 20.0373 6.20073 20.0373 9.24179V18.1991H20.0923ZM8.91205 22.4013C9.82079 22.4013 10.7571 22.2354 11.7484 21.9037C12.7398 21.5719 13.621 20.9637 14.3645 20.1343C14.8051 19.6091 15.1356 19.0285 15.3008 18.365C15.466 17.7015 15.5762 16.8997 15.5762 15.9598V14.7986C14.7776 14.6051 13.9239 14.4393 13.0427 14.3287C12.1615 14.2181 11.3078 14.1628 10.4542 14.1628C8.60914 14.1628 7.25979 14.5222 6.35105 15.2686C5.44231 16.0151 5.0017 17.0656 5.0017 18.4479C5.0017 19.7473 5.33216 20.7149 6.0206 21.3784C6.6815 22.0696 7.64532 22.4013 8.91205 22.4013ZM31.0248 25.3871C30.5291 25.3871 30.1986 25.3042 29.9783 25.1106C29.758 24.9448 29.5653 24.5577 29.4001 24.0324L22.9287 2.66203C22.7635 2.10911 22.6809 1.74971 22.6809 1.55619C22.6809 1.11385 22.9012 0.865038 23.3418 0.865038H26.0405C26.5637 0.865038 26.9217 0.947976 27.1144 1.1415C27.3347 1.30737 27.5 1.69442 27.6652 2.21969L32.2915 20.5214L36.5874 2.21969C36.7251 1.66677 36.8903 1.30737 37.1106 1.1415C37.3309 0.975622 37.7164 0.865038 38.2121 0.865038H40.4151C40.9383 0.865038 41.2963 0.947976 41.5166 1.1415C41.7369 1.30737 41.9297 1.69442 42.0398 2.21969L46.3908 20.7426L51.1548 2.21969C51.32 1.66677 51.5128 1.30737 51.7055 1.1415C51.9258 0.975622 52.2838 0.865038 52.7795 0.865038H55.3405C55.7811 0.865038 56.0289 1.08621 56.0289 1.55619C56.0289 1.69442 56.0014 1.83265 55.9739 1.99853C55.9463 2.1644 55.8913 2.38557 55.7811 2.68968L49.1445 24.0601C48.9793 24.613 48.7865 24.9724 48.5662 25.1383C48.3459 25.3042 47.988 25.4147 47.5198 25.4147H45.1516C44.6284 25.4147 44.2704 25.3318 44.0501 25.1383C43.8298 24.9448 43.637 24.5854 43.5269 24.0324L39.2585 6.20073L35.0177 24.0048C34.88 24.5577 34.7148 24.9171 34.4945 25.1106C34.2742 25.3042 33.8887 25.3871 33.393 25.3871H31.0248ZM66.4106 26.1335C64.9787 26.1335 63.5467 25.9677 62.1698 25.6359C60.793 25.3042 59.719 24.9448 59.003 24.5301C58.5624 24.2812 58.2595 24.0048 58.1493 23.756C58.0392 23.5072 57.9841 23.2307 57.9841 22.9819V21.5719C57.9841 20.9914 58.2044 20.7149 58.6175 20.7149C58.7827 20.7149 58.9479 20.7426 59.1132 20.7978C59.2784 20.8531 59.5262 20.9637 59.8016 21.0743C60.7379 21.489 61.7568 21.8207 62.8307 22.0419C63.9322 22.2631 65.0062 22.3737 66.1077 22.3737C67.8426 22.3737 69.1919 22.0696 70.1282 21.4613C71.0645 20.8531 71.5602 19.9685 71.5602 18.835C71.5602 18.0609 71.3123 17.425 70.8167 16.8997C70.321 16.3745 69.3847 15.9045 68.0354 15.4622L64.0424 14.2181C62.0322 13.5822 60.5451 12.6423 59.6364 11.3982C58.7276 10.1818 58.2595 8.8271 58.2595 7.38951C58.2595 6.22837 58.5073 5.20547 59.003 4.32079C59.4987 3.43612 60.1596 2.66203 60.9857 2.05382C61.8118 1.41796 62.7481 0.947976 63.8496 0.616223C64.9511 0.28447 66.1077 0.14624 67.3194 0.14624C67.9252 0.14624 68.5586 0.173886 69.1644 0.256824C69.7978 0.339763 70.3761 0.450347 70.9543 0.560931C71.5051 0.699161 72.0283 0.837392 72.524 1.00327C73.0197 1.16914 73.4052 1.33502 73.6806 1.5009C74.0661 1.72207 74.3415 1.94323 74.5067 2.19205C74.6719 2.41322 74.7545 2.71732 74.7545 3.10437V4.40373C74.7545 4.9843 74.5342 5.28841 74.1212 5.28841C73.9009 5.28841 73.5429 5.17782 73.0747 4.95665C71.5051 4.23786 69.7427 3.87846 67.7875 3.87846C66.2179 3.87846 64.9787 4.12727 64.125 4.65255C63.2713 5.17782 62.8307 5.97956 62.8307 7.11305C62.8307 7.88714 63.1061 8.55064 63.6569 9.07592C64.2076 9.60119 65.2265 10.1265 66.686 10.5964L70.5964 11.8405C72.5791 12.4764 74.011 13.3611 74.8647 14.4945C75.7184 15.628 76.1314 16.9274 76.1314 18.365C76.1314 19.5538 75.8836 20.632 75.4154 21.5719C74.9198 22.5119 74.2589 23.3413 73.4052 24.0048C72.5515 24.6959 71.5326 25.1936 70.3485 25.553C69.1093 25.94 67.8151 26.1335 66.4106 26.1335Z" fill="#252F3E" aria-hidden="true"></path>
<path fill-rule="evenodd" clip-rule="evenodd" d="M71.6152 39.5696C62.5553 46.2876 49.3923 49.8539 38.0743 49.8539C22.2126 49.8539 7.92059 43.9653 -2.87416 34.1786C-3.72783 33.4045 -2.95677 32.354 -1.93788 32.9622C9.73808 39.7631 24.1403 43.8824 39.0381 43.8824C49.0894 43.8824 60.132 41.7813 70.2934 37.4685C71.8079 36.7773 73.1022 38.4637 71.6152 39.5696Z" fill="#FF9900" aria-hidden="true"></path>
<path fill-rule="evenodd" clip-rule="evenodd" d="M75.3878 35.2568C74.2312 33.7639 67.7323 34.538 64.7858 34.8974C63.9046 35.008 63.7669 34.2339 64.5655 33.6533C69.7425 30.004 78.2517 31.0546 79.243 32.271C80.2344 33.5151 78.9677 42.0577 74.121 46.1493C73.3775 46.7852 72.6615 46.4534 72.992 45.6241C74.0935 42.8871 76.5443 36.722 75.3878 35.2568Z" fill="#FF9900" aria-hidden="true"></path>
</g>
<defs aria-hidden="true">
<clipPath id="clip0_57_4384" aria-hidden="true">
<rect width="79.8246" height="50" fill="white" aria-hidden="true"></rect>
</clipPath>
</defs>
</svg>