<svg class="testimonial_icon" viewBox="0 0 60 50" fill="none" xmlns="http://www.w3.org/2000/svg" role="presentation">
<path d="M20.9325 0.0727539H36.6184L20.3568 48.2566C20.1925 48.7435 19.8795 49.1666 19.4621 49.4663C19.0446 49.766 18.5437 49.9272 18.0298 49.9272H5.76455C5.37469 49.9272 4.99044 49.8344 4.64358 49.6564C4.29672 49.4784 3.99721 49.2204 3.76984 48.9037C3.54248 48.5871 3.39377 48.2208 3.33604 47.8352C3.2783 47.4497 3.31319 47.0559 3.43783 46.6865L18.6061 1.74306C18.7705 1.25628 19.0833 0.833297 19.5006 0.533659C19.918 0.234021 20.4188 0.0728209 20.9325 0.0727539Z" fill="url(#paint0_linear_57_4363)"></path>
<path d="M42.5903 31.4626H17.8687C17.6394 31.4626 17.4155 31.5316 17.226 31.6606C17.0364 31.7896 16.8901 31.9727 16.806 32.1859C16.7219 32.3992 16.704 32.6329 16.7545 32.8565C16.805 33.0801 16.9217 33.2834 17.0893 33.4398L34.0417 49.2662C34.4965 49.691 35.0956 49.9274 35.7179 49.9276H49.7278L42.5903 31.4626Z" fill="#0078D4"></path>
<g opacity="0.5">
<path d="M38.1887 49.9273H49.7135L42.5757 31.4626H33.1765L38.6143 47.5562C38.7504 47.9551 38.7827 48.382 38.7083 48.7968C38.6338 49.2116 38.455 49.6006 38.1887 49.9273Z" fill="black"></path>
<path d="M29.5998 20.8588L36.615 0.0727539H22.3826C22.5932 0.316654 22.7546 0.599094 22.8578 0.904434L29.5998 20.8588Z" fill="black"></path>
</g>
<g opacity="0.5">
<path d="M21.4948 0.0727539L29.1426 22.2288L30.2008 19.0774L23.798 0.0727539H21.4948Z" fill="black" fill-opacity="0.5"></path>
<path d="M35.9841 49.9269H49.7146H39.2897C39.5023 49.5193 39.6298 49.0727 39.6645 48.6143C39.6992 48.1559 39.6403 47.6952 39.4914 47.2602L34.1535 31.4623H32.2024L37.7401 47.8522C37.82 48.0885 37.8425 48.3405 37.8057 48.5873C37.7689 48.8341 37.6738 49.0686 37.5284 49.2713C37.383 49.4741 37.1913 49.6393 36.9694 49.7533C36.7474 49.8673 36.5015 49.9268 36.252 49.9269H35.9841Z" fill="black" fill-opacity="0.5"></path>
</g>
<path d="M40.918 1.74339C40.7537 1.25652 40.4408 0.833458 40.0234 0.53376C39.606 0.234061 39.1051 0.0728253 38.5913 0.0727545H21.1157C21.6376 0.0724032 22.1464 0.235878 22.5703 0.540125C22.9943 0.844371 23.3121 1.27404 23.4788 1.76852L38.6223 46.6379C38.7489 47.0128 38.7844 47.4125 38.7259 47.8038C38.6674 48.1951 38.5165 48.5669 38.2858 48.8884C38.055 49.2098 37.751 49.4717 37.399 49.6524C37.0469 49.833 36.6569 49.9273 36.2612 49.9272H53.7609C54.1507 49.9272 54.5349 49.8343 54.8818 49.6563C55.2286 49.4783 55.5281 49.2203 55.7554 48.9036C55.9828 48.5869 56.1315 48.2207 56.1892 47.8352C56.247 47.4496 56.2122 47.0559 56.0876 46.6865L40.918 1.74339Z" fill="url(#paint1_linear_57_4363)"></path>
<defs>
<linearGradient id="paint0_linear_57_4363" x1="26.6686" y1="3.7672" x2="10.4087" y2="51.8026" gradientUnits="userSpaceOnUse">
<stop stop-color="#114A8B"></stop>
<stop offset="1" stop-color="#0669BC"></stop>
</linearGradient>
<linearGradient id="paint1_linear_57_4363" x1="29.6465" y1="2.36574" x2="47.4947" y2="49.9177" gradientUnits="userSpaceOnUse">
<stop stop-color="#3CCBF4"></stop>
<stop offset="1" stop-color="#2892DF"></stop>
</linearGradient>
</defs>
</svg>