<svg xmlns="http://www.w3.org/2000/svg" class="testimonial_icon" viewBox="0 0 84 165" fill="none" role="presentation" aria-hidden="true">
  <path d="M0 158V38.2258L38 0V122.323L0 158Z" fill="#AC9FFF" aria-hidden="true"></path>
  <path d="M0 103H56C60.3372 101.421 65.7143 101.216 71.2727 97.9033C77.6756 94.0867 84 86.9784 84 82.6131C84 78.8793 83.3233 74.9159 81.4545 72.4197C79.2419 69.4641 75.6581 68.244 73.8182 67.323L38.1818 66L0 103Z" fill="#7762FF" aria-hidden="true"></path>
  <path d="M0 37H56C60.3372 35.421 65.7143 35.2165 71.2727 31.9033C77.6756 28.0867 84 20.9784 84 16.6131C84 12.8793 83.3233 8.91593 81.4545 6.4197C79.2419 3.46411 75.6581 2.244 73.8182 1.32298L38.1818 0L0 37Z" fill="#7762FF" aria-hidden="true"></path>
</svg>