<svg xmlns="http://www.w3.org/2000/svg" class="testimonial_icon" viewBox="0 0 131 131" fill="none" role="presentation" aria-hidden="true">
  <path d="M83.5125 65.5H96.6125C97.6359 65.5 98.6594 64.6813 98.6594 63.4531C98.6594 63.2484 98.6594 62.8391 98.4547 62.6344L75.9391 1.22813C75.5297 0.614063 74.9156 0 74.0969 0H60.9969C59.9734 0 58.95 0.81875 58.95 2.04688C58.95 2.25156 58.95 2.45625 59.1547 2.66094L81.875 64.4766C82.0797 65.0906 82.6938 65.5 83.5125 65.5Z" fill="#0073FF" aria-hidden="true"></path>
  <path d="M81.2609 131H94.3609C95.3844 131 96.4078 130.181 96.4078 128.953C96.4078 128.748 96.4078 128.544 96.2031 128.339L49.5344 1.22813C49.3297 0.614063 48.5109 0 47.6922 0H34.5922C33.5687 0 32.5453 0.81875 32.5453 2.04688C32.5453 2.25156 32.5453 2.45625 32.75 2.66094L79.4187 129.772C79.6234 130.591 80.4422 131 81.2609 131Z" fill="#0073FF" aria-hidden="true"></path>
  <path d="M55.2656 131H68.3656C69.3891 131 70.2078 130.181 70.4125 129.158C70.4125 128.953 70.4125 128.544 70.2078 128.339L47.4875 66.7281C47.2828 65.9094 46.4641 65.5 45.6453 65.5H32.3406C31.3172 65.5 30.4984 66.5234 30.4984 67.5469C30.4984 67.7516 30.4984 67.9562 30.7031 68.1609L53.2188 129.772C53.8328 130.591 54.4469 131 55.2656 131Z" fill="#0073FF" aria-hidden="true"></path>
  <path d="M85.15 2.66094L95.7937 31.5219C95.9984 32.3406 96.8172 32.75 97.6359 32.75H110.531C111.555 32.75 112.578 31.9312 112.578 30.7031C112.578 30.4984 112.578 30.2937 112.373 30.0891L101.73 1.22813C101.525 0.614063 100.911 0 100.092 0H86.9922C85.9688 0 84.9453 0.81875 84.9453 2.04688C84.9453 2.25156 84.9453 2.45625 85.15 2.66094Z" fill="#0073FF" aria-hidden="true"></path>
  <path d="M31.1125 131H44.2125C45.2359 131 46.2594 130.181 46.2594 128.953C46.2594 128.748 46.2594 128.544 46.0547 128.339L35.4109 99.4781C35.2062 98.6594 34.3875 98.25 33.5687 98.25H20.4688C19.4453 98.25 18.4219 99.0687 18.4219 100.297C18.4219 100.502 18.4219 100.706 18.6266 100.911L29.2703 129.772C29.475 130.591 30.2937 131 31.1125 131Z" fill="#0073FF" aria-hidden="true"></path>
</svg>