<svg xmlns="http://www.w3.org/2000/svg" class="testimonial_icon" viewBox="0 0 127 153" fill="none" role="presentation" aria-hidden="true">
  <path d="M126.698 13.4026H0.904968V138.995H126.698V13.4026Z" fill="#FFD100" aria-hidden="true"></path>
  <path d="M72.9521 42.4163V44.1732C62.3436 38.9527 49.523 43.3199 44.3444 53.8612C44.3444 53.9114 44.2941 53.9616 44.2941 54.0118V54.062C42.8864 56.9232 42.1825 60.0856 42.1825 63.2982C42.1825 75.0945 51.7854 84.6319 63.5503 84.6319C66.8183 84.6319 70.036 83.8789 73.0024 82.4232V89.1496C72.9018 94.3199 68.578 98.436 63.3994 98.2854C58.3717 98.185 54.3496 94.1191 54.249 89.1496V88.2962H42.283V89.1496C42.4339 100.896 52.0871 110.282 63.8519 110.132C75.3654 109.981 84.6667 100.745 84.8678 89.25V42.4163H72.9521ZM54.6009 58.9813C56.964 54.062 62.8464 51.9537 67.7735 54.313C71.2427 55.9695 73.4046 59.4331 73.4046 63.248C73.4046 64.6033 73.1532 65.9085 72.6001 67.1132C70.4382 72.1329 64.6564 74.4419 59.6287 72.3337C57.517 71.4301 55.7573 69.8238 54.7015 67.7657L54.6512 67.7155C53.2937 64.9547 53.2937 61.7421 54.6009 58.9813Z" fill="#212322" aria-hidden="true"></path>
</svg>