<svg xmlns="http://www.w3.org/2000/svg" class="testimonial_icon" viewBox="0 0 172 119" fill="none" aria-hidden="true">
  <g clip-path="url(#clip0_211_11473)" aria-hidden="true">
    <path d="M71.5736 12.9765C77.1197 7.26468 84.8424 3.7216 93.3841 3.7216C104.739 3.7216 114.643 9.97836 119.919 19.2683C124.504 17.2443 129.578 16.1173 134.917 16.1173C155.395 16.1173 171.998 32.6717 171.998 53.0911C171.998 73.5136 155.395 90.0674 134.917 90.0674C132.417 90.0674 129.975 89.8175 127.611 89.3479C122.968 97.5361 114.115 103.071 103.953 103.071C99.7014 103.071 95.6793 102.102 92.0949 100.372C87.3878 111.322 76.4148 119 63.6284 119C50.3119 119 38.9619 110.672 34.6064 98.9902C32.7028 99.3879 30.7286 99.5976 28.7063 99.5976C12.8516 99.5976 1.52588e-05 86.7616 1.52588e-05 70.9269C1.52588e-05 60.3124 5.77099 51.0473 14.3532 46.0898C12.5861 42.0693 11.6054 37.6363 11.6054 32.9739C11.6054 14.7633 26.5627 -0.00179291 45.0111 -0.00179291C55.8431 -0.00179291 65.4689 5.08834 71.5736 12.9765Z" fill="#479DDC" aria-hidden="true"></path>
    <path d="M24.9106 61.7092C24.8018 61.9891 24.9486 62.0465 24.9839 62.0942C25.3074 62.3263 25.6336 62.4939 25.9648 62.6813C27.719 63.6006 29.3772 63.8683 31.1087 63.8683C34.6378 63.8683 36.8294 62.014 36.8294 59.028V58.9706C36.8294 56.2097 34.3546 55.2051 32.0366 54.4803L31.7332 54.3854C29.984 53.8231 28.4749 53.3386 28.4749 52.1994V52.1415C28.4749 51.1673 29.3569 50.4497 30.7246 50.4497C32.244 50.4497 34.0461 50.95 35.2064 51.5843C35.2064 51.5843 35.5503 51.8017 35.6741 51.4746C35.7425 51.2968 36.329 49.7351 36.392 49.5654C36.4579 49.3831 36.3416 49.2455 36.2202 49.1733C34.8931 48.3759 33.0605 47.8315 31.1645 47.8315L30.8131 47.834C27.5825 47.834 25.3277 49.763 25.3277 52.5265V52.5839C25.3277 55.4951 27.8151 56.4418 30.1457 57.099L30.5199 57.2143C32.2187 57.7288 33.6822 58.1738 33.6822 59.3531V59.413C33.6822 60.4923 32.7293 61.2968 31.1975 61.2968C30.6008 61.2968 28.7022 61.2872 26.6522 60.0052C26.4045 59.86 26.263 59.7579 26.0709 59.6431C25.9698 59.5801 25.7169 59.473 25.6057 59.8L24.9106 61.7092Z" fill="white" aria-hidden="true"></path>
    <path d="M76.5612 61.7092C76.4522 61.9891 76.5987 62.0465 76.6341 62.0942C76.9578 62.3263 77.2841 62.4939 77.615 62.6813C79.3692 63.6006 81.0278 63.8683 82.7593 63.8683C86.2882 63.8683 88.4796 62.014 88.4796 59.028V58.9706C88.4796 56.2097 86.0051 55.2051 83.6868 54.4803L83.3836 54.3854C81.6341 53.8231 80.125 53.3386 80.125 52.1994V52.1415C80.125 51.1673 81.0072 50.4497 82.375 50.4497C83.8943 50.4497 85.6968 50.95 86.857 51.5843C86.857 51.5843 87.2008 51.8017 87.3246 51.4746C87.3929 51.2968 87.9792 49.7351 88.0424 49.5654C88.1081 49.3831 87.992 49.2455 87.8708 49.1733C86.5436 48.3759 84.7134 47.8315 82.8148 47.8315L82.4634 47.834C79.233 47.834 76.9779 49.763 76.9779 52.5265V52.5839C76.9779 55.4951 79.4678 56.4418 81.7959 57.099L82.17 57.2143C83.8692 57.7288 85.3351 58.1738 85.3351 59.3531V59.413C85.3351 60.4923 84.382 61.2968 82.8477 61.2968C82.2512 61.2968 80.3552 61.2872 78.3025 60.0052C78.0548 59.86 77.9084 59.763 77.7214 59.6431C77.6582 59.603 77.3596 59.4877 77.2584 59.8L76.5612 61.7092Z" fill="white" aria-hidden="true"></path>
    <path d="M111.822 55.8587C111.822 57.5455 111.504 58.8772 110.877 59.8168C110.255 60.7467 109.318 61.2013 108.01 61.2013C106.701 61.2013 105.769 60.7467 105.157 59.8168C104.538 58.8772 104.224 57.5455 104.224 55.8587C104.224 54.1751 104.538 52.8454 105.154 51.9159C105.769 50.9961 106.701 50.5492 108.01 50.5492C109.318 50.5492 110.255 50.9961 110.877 51.9159C111.504 52.8454 111.822 54.1751 111.822 55.8587ZM114.768 52.7306C114.479 51.7636 114.027 50.9113 113.428 50.2018C112.829 49.4897 112.068 48.9173 111.165 48.5029C110.266 48.0879 109.204 47.8756 108.01 47.8756C106.815 47.8756 105.751 48.0879 104.851 48.5029C103.951 48.9173 103.19 49.4897 102.591 50.2043C101.989 50.9139 101.539 51.7661 101.251 52.7306C100.963 53.6926 100.817 54.7444 100.817 55.8587C100.817 56.9736 100.963 58.028 101.251 58.9874C101.539 59.9519 101.989 60.8036 102.591 61.5162C103.19 62.2282 103.953 62.7981 104.854 63.2029C105.753 63.6072 106.815 63.8124 108.01 63.8124C109.204 63.8124 110.263 63.6072 111.165 63.2029C112.066 62.7981 112.826 62.2282 113.428 61.5162C114.027 60.8066 114.479 59.9544 114.768 58.9874C115.056 58.0254 115.202 56.9736 115.202 55.8587C115.202 54.7444 115.056 53.6926 114.768 52.7306Z" fill="white" aria-hidden="true"></path>
    <path fill-rule="evenodd" clip-rule="evenodd" d="M138.951 60.7489C138.855 60.467 138.574 60.5742 138.574 60.5742C138.147 60.7367 137.692 60.884 137.204 60.9592C136.714 61.0364 136.173 61.074 135.591 61.074C134.168 61.074 133.033 60.6545 132.222 59.8271C131.411 58.9977 130.953 57.6584 130.958 55.8467C130.963 54.2001 131.365 52.9608 132.088 52.0136C132.806 51.074 133.901 50.592 135.356 50.592C136.57 50.592 137.497 50.7317 138.468 51.0319C138.468 51.0319 138.701 51.1314 138.81 50.8317C139.07 50.1222 139.259 49.6199 139.535 48.8428C139.613 48.6204 139.421 48.5279 139.351 48.5005C138.969 48.3532 138.069 48.1104 137.386 48.0084C136.752 47.9134 136.006 47.8631 135.177 47.8631C133.941 47.8631 132.838 48.0729 131.896 48.4878C130.953 48.9002 130.156 49.4726 129.522 50.1847C128.89 50.8968 128.41 51.749 128.091 52.7135C127.77 53.6755 127.611 54.7298 127.611 55.8492C127.611 58.2628 128.268 60.2146 129.57 61.6413C130.875 63.0781 132.831 63.8049 135.384 63.8049C136.893 63.8049 138.44 63.5027 139.555 63.0705C139.555 63.0705 139.767 62.9679 139.674 62.7231L138.951 60.7489Z" fill="white" aria-hidden="true"></path>
    <path fill-rule="evenodd" clip-rule="evenodd" d="M144.105 54.242C144.247 53.305 144.507 52.5258 144.912 51.9184C145.521 50.9966 146.451 50.4866 147.76 50.4866C149.07 50.4866 149.932 50.9966 150.554 51.9184C150.965 52.5284 151.145 53.3375 151.216 54.2446L144.105 54.242ZM154.02 52.1835C153.769 51.2485 153.15 50.3069 152.745 49.8772C152.103 49.192 151.474 48.7151 150.852 48.45C150.041 48.1051 149.065 47.8781 147.996 47.8781C146.752 47.8781 145.622 48.0853 144.704 48.5104C143.786 48.935 143.016 49.5171 142.409 50.2418C141.805 50.9641 141.35 51.8234 141.059 52.8006C140.768 53.7702 140.622 54.8271 140.622 55.944C140.622 57.0807 140.773 58.1401 141.074 59.0899C141.378 60.0519 141.863 60.8939 142.518 61.5964C143.175 62.3008 144.017 62.8504 145.025 63.2379C146.029 63.6203 147.247 63.8199 148.645 63.8148C151.524 63.8072 153.041 63.1729 153.666 62.8305C153.776 62.7681 153.88 62.6629 153.751 62.3582L153.097 60.5542C152.998 60.2865 152.723 60.384 152.723 60.384C152.007 60.6466 150.996 61.1164 148.63 61.1113C147.083 61.1088 145.938 60.6593 145.22 59.9518C144.484 59.2321 144.12 58.1726 144.06 56.6764L154.027 56.6835C154.027 56.6835 154.29 56.6809 154.318 56.426C154.328 56.3214 154.659 54.402 154.02 52.1835Z" fill="white" aria-hidden="true"></path>
    <path fill-rule="evenodd" clip-rule="evenodd" d="M64.2632 54.242C64.4045 53.305 64.665 52.5258 65.0668 51.9184C65.6813 50.9966 66.6087 50.4866 67.9185 50.4866C69.2277 50.4866 70.0924 50.9966 70.7141 51.9184C71.1237 52.5284 71.303 53.3375 71.3739 54.2446L64.2632 54.242ZM74.1773 52.1835C73.927 51.2485 73.3079 50.3069 72.9035 49.8772C72.2612 49.192 71.6344 48.7151 71.0101 48.45C70.1962 48.1051 69.2225 47.8781 68.1558 47.8781C66.9098 47.8781 65.78 48.0853 64.8623 48.5104C63.9446 48.935 63.1734 49.5171 62.5671 50.2418C61.9628 50.9641 61.5076 51.8234 61.2173 52.8006C60.9265 53.7702 60.7795 54.8271 60.7795 55.944C60.7795 57.0807 60.9316 58.1401 61.2322 59.0899C61.5353 60.0519 62.0209 60.8939 62.6755 61.5964C63.3327 62.3008 64.1748 62.8504 65.1834 63.2379C66.1869 63.6203 67.4052 63.8199 68.8033 63.8148C71.6822 63.8072 73.199 63.1729 73.8232 62.8305C73.9347 62.7681 74.0385 62.6629 73.9096 62.3582L73.2544 60.5542C73.1563 60.2865 72.8804 60.384 72.8804 60.384C72.1652 60.6466 71.154 61.1164 68.7878 61.1113C67.2433 61.1088 66.096 60.6593 65.3776 59.9518C64.6424 59.2321 64.2781 58.1726 64.2174 56.6764L74.185 56.6835C74.185 56.6835 74.448 56.6809 74.4758 56.426C74.4855 56.3214 74.817 54.402 74.1773 52.1835Z" fill="white" aria-hidden="true"></path>
    <path d="M42.7144 60.6947C42.3226 60.3874 42.2696 60.3102 42.1406 60.1101C41.9409 59.8079 41.8399 59.3782 41.8399 58.8286C41.8399 57.9637 42.1305 57.339 42.7297 56.922C42.7247 56.922 43.5891 56.1825 45.6215 56.2099C47.0497 56.2272 48.3289 56.437 48.3289 56.437V60.9176C48.3289 60.9176 47.0624 61.1848 45.6367 61.2696C43.6094 61.392 42.707 60.6926 42.7144 60.6947ZM46.6806 53.771C46.2762 53.741 45.753 53.7263 45.1262 53.7263C44.2717 53.7263 43.445 53.8309 42.6691 54.0382C41.8903 54.2459 41.1902 54.5659 40.5885 54.9905C39.982 55.4202 39.4965 55.9672 39.1426 56.6173C38.7887 57.2669 38.6093 58.0313 38.6093 58.886C38.6093 59.7606 38.761 60.5174 39.0667 61.137C39.3702 61.7592 39.8075 62.2793 40.3661 62.679C40.9197 63.0787 41.6047 63.3713 42.3959 63.5485C43.1797 63.7258 44.067 63.8157 45.0376 63.8157C46.0614 63.8157 47.0776 63.7309 48.0659 63.5663C49.0442 63.4012 50.2424 63.1615 50.5762 63.0838C50.9074 63.0086 51.2739 62.9091 51.2739 62.9091C51.5214 62.8461 51.5014 62.5866 51.5014 62.5866L51.4962 53.576C51.4962 51.5972 50.963 50.133 49.9139 49.2233C48.8673 48.3188 47.3253 47.8616 45.3333 47.8616C44.585 47.8616 43.3844 47.9617 42.6614 48.1039C42.6614 48.1039 40.485 48.5214 39.5902 49.2157C39.5902 49.2157 39.3929 49.3356 39.499 49.6083L40.2044 51.4824C40.2929 51.7247 40.5329 51.6419 40.5329 51.6419C40.5329 51.6419 40.6088 51.612 40.6973 51.5596C42.6135 50.5301 45.04 50.5601 45.04 50.5601C46.117 50.5601 46.9462 50.7775 47.5048 51.1975C48.0483 51.612 48.3238 52.2316 48.3238 53.546V53.9635C47.4694 53.8411 46.6806 53.771 46.6806 53.771Z" fill="white" aria-hidden="true"></path>
    <path fill-rule="evenodd" clip-rule="evenodd" d="M127.09 48.6929C127.166 48.4705 127.006 48.3633 126.941 48.3379C126.771 48.2754 125.922 48.0982 125.27 48.056C124.016 47.9809 123.321 48.1886 122.699 48.4659C122.079 48.7407 121.394 49.1876 121.015 49.695L121.013 48.4933C121.013 48.3283 120.894 48.1957 120.727 48.1957H118.171C118.005 48.1957 117.886 48.3283 117.886 48.4933V63.1934C117.886 63.3579 118.02 63.4905 118.189 63.4905H120.808C120.975 63.4905 121.109 63.3579 121.109 63.1934V55.8492C121.109 54.8623 121.22 53.8806 121.44 53.263C121.655 52.651 121.948 52.1639 122.312 51.814C122.676 51.464 123.09 51.2192 123.546 51.0821C124.008 50.9419 124.521 50.8947 124.88 50.8947C125.404 50.8947 125.975 51.0293 125.975 51.0293C126.17 51.0496 126.276 50.9317 126.341 50.7621C126.511 50.3121 126.999 48.9606 127.09 48.6929Z" fill="white" aria-hidden="true"></path>
    <path fill-rule="evenodd" clip-rule="evenodd" d="M102.504 41.8807C102.186 41.7837 101.897 41.7187 101.518 41.6512C101.134 41.5811 100.679 41.546 100.163 41.546C98.3613 41.546 96.9406 42.0509 95.9418 43.0453C94.9511 44.0322 94.276 45.5366 93.9374 47.5128L93.8161 48.1802H91.5538C91.5538 48.1802 91.2758 48.1705 91.2198 48.4676L90.8483 50.5165C90.8206 50.7115 90.9064 50.8339 91.172 50.8339H93.3763L91.1391 63.1677C90.9644 64.1596 90.7651 64.9768 90.5426 65.5964C90.3252 66.2084 90.11 66.6655 89.8474 66.9982C89.592 67.3182 89.3521 67.5579 88.9349 67.6956C88.5911 67.8078 88.1939 67.8601 87.7618 67.8601C87.5219 67.8601 87.2007 67.82 86.9628 67.7728C86.7254 67.7281 86.6016 67.6752 86.4244 67.6026C86.4244 67.6026 86.1669 67.5051 86.0631 67.7601C85.982 67.9703 85.3957 69.5666 85.3248 69.7642C85.2544 69.9593 85.3525 70.1116 85.4789 70.1563C85.7723 70.2588 85.9897 70.3265 86.3894 70.4189C86.9454 70.5489 87.4129 70.556 87.8502 70.556C88.7679 70.556 89.6049 70.4291 90.2975 70.1817C90.9948 69.9319 91.6016 69.4966 92.14 68.9119C92.7191 68.2776 93.0855 67.6128 93.4343 66.7057C93.7807 65.8087 94.0741 64.6944 94.3114 63.3952L96.5563 50.8339H99.8401C99.8401 50.8339 100.118 50.8441 100.174 50.5465L100.545 48.4976C100.57 48.3026 100.487 48.1802 100.222 48.1802H97.0341C97.049 48.1101 97.1934 47.0008 97.5598 45.9586C97.7165 45.5112 98.0099 45.1541 98.2601 44.9068C98.5026 44.6645 98.7857 44.4918 99.094 44.3923C99.41 44.2922 99.7692 44.2419 100.163 44.2419C100.464 44.2419 100.758 44.277 100.982 44.3222C101.291 44.3872 101.412 44.4217 101.493 44.4446C101.817 44.5446 101.86 44.4497 101.925 44.2948L102.686 42.2256C102.765 42.0031 102.575 41.9087 102.504 41.8807Z" fill="white" aria-hidden="true"></path>
    <path fill-rule="evenodd" clip-rule="evenodd" d="M57.9666 63.1928C57.9666 63.3578 57.8479 63.4929 57.6809 63.4929H55.0368C54.8698 63.4929 54.7511 63.3578 54.7511 63.1928V42.1613C54.7511 41.9962 54.8698 41.8642 55.0368 41.8642H57.6809C57.8479 41.8642 57.9666 41.9962 57.9666 42.1613V63.1928Z" fill="white" aria-hidden="true"></path>
  </g>
  <defs aria-hidden="true">
    <clipPath id="clip0_211_11473" aria-hidden="true">
      <rect width="172" height="119" fill="white" aria-hidden="true"></rect>
    </clipPath>
  </defs>
</svg>